<?xml version="1.0" encoding="utf-8"?>
<!-- Generator: Adobe Illustrator 16.0.0, SVG Export Plug-In . SVG Version: 6.00 Build 0)  -->
<!DOCTYPE svg PUBLIC "-//W3C//DTD SVG 1.1//EN" "http://www.w3.org/Graphics/SVG/1.1/DTD/svg11.dtd">
<svg version="1.1" id="Calque_1" xmlns="http://www.w3.org/2000/svg" xmlns:xlink="http://www.w3.org/1999/xlink" x="0px" y="0px"
	 width="419.527px" height="334.488px" viewBox="0 0 419.527 334.488" enable-background="new 0 0 419.527 334.488"
	 xml:space="preserve">
<g>
	<path fill="#FFFFFF" d="M145.44,137.621c4.421-12.899-25.476-90.573-5.368-114.785c8.978-10.811,27.232-16.979,49.864-12.589
		c57.017,11.061-31.555,121.54-35.152,124.247C150.899,135.793,145.44,137.621,145.44,137.621z"/>
	<path d="M145.44,137.621c0.448-1.619,0.371-3.308,0.265-4.961c-0.126-1.659-0.364-3.309-0.639-4.951
		c-0.541-3.286-1.216-6.553-1.935-9.811c-1.445-6.516-3.032-13.005-4.54-19.523c-1.503-6.518-2.886-13.071-4.101-19.672
		c-1.221-6.599-2.184-13.261-2.743-19.994c-0.529-6.726-0.727-13.556,0.273-20.392c0.498-3.41,1.304-6.83,2.662-10.115
		c0.667-1.644,1.503-3.245,2.513-4.753c0.242-0.383,0.504-0.755,0.788-1.113l0.415-0.544c0.082-0.102,0.112-0.154,0.235-0.297
		l0.204-0.238c0.51-0.613,1.154-1.312,1.786-1.955c5.021-5.066,11.469-8.357,18.125-10.288c6.687-1.934,13.66-2.554,20.523-2.215
		c3.438,0.156,6.853,0.58,10.221,1.206l0.632,0.116l0.654,0.133c0.419,0.095,0.795,0.159,1.25,0.28
		c0.893,0.215,1.742,0.454,2.592,0.727c1.696,0.548,3.37,1.24,4.97,2.116c3.201,1.726,6.09,4.316,8.011,7.512
		c1.953,3.184,2.935,6.804,3.288,10.344c0.36,3.557,0.117,7.075-0.41,10.494c-0.531,3.422-1.359,6.757-2.354,10.021
		c-2.004,6.524-4.635,12.778-7.587,18.842c-2.969,6.059-6.243,11.94-9.703,17.697c-3.449,5.764-7.146,11.368-10.953,16.884
		c-3.8,5.522-7.776,10.918-11.897,16.198c-2.057,2.643-4.146,5.259-6.276,7.841c-1.067,1.29-2.145,2.573-3.24,3.84l-1.664,1.888
		c-0.583,0.627-1.09,1.229-1.809,1.844l-0.042,0.036l-0.061,0.018L145.44,137.621z M145.44,137.621l9.229-3.466l-0.102,0.053
		c0.529-0.499,1.088-1.191,1.609-1.814l1.563-1.947c1.029-1.309,2.042-2.635,3.044-3.967c2.001-2.667,3.96-5.367,5.884-8.091
		c3.838-5.454,7.562-10.985,11.179-16.578c3.61-5.599,7.046-11.303,10.346-17.071c3.286-5.777,6.376-11.66,9.145-17.671
		c2.768-6.006,5.27-12.135,7.09-18.42c1.801-6.258,2.987-12.771,2.377-18.993c-0.325-3.09-1.178-6.071-2.745-8.592
		c-1.545-2.531-3.806-4.561-6.48-5.992c-1.334-0.722-2.764-1.31-4.246-1.78c-0.743-0.234-1.503-0.442-2.236-0.617
		c-0.35-0.096-0.798-0.174-1.195-0.262l-0.572-0.114l-0.602-0.106c-3.204-0.565-6.431-0.994-9.669-1.155
		c-6.468-0.352-12.991,0.209-19.161,1.961c-6.145,1.755-11.975,4.738-16.472,9.119c-4.578,4.246-6.744,10.387-7.765,16.764
		c-1.003,6.393-1.052,13.016-0.669,19.604c0.378,6.6,1.212,13.195,2.176,19.777c0.973,6.583,2.179,13.142,3.396,19.705
		c1.205,6.567,2.492,13.128,3.641,19.723c0.563,3.299,1.108,6.604,1.476,9.938c0.174,1.667,0.31,3.341,0.334,5.021
		C146.018,134.315,145.988,136.031,145.44,137.621z"/>
</g>
<ellipse transform="matrix(-0.2699 -0.9629 0.9629 -0.2699 4.0212 360.9187)" fill="#FFBF0F" stroke="#000000" stroke-width="4.7951" stroke-miterlimit="10" cx="138.843" cy="178.935" rx="59.46" ry="107.683"/>
<g>
	<circle fill="#FFBF0F" cx="266.308" cy="118.825" r="57.29"/>
	<g>
		<path d="M323.598,118.825c0,0-0.008,0.353-0.021,1.032c-0.028,0.681,0.001,1.692-0.12,3.007c-0.16,2.627-0.571,6.501-1.875,11.257
			c-1.296,4.743-3.481,10.393-7.19,16.194c-3.692,5.792-8.988,11.677-15.962,16.583c-3.496,2.429-7.416,4.581-11.696,6.299
			c-4.276,1.727-8.938,2.931-13.815,3.599c-1.218,0.181-2.457,0.26-3.7,0.383c-1.252,0.036-2.49,0.154-3.781,0.125
			c-0.62-0.005-1.242-0.009-1.866-0.012c-0.628-0.011-1.282-0.063-1.928-0.096c-1.304-0.046-2.577-0.216-3.871-0.35
			c-2.571-0.354-5.17-0.807-7.731-1.521c-1.294-0.311-2.557-0.756-3.841-1.152c-1.256-0.475-2.545-0.893-3.779-1.453
			c-5.009-2.095-9.804-4.959-14.18-8.477c-4.361-3.537-8.239-7.783-11.486-12.524c-1.629-2.37-3.052-4.892-4.341-7.487
			c-1.267-2.61-2.285-5.343-3.165-8.122c-0.868-2.786-1.479-5.65-1.944-8.538c-0.194-1.45-0.397-2.9-0.484-4.362
			c-0.061-0.729-0.124-1.459-0.131-2.19l-0.062-2.256c0.029-11.587,3.577-23.392,10.119-32.841
			c3.246-4.745,7.131-8.983,11.485-12.531c4.378-3.518,9.173-6.384,14.185-8.478c1.235-0.562,2.524-0.979,3.78-1.453
			c1.284-0.396,2.547-0.842,3.842-1.151c2.562-0.715,5.162-1.167,7.733-1.521c1.293-0.133,2.574-0.303,3.857-0.348
			c1.28-0.097,2.556-0.11,3.822-0.107h0.976l0.926,0.042c0.615,0.028,1.229,0.057,1.841,0.083c1.248,0.122,2.512,0.203,3.729,0.383
			c4.878,0.67,9.54,1.874,13.817,3.603c4.281,1.719,8.201,3.872,11.697,6.301c6.975,4.907,12.266,10.796,15.959,16.588
			c1.859,2.896,3.33,5.768,4.495,8.499c1.155,2.735,2.082,5.31,2.693,7.697c1.305,4.756,1.716,8.63,1.876,11.257
			c0.12,1.313,0.091,2.327,0.119,3.007C323.59,118.474,323.598,118.825,323.598,118.825z M323.598,118.825
			c0,0-0.011-0.352-0.03-1.032c-0.032-0.68-0.013-1.692-0.144-3.005c-0.182-2.624-0.624-6.491-1.964-11.226
			c-1.324-4.721-3.54-10.355-7.396-16.014c-3.812-5.646-9.153-11.417-16.226-15.916c-3.524-2.246-7.438-4.194-11.663-5.699
			c-4.223-1.515-8.779-2.496-13.499-2.954c-1.181-0.127-2.354-0.152-3.545-0.226c-0.612-0.003-1.228-0.007-1.843-0.01l-0.927-0.005
			l-0.88,0.038c-1.214,0.045-2.433,0.105-3.651,0.248c-1.226,0.09-2.44,0.303-3.666,0.478c-2.438,0.436-4.889,0.961-7.289,1.736
			c-1.214,0.341-2.393,0.812-3.589,1.233c-1.169,0.498-2.369,0.936-3.514,1.513c-4.641,2.159-9.025,5.028-12.977,8.469
			c-1.983,1.713-3.84,3.587-5.595,5.562c-1.748,1.983-3.325,4.127-4.791,6.348c-2.876,4.48-5.16,9.378-6.707,14.523
			c-0.78,2.571-1.317,5.215-1.728,7.876c-0.384,2.707-0.526,5.223-0.565,8.12c0.025,2.575,0.179,5.359,0.562,8
			c0.409,2.661,0.947,5.305,1.728,7.878c1.553,5.144,3.821,10.048,6.701,14.527c5.804,8.938,14.092,16.056,23.366,20.388
			c1.145,0.576,2.344,1.016,3.513,1.513c1.198,0.422,2.376,0.893,3.592,1.232c2.4,0.775,4.852,1.302,7.29,1.735
			c1.225,0.175,2.447,0.389,3.651,0.478c0.608,0.054,1.198,0.13,1.816,0.164c0.624,0.028,1.245,0.057,1.864,0.084
			c1.188,0.077,2.414,0.011,3.608,0.022c1.197-0.071,2.395-0.099,3.573-0.226c4.72-0.459,9.277-1.441,13.501-2.956
			c4.226-1.506,8.14-3.455,11.664-5.702c7.071-4.5,12.411-10.274,16.224-15.92c3.855-5.659,6.068-11.295,7.396-16.016
			c1.34-4.734,1.782-8.602,1.963-11.226c0.131-1.312,0.11-2.325,0.144-3.005C323.587,119.177,323.598,118.825,323.598,118.825z"/>
	</g>
</g>
<path d="M55.363,157.09c0,0-7.31,58.529,30.874,86.057c17.457,1.13,22.849,0.021,25.728-0.105
	c-19.439-22.559-41.736-58.042-31.679-103.617C73.488,143.614,55.363,157.09,55.363,157.09z"/>
<path d="M97.751,128.628c-6.187,30.238,4.123,81.785,37.85,111.057c15.913-2.26,22.3-5.127,25.177-5.256
	c-16.801-21.118-44.998-65.974-34.229-113.767C118.652,122.885,107.306,124.855,97.751,128.628z"/>
<path d="M145.424,118.825c-4.389,23.016,5.841,79.121,37.741,106.201c14.14-3.881,21.607-10.617,24.487-10.745
	c-19.306-20.969-38.486-56.135-30.348-99.579C166.572,114.927,156.06,116.267,145.424,118.825z"/>
<g>
	
		<ellipse transform="matrix(-0.1572 -0.9876 0.9876 -0.1572 273.6502 415.3875)" fill="#FFFFFF" cx="314.076" cy="90.924" rx="21.957" ry="17.829"/>
	<path d="M331.672,88.125c0,0,0.06,0.486,0.171,1.396c0.065,0.455,0.127,1.017,0.136,1.684c0.027,0.666,0.072,1.432,0.021,2.288
		c-0.01,1.716-0.294,3.797-0.899,6.119c-0.629,2.312-1.679,4.867-3.439,7.311c-0.854,1.243-1.978,2.365-3.226,3.438
		c-1.308,0.991-2.759,1.961-4.45,2.56c-0.406,0.192-0.848,0.29-1.283,0.415c-0.46,0.107-0.833,0.273-1.38,0.332
		c-0.427,0.064-0.856,0.128-1.29,0.193c-0.429,0.068-0.956,0.044-1.438,0.066c-1.96,0.013-3.901-0.278-5.775-0.997
		c-1.87-0.686-3.685-1.659-5.288-2.933c-1.615-1.254-3.093-2.74-4.306-4.431c-0.652-0.817-1.157-1.731-1.717-2.619
		c-0.248-0.46-0.471-0.934-0.707-1.402c-0.245-0.465-0.459-0.943-0.641-1.437l-0.576-1.468l-0.446-1.514
		c-0.162-0.502-0.281-1.014-0.379-1.529l-0.328-1.629l-0.166-1.458l-0.082-0.729l-0.032-0.812l-0.05-1.633
		c0.019-0.528,0.061-1.052,0.09-1.575c0.021-0.525,0.074-1.048,0.163-1.565c0.078-0.519,0.146-1.039,0.236-1.553
		c0.251-1.02,0.451-2.043,0.816-3.023c1.279-3.955,3.673-7.535,6.834-9.983c1.546-1.265,3.344-2.156,5.156-2.733
		c1.798-0.621,3.725-0.784,5.429-0.725c0.458,0.034,0.911,0.068,1.363,0.103c0.439,0.059,0.86,0.164,1.283,0.243
		c0.854,0.126,1.635,0.476,2.422,0.708c1.521,0.634,2.938,1.352,4.134,2.27c2.434,1.777,4.225,3.881,5.538,5.886
		c1.296,2.019,2.211,3.909,2.753,5.539c0.315,0.799,0.51,1.539,0.689,2.181c0.199,0.636,0.313,1.189,0.394,1.643
		C331.578,87.645,331.672,88.125,331.672,88.125z M331.672,88.125c0,0-0.101-0.479-0.285-1.378c-0.083-0.451-0.205-1.003-0.41-1.637
		c-0.188-0.638-0.381-1.378-0.726-2.164c-0.586-1.605-1.553-3.468-2.942-5.386c-1.393-1.907-3.298-3.854-5.771-5.322
		c-1.212-0.771-2.606-1.32-4.052-1.78c-0.751-0.132-1.485-0.38-2.269-0.406c-0.386-0.03-0.776-0.087-1.161-0.098
		c-0.378,0.011-0.759,0.021-1.142,0.033c-1.645,0.122-3.205,0.432-4.695,1.128c-1.489,0.647-2.887,1.568-4.093,2.738
		c-1.216,1.147-2.298,2.494-3.117,4.022l-0.328,0.56l-0.278,0.591c-0.179,0.397-0.388,0.78-0.546,1.189
		c-0.298,0.828-0.627,1.643-0.837,2.508c-0.275,0.842-0.388,1.733-0.573,2.604l-0.158,1.334c-0.065,0.444-0.1,0.892-0.1,1.343
		l-0.045,1.349l0.052,1.298l0.025,0.654l0.089,0.728l0.177,1.458l0.251,1.25c0.077,0.447,0.175,0.889,0.312,1.32l0.367,1.304
		l0.458,1.27c0.635,1.683,1.435,3.299,2.428,4.767c0.469,0.757,1.03,1.433,1.573,2.125c0.276,0.34,0.595,0.639,0.889,0.962
		c0.291,0.328,0.604,0.629,0.932,0.908c1.257,1.2,2.703,2.143,4.218,2.856c0.753,0.382,1.543,0.631,2.331,0.893
		c0.395,0.121,0.802,0.176,1.201,0.269c0.2,0.04,0.403,0.091,0.603,0.123l0.581,0.049c0.397,0.021,0.752,0.104,1.191,0.083
		c0.438-0.019,0.871-0.038,1.304-0.056c0.319,0.015,0.768-0.11,1.145-0.157c0.394-0.068,0.793-0.107,1.165-0.243
		c1.548-0.366,2.94-1.097,4.241-1.882c1.229-0.887,2.386-1.842,3.299-2.952c1.896-2.165,3.102-4.607,3.832-6.854
		c0.727-2.255,1.064-4.326,1.123-6.034c0.084-0.854,0.037-1.617,0.02-2.282c-0.003-0.666-0.059-1.229-0.118-1.684
		C331.727,88.612,331.672,88.125,331.672,88.125z"/>
</g>
<ellipse transform="matrix(-0.0168 -0.9999 0.9999 -0.0168 235.2218 415.8925)" cx="322.089" cy="92.297" rx="8.158" ry="5.296"/>
<g>
	<path fill="#FFFFFF" d="M165.493,134.171c-11.163-14.586-17.498-74.977-53.53-97.306c-16.086-9.968-42.04-10.044-69.068,5.239
		c-68.091,38.5,103.575,90.147,109.33,92.066C157.738,134.171,165.493,134.171,165.493,134.171z"/>
	<path d="M165.493,134.171c-2.311-2.986-3.937-6.467-5.423-9.929c-1.47-3.485-2.771-7.034-4.059-10.58
		c-2.57-7.095-5.005-14.222-7.736-21.218c-2.729-6.993-5.642-13.904-9.099-20.513c-1.72-3.307-3.558-6.543-5.554-9.667
		c-1.962-3.146-4.141-6.142-6.458-8.999c-2.295-2.885-4.88-5.497-7.559-7.976c-2.723-2.434-5.655-4.594-8.715-6.536l-2.388-1.316
		c-0.838-0.504-1.617-0.769-2.417-1.141c-0.792-0.354-1.579-0.716-2.449-0.984c-0.85-0.287-1.69-0.602-2.546-0.87
		c-3.459-0.986-7.021-1.639-10.629-1.943c-3.612-0.24-7.252-0.266-10.877,0.107c-0.905,0.093-1.815,0.133-2.717,0.269l-2.705,0.414
		l-1.354,0.206l-1.34,0.29l-2.68,0.577c-7.126,1.669-14.009,4.39-20.56,7.732c-6.426,3.324-13.042,7.225-16.635,12.849
		c-0.414,0.707-0.854,1.403-1.129,2.152c-0.371,0.723-0.526,1.493-0.76,2.248c-0.29,1.535-0.399,3.105-0.124,4.688
		c0.524,3.161,2.153,6.264,4.262,9.07c4.319,5.612,10.122,10.326,16.167,14.555c6.1,4.208,12.559,7.968,19.156,11.485
		c6.589,3.539,13.341,6.81,20.174,9.913c6.839,3.091,13.736,6.077,20.703,8.906c13.938,5.656,28.045,10.901,42.311,15.81
		l-0.134-0.021L165.493,134.171z M165.493,134.171l-13.27,0.425l-0.052,0.002l-0.083-0.023c-7.239-2.061-14.486-4.216-21.661-6.552
		c-7.188-2.311-14.334-4.755-21.423-7.371c-7.089-2.612-14.153-5.319-21.112-8.294c-6.968-2.955-13.871-6.087-20.65-9.511
		c-6.78-3.423-13.411-7.189-19.792-11.437c-3.179-2.145-6.285-4.426-9.246-6.939c-2.957-2.516-5.78-5.265-8.22-8.453
		c-0.594-0.812-1.18-1.637-1.73-2.489c-0.511-0.891-1.081-1.733-1.502-2.694c-0.961-1.833-1.604-3.896-2-6.018
		c-0.38-2.145-0.272-4.388,0.148-6.543c0.295-1.054,0.548-2.133,1.021-3.106c0.386-1.023,0.937-1.934,1.477-2.853
		c0.54-0.918,1.214-1.71,1.825-2.564c0.693-0.755,1.362-1.55,2.086-2.266c0.747-0.678,1.469-1.403,2.244-2.038
		c0.786-0.617,1.554-1.253,2.36-1.851l2.492-1.713c0.816-0.521,1.617-0.981,2.429-1.472l0.605-0.363l0.152-0.09l0.219-0.12
		l0.319-0.169l1.278-0.676l2.556-1.351c6.881-3.47,14.137-6.297,21.705-8.033c7.553-1.731,15.401-2.515,23.207-1.769
		c3.898,0.388,7.766,1.153,11.539,2.295c0.937,0.308,1.858,0.664,2.788,0.996c0.928,0.306,1.852,0.737,2.771,1.168
		c0.902,0.433,1.896,0.833,2.668,1.317l2.537,1.455c3.28,2.134,6.385,4.519,9.21,7.192c2.785,2.704,5.441,5.538,7.77,8.612
		c2.353,3.053,4.535,6.225,6.48,9.522c1.013,1.627,1.912,3.313,2.835,4.987c0.861,1.703,1.769,3.385,2.562,5.116
		c3.284,6.878,6.027,13.964,8.479,21.123c2.42,7.171,4.603,14.396,6.771,21.609c1.091,3.604,2.209,7.197,3.464,10.74
		C162.007,127.515,163.378,131.035,165.493,134.171z"/>
</g>
<path fill="none" stroke="#000000" stroke-width="2.8771" stroke-miterlimit="10" d="M303.367,53.38
	c9.207-13.472,22.484-14.341,29.661-9.283"/>
<ellipse transform="matrix(0.3655 -0.9308 0.9308 0.3655 170.2697 347.0581)" cx="339.703" cy="48.635" rx="7.791" ry="7.508"/>
<path fill="none" stroke="#000000" stroke-width="2.8771" stroke-miterlimit="10" d="M264.339,55.032
	c1.918-34.776,25.894-47.244,42.196-43.408"/>
<circle cx="319.708" cy="14.501" r="12.558"/>
<g>
	
		<ellipse transform="matrix(-0.1572 -0.9876 0.9876 -0.1572 253.3596 373.4796)" fill="#FFFFFF" cx="286.048" cy="78.628" rx="34.295" ry="27.847"/>
	<path d="M313.537,74.264c0,0,0.092,0.759,0.265,2.182c0.043,0.356,0.091,0.753,0.144,1.19c0.036,0.438,0.041,0.92,0.064,1.438
		c0.042,1.039,0.112,2.233,0.025,3.571c-0.032,0.668-0.032,1.376-0.097,2.113c-0.089,0.734-0.182,1.504-0.277,2.307
		c-0.067,0.808-0.279,1.624-0.435,2.483c-0.084,0.43-0.17,0.866-0.257,1.311c-0.104,0.439-0.245,0.879-0.37,1.331
		c-0.983,3.607-2.698,7.559-5.463,11.325c-1.344,1.916-3.105,3.635-5.051,5.274c-0.521,0.371-1.044,0.744-1.572,1.121
		c-0.267,0.186-0.525,0.387-0.805,0.56l-0.865,0.478c-0.585,0.312-1.16,0.661-1.771,0.947c-0.629,0.252-1.262,0.506-1.897,0.762
		c-0.629,0.289-1.309,0.43-1.982,0.614l-1.019,0.268l-0.514,0.134l-0.575,0.083c-0.669,0.092-1.341,0.184-2.019,0.275
		c-0.672,0.097-1.463,0.048-2.2,0.074l-1.135,0.007c-0.371-0.021-0.731-0.075-1.102-0.111c-0.732-0.095-1.484-0.136-2.218-0.283
		c-0.73-0.171-1.464-0.341-2.201-0.513c-0.743-0.16-1.435-0.482-2.16-0.723c-2.851-1.075-5.613-2.591-8.049-4.565
		c-2.463-1.938-4.683-4.252-6.536-6.845c-0.998-1.253-1.768-2.657-2.623-4.02c-0.378-0.707-0.717-1.436-1.077-2.155l-0.531-1.084
		l-0.442-1.123l-0.878-2.254l-0.683-2.322L256.9,86.95l-0.245-1.185l-0.483-2.373l-0.274-2.376l-0.13-1.14l-0.05-1.236l-0.077-2.484
		c0.026-0.81,0.087-1.613,0.13-2.418l0.073-1.205l0.169-1.196c0.118-0.796,0.217-1.593,0.354-2.383
		c0.382-1.562,0.684-3.135,1.241-4.637c0.451-1.531,1.116-2.983,1.748-4.432c0.327-0.721,0.741-1.4,1.107-2.098l0.566-1.034
		l0.663-0.977c1.704-2.634,3.861-4.932,6.239-6.84c0.615-0.454,1.174-0.974,1.828-1.36c0.648-0.392,1.294-0.782,1.936-1.169
		c0.651-0.369,1.354-0.64,2.021-0.958c0.339-0.148,0.669-0.312,1.012-0.447l1.051-0.334c2.748-0.983,5.685-1.267,8.334-1.211
		c0.7,0.045,1.396,0.09,2.088,0.134c0.677,0.083,1.326,0.237,1.98,0.353l0.972,0.185c0.318,0.078,0.628,0.19,0.939,0.283
		c0.618,0.194,1.232,0.388,1.842,0.579c2.358,0.956,4.567,2.044,6.44,3.449c3.798,2.724,6.648,5.951,8.707,9.074
		c0.258,0.391,0.527,0.764,0.765,1.149c0.221,0.396,0.438,0.784,0.65,1.166c0.414,0.771,0.865,1.481,1.183,2.228
		c0.34,0.732,0.667,1.436,0.979,2.106c0.29,0.681,0.509,1.354,0.747,1.979c0.497,1.245,0.801,2.401,1.084,3.401
		c0.139,0.501,0.282,0.96,0.386,1.39c0.085,0.432,0.163,0.825,0.231,1.176C313.388,73.514,313.537,74.264,313.537,74.264z
		 M313.537,74.264c0,0-0.153-0.749-0.442-2.153c-0.072-0.351-0.152-0.743-0.241-1.174c-0.104-0.427-0.254-0.885-0.396-1.384
		c-0.293-0.997-0.595-2.154-1.127-3.384c-0.905-2.512-2.403-5.429-4.568-8.434c-2.172-2.985-5.094-6.085-8.958-8.43
		c-1.891-1.233-4.073-2.123-6.344-2.876c-0.584-0.134-1.173-0.268-1.768-0.402c-0.297-0.063-0.591-0.146-0.892-0.194l-0.915-0.097
		c-0.609-0.056-1.226-0.154-1.838-0.179c-0.604,0.008-1.213,0.016-1.825,0.023c-2.58,0.156-5.089,0.611-7.476,1.686l-0.902,0.363
		c-0.293,0.144-0.573,0.314-0.86,0.471c-0.564,0.331-1.161,0.607-1.706,0.979c-0.533,0.385-1.07,0.772-1.61,1.161
		c-0.549,0.371-1.009,0.872-1.521,1.301c-1.968,1.812-3.724,3.939-5.063,6.362l-0.535,0.887l-0.458,0.938
		c-0.294,0.631-0.636,1.239-0.896,1.889c-0.498,1.312-1.034,2.61-1.37,3.991c-0.445,1.344-0.631,2.765-0.932,4.154
		c-0.104,0.705-0.173,1.417-0.264,2.126l-0.129,1.064l-0.037,1.076l-0.078,2.149l0.08,2.092l0.041,1.052l0.138,1.138l0.26,2.18
		c0.973,5.679,2.966,11.225,6.152,15.91c0.749,1.208,1.663,2.276,2.544,3.369c0.449,0.537,0.964,1.01,1.439,1.519l0.727,0.75
		l0.78,0.681c2.028,1.888,4.359,3.367,6.794,4.478c0.619,0.25,1.213,0.579,1.85,0.767c0.635,0.202,1.266,0.403,1.894,0.603
		c0.635,0.184,1.287,0.263,1.927,0.401c0.321,0.059,0.645,0.135,0.962,0.18l0.94,0.065c0.64,0.024,1.226,0.143,1.911,0.101
		c0.681-0.039,1.357-0.076,2.031-0.113l0.429-0.024l0.469-0.086l0.937-0.169c0.622-0.118,1.255-0.191,1.844-0.413
		c0.601-0.187,1.195-0.373,1.787-0.557c0.581-0.219,1.133-0.5,1.696-0.743l0.839-0.377c0.271-0.141,0.525-0.311,0.788-0.462
		c0.521-0.313,1.04-0.625,1.554-0.934c1.926-1.422,3.725-2.945,5.139-4.706c2.944-3.43,4.757-7.286,5.896-10.797
		c1.126-3.528,1.644-6.767,1.725-9.436c0.125-1.334,0.052-2.527,0.021-3.565c-0.02-0.519-0.021-1-0.054-1.438
		c-0.049-0.438-0.095-0.835-0.135-1.191C313.623,75.024,313.537,74.264,313.537,74.264z"/>
</g>
<ellipse transform="matrix(-0.1572 -0.9876 0.9876 -0.1572 262.5527 385.2823)" cx="295.679" cy="80.608" rx="14.587" ry="9.47"/>
<g>
	<path d="M240.455,114.702c0,0,0.504,1.243,1.386,3.418c0.871,2.171,2.15,5.25,3.847,8.829c0.873,1.778,1.837,3.688,2.941,5.652
		c1.114,1.958,2.352,3.979,3.73,5.99c1.374,2.016,2.917,4.004,4.581,5.926c1.656,1.929,3.458,3.783,5.417,5.451
		c1.9,1.734,3.965,3.279,6.084,4.664c1.074,0.671,2.129,1.354,3.224,1.946c1.066,0.643,2.178,1.17,3.27,1.697
		c2.192,1.03,4.38,1.896,6.497,2.627c2.133,0.674,4.173,1.282,6.096,1.717c0.953,0.26,1.887,0.416,2.771,0.587
		c0.886,0.167,1.724,0.367,2.521,0.481c1.599,0.201,2.994,0.473,4.154,0.591c2.318,0.236,3.66,0.416,3.66,0.416
		s-1.329,0.155-3.684,0.347c-1.178,0.091-2.608,0.09-4.261,0.108c-0.824,0.005-1.698-0.069-2.628-0.105
		c-0.928-0.041-1.901-0.109-2.912-0.255c-1.01-0.143-2.077-0.219-3.16-0.434c-1.082-0.216-2.211-0.417-3.354-0.702
		c-1.132-0.319-2.318-0.586-3.496-0.975c-0.59-0.194-1.184-0.399-1.779-0.615c-0.603-0.201-1.199-0.433-1.79-0.698
		c-1.19-0.502-2.406-1.009-3.586-1.636c-0.592-0.309-1.208-0.581-1.789-0.924c-0.577-0.349-1.159-0.698-1.742-1.05
		c-2.306-1.451-4.562-3.076-6.634-4.915c-2.076-1.831-3.977-3.852-5.709-5.938c-1.765-2.066-3.225-4.308-4.584-6.484
		c-1.374-2.173-2.458-4.408-3.444-6.528c-0.999-2.118-1.755-4.196-2.428-6.113c-1.316-3.846-2.077-7.135-2.543-9.44
		C240.649,116.032,240.455,114.702,240.455,114.702z"/>
</g>
<g>
	<path fill="#FFFFFF" d="M89.082,89.546c8.534,1.669,45.383,23.553,45.383,23.553"/>
	<path d="M89.082,89.546c0,0,0.203,0.015,0.584,0.04c0.377,0.046,0.94,0.05,1.639,0.176c0.696,0.146,1.566,0.312,2.553,0.569
		c0.951,0.275,2.034,0.581,3.197,0.963c1.146,0.406,2.388,0.853,3.684,1.362c1.282,0.529,2.642,1.086,4.017,1.713
		c1.371,0.632,2.792,1.285,4.202,2.004c1.415,0.71,2.843,1.453,4.254,2.219c2.818,1.544,5.589,3.172,8.131,4.786
		c2.547,1.608,4.867,3.204,6.818,4.634c1.948,1.434,3.531,2.693,4.619,3.608c1.091,0.911,1.686,1.478,1.686,1.478
		s-0.782-0.251-2.107-0.758c-1.329-0.5-3.199-1.26-5.412-2.224c-4.422-1.932-10.144-4.788-15.74-7.843
		c-1.393-0.775-2.785-1.551-4.155-2.314c-1.364-0.774-2.707-1.528-3.992-2.293c-2.581-1.504-4.971-2.929-7.016-4.176
		c-1.028-0.599-1.964-1.17-2.797-1.685c-0.829-0.454-1.552-0.888-2.162-1.245C89.816,89.921,89.082,89.545,89.082,89.546z"/>
</g>
<g>
	<line fill="none" x1="115.24" y1="77.075" x2="140.64" y2="110.291"/>
	<path d="M115.24,77.075c0,0,0.541,0.409,1.422,1.175c0.884,0.764,2.104,1.887,3.508,3.28c2.806,2.789,6.259,6.729,9.436,10.879
		c3.178,4.15,6.077,8.513,8.032,11.953c0.977,1.721,1.739,3.194,2.243,4.248c0.509,1.05,0.76,1.681,0.76,1.681
		s-0.542-0.408-1.423-1.174c-0.885-0.763-2.107-1.884-3.511-3.278c-2.809-2.788-6.259-6.729-9.432-10.883
		c-3.173-4.152-6.07-8.518-8.026-11.957c-0.979-1.72-1.741-3.191-2.246-4.245C115.492,77.705,115.24,77.075,115.24,77.075z"/>
</g>
<path fill="none" stroke="#000000" stroke-width="5.0311" stroke-miterlimit="10" d="M195.812,215.464
	c5.59,6.149,24.039,24.401,37.455,24.221"/>
<text transform="matrix(1 0 0 1 214.5403 316.9246)" font-family="'KomikaTitle-Axis'" font-size="145.0636">01</text>
<g id="Calque_2">
</g>
</svg>
