<?xml version="1.0" encoding="utf-8"?>
<!-- Generator: Adobe Illustrator 16.0.0, SVG Export Plug-In . SVG Version: 6.00 Build 0)  -->
<!DOCTYPE svg PUBLIC "-//W3C//DTD SVG 1.1//EN" "http://www.w3.org/Graphics/SVG/1.1/DTD/svg11.dtd">
<svg version="1.1" id="Calque_1" xmlns="http://www.w3.org/2000/svg" xmlns:xlink="http://www.w3.org/1999/xlink" x="0px" y="0px"
	 width="419.527px" height="334.488px" viewBox="0 0 419.527 334.488" enable-background="new 0 0 419.527 334.488"
	 xml:space="preserve">
<g>
	<path fill="#FFFFFF" d="M152.689,140.326c4.504-13.141-25.949-92.258-5.468-116.921c9.144-11.012,27.737-17.295,50.792-12.823
		c58.076,11.267-32.143,123.801-35.808,126.559C158.25,138.465,152.689,140.326,152.689,140.326z"/>
	<g>
		<path d="M152.689,140.326c0.438-1.654,0.341-3.37,0.214-5.051c-0.147-1.688-0.406-3.362-0.704-5.031
			c-0.587-3.338-1.313-6.655-2.083-9.964l-4.758-19.856c-1.569-6.634-3.018-13.308-4.295-20.032
			c-1.288-6.726-2.292-13.523-2.894-20.404c-0.294-3.441-0.486-6.904-0.482-10.392c-0.003-3.487,0.169-7,0.692-10.519
			c0.506-3.513,1.326-7.048,2.731-10.467c0.689-1.71,1.558-3.383,2.611-4.964c0.253-0.401,0.524-0.791,0.822-1.168l0.436-0.572
			c0.089-0.111,0.108-0.154,0.254-0.321l0.207-0.242c0.51-0.617,1.189-1.362,1.85-2.034c5.206-5.281,11.883-8.688,18.754-10.687
			c6.903-2,14.085-2.642,21.147-2.299c3.536,0.158,7.047,0.589,10.507,1.237l0.649,0.12l0.682,0.139
			c0.43,0.098,0.799,0.161,1.284,0.289c0.936,0.226,1.817,0.475,2.701,0.759c1.767,0.572,3.514,1.296,5.189,2.216
			c3.354,1.809,6.407,4.547,8.431,7.918c2.058,3.359,3.078,7.16,3.445,10.847c0.374,3.704,0.113,7.344-0.438,10.866
			c-0.558,3.527-1.417,6.953-2.444,10.299c-2.074,6.687-4.776,13.08-7.816,19.267c-3.059,6.18-6.427,12.17-9.981,18.031
			c-3.54,5.871-7.35,11.561-11.264,17.166c-3.909,5.608-7.993,11.087-12.225,16.447c-2.116,2.68-4.246,5.348-6.455,7.951
			c-1.104,1.304-2.216,2.6-3.349,3.878l-1.72,1.906c-0.607,0.638-1.116,1.234-1.885,1.877l-0.062,0.052l-0.079,0.022
			L152.689,140.326z M152.689,140.326l9.359-3.654l-0.14,0.073c0.502-0.489,1.079-1.213,1.596-1.85l1.567-1.999
			c1.033-1.344,2.047-2.706,3.052-4.074c2-2.743,3.995-5.491,5.934-8.277c3.876-5.572,7.636-11.224,11.281-16.938
			c3.643-5.717,7.097-11.544,10.432-17.422c3.315-5.889,6.431-11.88,9.215-17.996c2.787-6.107,5.312-12.328,7.134-18.689
			c1.811-6.329,2.964-12.899,2.354-19.077c-0.327-3.067-1.174-5.991-2.7-8.441c-1.508-2.461-3.7-4.429-6.332-5.835
			c-1.312-0.708-2.726-1.289-4.197-1.754c-0.738-0.233-1.496-0.439-2.214-0.609c-0.338-0.093-0.808-0.175-1.208-0.263l-0.569-0.112
			l-0.605-0.106c-3.234-0.565-6.489-1.004-9.752-1.168c-6.519-0.359-13.082,0.201-19.275,1.954
			c-6.168,1.757-11.999,4.74-16.487,9.082c-0.541,0.534-1.025,1.029-1.615,1.711l-0.211,0.239c0.002-0.01-0.099,0.124-0.143,0.178
			l-0.345,0.438c-0.238,0.285-0.458,0.587-0.664,0.904c-0.858,1.232-1.599,2.581-2.208,4.015c-1.242,2.855-2.052,5.985-2.574,9.192
			c-1.022,6.432-1.115,13.142-0.751,19.829c0.354,6.698,1.18,13.404,2.117,20.105c0.951,6.702,2.139,13.386,3.341,20.077
			c1.179,6.697,2.49,13.381,3.574,20.119c0.537,3.37,1.054,6.747,1.39,10.151c0.159,1.703,0.28,3.413,0.287,5.126
			C153.315,136.959,153.265,138.713,152.689,140.326z"/>
	</g>
</g>
<ellipse transform="matrix(-0.27 -0.9629 0.9629 -0.27 9.7764 372.2086)" fill="#FFBF0F" stroke="#000000" stroke-width="5.1247" stroke-miterlimit="10" cx="145.987" cy="182.398" rx="60.57" ry="109.689"/>
<g>
	<circle fill="#FFBF0F" cx="275.806" cy="121.181" r="58.355"/>
	<g>
		<path d="M334.161,121.181c0,0-0.008,0.357-0.021,1.052c-0.028,0.692,0.002,1.724-0.12,3.062
			c-0.163,2.677-0.581,6.622-1.908,11.468c-0.622,2.433-1.566,5.055-2.743,7.841c-1.188,2.782-2.684,5.71-4.576,8.659
			c-3.759,5.903-9.15,11.9-16.252,16.907c-3.56,2.479-7.553,4.677-11.915,6.432c-4.357,1.765-9.108,2.996-14.08,3.682
			c-1.241,0.186-2.505,0.266-3.771,0.394c-1.277,0.038-2.538,0.159-3.856,0.13c-0.632-0.002-1.266-0.005-1.899-0.009
			c-0.642-0.011-1.311-0.064-1.968-0.096c-1.329-0.046-2.628-0.218-3.947-0.353c-2.623-0.357-5.273-0.817-7.888-1.544
			c-1.32-0.315-2.607-0.768-3.918-1.171c-1.28-0.482-2.597-0.908-3.856-1.479c-5.11-2.131-10.004-5.05-14.472-8.634
			c-4.454-3.605-8.413-7.937-11.729-12.773c-6.692-9.658-10.301-21.62-10.346-33.566c0.035-11.949,3.652-23.908,10.336-33.573
			c3.314-4.841,7.281-9.165,11.728-12.78c4.471-3.585,9.365-6.503,14.479-8.635c1.261-0.571,2.577-0.997,3.857-1.479
			c1.312-0.403,2.599-0.855,3.919-1.172c2.614-0.727,5.267-1.186,7.89-1.543c1.318-0.135,2.625-0.307,3.935-0.351
			c1.307-0.097,2.605-0.11,3.896-0.105h0.997l0.941,0.043c0.627,0.029,1.252,0.059,1.875,0.086c1.272,0.125,2.562,0.209,3.802,0.395
			c4.974,0.687,9.725,1.919,14.083,3.684c4.362,1.756,8.355,3.955,11.916,6.435c7.102,5.009,12.489,11.01,16.249,16.913
			c1.894,2.949,3.39,5.877,4.575,8.659c1.177,2.786,2.12,5.409,2.742,7.842c1.327,4.845,1.745,8.792,1.908,11.467
			c0.122,1.338,0.092,2.37,0.12,3.062C334.153,120.823,334.161,121.181,334.161,121.181z M334.161,121.181
			c0,0-0.011-0.358-0.031-1.052c-0.033-0.692-0.013-1.725-0.146-3.061c-0.187-2.673-0.637-6.611-2.002-11.434
			c-1.352-4.808-3.608-10.548-7.539-16.308c-3.885-5.748-9.328-11.622-16.534-16.195c-3.59-2.283-7.576-4.263-11.879-5.791
			c-4.3-1.535-8.939-2.53-13.742-2.991c-1.202-0.128-2.393-0.152-3.604-0.226c-0.624-0.003-1.25-0.005-1.878-0.008l-0.943-0.004
			l-0.895,0.04c-1.234,0.047-2.476,0.111-3.716,0.256c-1.246,0.093-2.482,0.312-3.729,0.49c-2.48,0.445-4.973,0.982-7.413,1.773
			c-1.234,0.349-2.434,0.829-3.649,1.259c-1.188,0.508-2.407,0.954-3.57,1.543c-4.719,2.2-9.176,5.123-13.188,8.625
			c-2.014,1.744-3.901,3.649-5.684,5.66c-1.776,2.019-3.378,4.198-4.866,6.456c-2.92,4.558-5.241,9.536-6.813,14.767
			c-0.792,2.615-1.338,5.302-1.753,8.006c-0.169,1.36-0.35,2.724-0.416,4.049c-0.132,1.261-0.104,2.86-0.155,4.145
			c0.023,2.74,0.18,5.481,0.566,8.192c0.416,2.705,0.961,5.393,1.754,8.007c1.578,5.229,3.883,10.216,6.809,14.771
			c5.894,9.088,14.312,16.334,23.741,20.75c1.163,0.589,2.384,1.036,3.571,1.543c1.219,0.429,2.416,0.91,3.651,1.258
			c2.44,0.791,4.935,1.329,7.415,1.773c1.245,0.179,2.49,0.396,3.715,0.487c0.618,0.056,1.218,0.134,1.848,0.169
			c0.636,0.029,1.269,0.059,1.898,0.088c1.207,0.079,2.456,0.012,3.672,0.026c1.219-0.072,2.437-0.099,3.636-0.227
			c4.805-0.462,9.444-1.458,13.745-2.995c4.303-1.528,8.289-3.508,11.88-5.793c7.206-4.574,12.646-10.453,16.531-16.2
			c3.932-5.76,6.186-11.501,7.537-16.308c1.365-4.823,1.815-8.763,2.002-11.435c0.134-1.336,0.112-2.369,0.146-3.062
			C334.15,121.539,334.161,121.181,334.161,121.181z"/>
	</g>
</g>
<path d="M60.937,160.158c0,0-7.445,59.622,31.447,87.66c17.782,1.151,23.273,0.021,26.205-0.109
	c-19.8-22.976-42.512-59.124-32.268-105.546C79.4,146.43,60.937,160.158,60.937,160.158z"/>
<path d="M104.113,131.166c-6.301,30.8,4.2,83.31,38.555,113.125c16.208-2.301,22.713-5.224,25.646-5.353
	c-17.114-21.512-45.835-67.203-34.867-115.885C125.404,125.316,113.847,127.322,104.113,131.166z"/>
<path d="M152.673,121.181c-4.471,23.444,5.949,80.592,38.443,108.18c14.402-3.953,22.01-10.815,24.943-10.944
	c-19.665-21.363-39.203-57.183-30.913-101.435C174.215,117.21,163.507,118.575,152.673,121.181z"/>
<g>
	
		<ellipse transform="matrix(-0.1572 -0.9876 0.9876 -0.1572 283.8574 427.7693)" fill="#FFFFFF" cx="324.463" cy="92.76" rx="22.366" ry="18.159"/>
	<g>
		<path d="M342.385,89.91c0,0,0.062,0.495,0.177,1.422c0.066,0.463,0.132,1.035,0.142,1.715c0.03,0.679,0.075,1.457,0.03,2.331
			c0.001,1.75-0.277,3.872-0.869,6.25c-0.619,2.369-1.657,4.995-3.424,7.542c-0.856,1.294-1.995,2.472-3.271,3.604
			c-1.333,1.052-2.822,2.089-4.574,2.748c-0.424,0.208-0.88,0.318-1.333,0.458l-0.688,0.203l-0.348,0.101l-0.417,0.071
			c-0.436,0.074-0.872,0.148-1.312,0.225c-0.435,0.079-1.008,0.067-1.518,0.099c-2.079,0.047-4.115-0.219-6.104-0.946
			c-3.979-1.359-7.585-4.103-10.183-7.606c-0.692-0.854-1.23-1.805-1.824-2.732c-0.264-0.481-0.5-0.978-0.75-1.468l-0.369-0.739
			l-0.311-0.765l-0.611-1.537l-0.471-1.584c-0.17-0.525-0.297-1.062-0.399-1.603l-0.168-0.809l-0.083-0.405l-0.042-0.202
			l-0.021-0.101l-0.012-0.052c-0.011-0.069,0.011,0.085-0.025-0.17l-0.167-1.485l-0.082-0.743l-0.035-0.859l-0.05-1.731
			c0.019-0.557,0.065-1.104,0.101-1.653l0.059-0.823l0.122-0.816c0.085-0.544,0.156-1.089,0.256-1.628
			c0.271-1.068,0.492-2.141,0.884-3.167c1.376-4.143,3.95-7.873,7.318-10.4c1.645-1.308,3.56-2.21,5.474-2.783
			c1.896-0.616,3.932-0.751,5.681-0.655c3.869,0.254,7.016,1.74,9.494,3.607c2.47,1.874,4.271,4.051,5.593,6.111
			c1.302,2.078,2.224,4.01,2.766,5.673c0.314,0.815,0.513,1.57,0.694,2.225c0.201,0.648,0.318,1.213,0.397,1.674
			C342.29,89.421,342.385,89.91,342.385,89.91z M342.385,89.91c0,0-0.103-0.488-0.294-1.403c-0.086-0.459-0.211-1.021-0.421-1.667
			c-0.192-0.648-0.39-1.403-0.748-2.2c-0.604-1.632-1.6-3.522-3.034-5.455c-1.436-1.923-3.399-3.873-5.928-5.305
			c-1.236-0.755-2.652-1.278-4.108-1.712c-0.757-0.113-1.496-0.346-2.278-0.352c-0.386-0.021-0.778-0.067-1.158-0.068
			c-0.369,0.021-0.741,0.041-1.116,0.062c-1.661,0.162-3.177,0.508-4.631,1.232l-0.546,0.247c-0.177,0.096-0.345,0.21-0.518,0.313
			c-0.34,0.219-0.697,0.401-1.022,0.645c-0.641,0.504-1.29,0.987-1.861,1.585c-1.166,1.153-2.196,2.493-2.969,4.014l-0.31,0.554
			l-0.264,0.586c-0.169,0.394-0.368,0.771-0.517,1.176c-0.276,0.819-0.59,1.622-0.786,2.476c-0.455,1.679-0.699,3.434-0.767,5.2
			l-0.035,1.326l0.054,1.253l0.023,0.633l0.093,0.742l0.183,1.484c-0.03-0.224-0.005-0.039-0.01-0.078l0.01,0.041l0.016,0.083
			l0.032,0.164l0.063,0.328l0.127,0.657c0.074,0.44,0.169,0.876,0.305,1.3l0.356,1.285l0.441,1.253
			c0.613,1.657,1.385,3.255,2.341,4.709c0.453,0.75,0.993,1.421,1.515,2.111c0.268,0.34,0.573,0.637,0.856,0.958
			c0.28,0.327,0.58,0.629,0.896,0.909c1.206,1.207,2.604,2.16,4.072,2.896c0.73,0.391,1.497,0.653,2.265,0.932
			c0.386,0.129,0.782,0.192,1.174,0.295c0.194,0.044,0.396,0.102,0.588,0.137l0.558,0.063c0.39,0.03,0.713,0.127,1.163,0.115
			c0.446-0.011,0.89-0.021,1.33-0.029l0.166-0.004l0.082-0.001l0.041-0.001c0.034-0.002-0.146,0.019-0.052,0.007l0.293-0.042
			l0.588-0.083c0.39-0.058,0.79-0.086,1.161-0.212c0.381-0.103,0.76-0.204,1.136-0.305c0.37-0.122,0.723-0.287,1.085-0.427
			c0.741-0.25,1.374-0.698,2.056-1.046c1.251-0.864,2.435-1.803,3.376-2.905c1.958-2.147,3.218-4.612,3.984-6.887
			c0.764-2.283,1.12-4.39,1.188-6.128c0.094-0.869,0.044-1.646,0.027-2.323c-0.001-0.678-0.057-1.251-0.117-1.715
			C342.439,90.406,342.385,89.91,342.385,89.91z"/>
	</g>
</g>
<ellipse transform="matrix(-0.0168 -0.9999 0.9999 -0.0168 244.0629 428.3217)" cx="332.623" cy="94.163" rx="8.309" ry="5.394"/>
<g>
	<path fill="#FFFFFF" d="M173.115,136.812c-11.371-14.857-17.824-76.371-54.526-99.114c-16.385-10.154-42.819-10.231-70.352,5.335
		c-69.357,39.216,105.501,91.825,111.362,93.779C165.216,136.812,173.115,136.812,173.115,136.812z"/>
	<g>
		<path d="M173.115,136.812c-2.367-3.031-4.042-6.573-5.572-10.096c-1.513-3.546-2.852-7.156-4.178-10.765
			c-2.647-7.218-5.146-14.47-7.95-21.583c-2.8-7.11-5.779-14.138-9.312-20.849c-1.758-3.358-3.637-6.645-5.668-9.814
			c-2-3.193-4.219-6.23-6.577-9.128c-2.335-2.923-4.963-5.569-7.685-8.077c-1.405-1.201-2.795-2.422-4.298-3.486
			c-1.435-1.161-3.021-2.096-4.542-3.122l-2.421-1.332c-0.857-0.516-1.636-0.774-2.443-1.148c-0.798-0.354-1.589-0.719-2.471-0.99
			c-0.859-0.289-1.71-0.605-2.576-0.876c-3.501-0.992-7.104-1.649-10.76-1.954c-3.658-0.238-7.346-0.26-11.02,0.12
			c-0.917,0.096-1.84,0.136-2.754,0.274l-2.742,0.42l-1.371,0.209l-1.358,0.294L74.7,35.495c-7.226,1.695-14.209,4.458-20.857,7.854
			c-6.517,3.372-13.224,7.34-16.803,12.954c-0.413,0.703-0.854,1.397-1.124,2.141c-0.37,0.718-0.521,1.48-0.755,2.227
			c-0.285,1.52-0.396,3.069-0.125,4.64c0.52,3.136,2.146,6.252,4.271,9.083c4.354,5.664,10.234,10.463,16.372,14.764
			c6.192,4.284,12.759,8.113,19.466,11.703c6.696,3.613,13.563,6.955,20.514,10.126c6.957,3.158,13.971,6.22,21.058,9.118
			c7.09,2.892,14.224,5.692,21.396,8.401c7.184,2.69,14.38,5.309,21.646,7.84l-0.155-0.025L173.115,136.812z M173.115,136.812
			l-13.516,0.494l-0.059,0.002l-0.098-0.027c-7.381-2.069-14.775-4.237-22.092-6.596c-7.331-2.329-14.62-4.799-21.85-7.448
			c-7.229-2.646-14.437-5.381-21.535-8.403c-7.106-2.999-14.149-6.179-21.069-9.659c-6.919-3.479-13.688-7.315-20.208-11.644
			c-3.247-2.187-6.424-4.514-9.456-7.083c-3.027-2.57-5.923-5.381-8.429-8.658c-0.611-0.834-1.214-1.681-1.781-2.56
			c-0.527-0.917-1.113-1.785-1.549-2.777c-0.992-1.89-1.66-4.027-2.071-6.229c-0.396-2.225-0.285-4.561,0.154-6.802
			c0.305-1.095,0.568-2.217,1.058-3.227c0.401-1.062,0.971-2.005,1.53-2.957c0.559-0.951,1.254-1.769,1.885-2.65
			c0.714-0.778,1.404-1.599,2.149-2.335c0.768-0.698,1.512-1.444,2.308-2.097c0.807-0.634,1.596-1.287,2.423-1.901l2.563-1.761
			c0.835-0.535,1.646-1.001,2.475-1.501l0.618-0.369l0.154-0.092l0.231-0.127l0.327-0.173l1.306-0.69l2.612-1.379
			c7.034-3.542,14.451-6.432,22.192-8.204c7.726-1.769,15.758-2.568,23.75-1.794c3.992,0.4,7.953,1.188,11.819,2.363
			c0.959,0.316,1.905,0.684,2.857,1.025c0.95,0.312,1.899,0.759,2.848,1.204c0.926,0.444,1.954,0.862,2.736,1.354l2.595,1.492
			c3.358,2.188,6.533,4.633,9.418,7.374c2.844,2.771,5.555,5.674,7.928,8.819c2.399,3.123,4.623,6.366,6.604,9.737
			c1.031,1.664,1.947,3.386,2.885,5.096c0.874,1.74,1.796,3.458,2.601,5.228c3.333,7.026,6.114,14.257,8.591,21.561
			c2.441,7.317,4.646,14.685,6.825,22.04c1.097,3.677,2.223,7.338,3.484,10.951C169.598,130.018,170.976,133.606,173.115,136.812z"
			/>
	</g>
</g>
<path fill="none" stroke="#000000" stroke-width="2.9306" stroke-miterlimit="10" d="M313.553,54.519
	c9.379-13.723,22.902-14.607,30.215-9.456"/>
<ellipse transform="matrix(0.3655 -0.9308 0.9308 0.3655 176.1658 357.838)" cx="350.556" cy="49.702" rx="7.937" ry="7.647"/>
<path fill="none" stroke="#000000" stroke-width="2.9306" stroke-miterlimit="10" d="M273.8,56.201
	c1.954-35.422,26.375-48.122,42.982-44.214"/>
<circle cx="330.199" cy="14.917" r="12.791"/>
<g>
	
		<ellipse transform="matrix(-0.1572 -0.9876 0.9876 -0.1572 263.1861 385.0839)" fill="#FFFFFF" cx="295.912" cy="80.238" rx="34.933" ry="28.364"/>
	<g>
		<path d="M323.912,75.791c0,0,0.095,0.773,0.271,2.223c0.044,0.361,0.093,0.767,0.146,1.212c0.036,0.446,0.042,0.938,0.067,1.466
			c0.043,1.059,0.114,2.274,0.029,3.639c-0.031,0.682-0.028,1.402-0.094,2.153c-0.088,0.75-0.181,1.534-0.276,2.351
			c-0.066,0.823-0.281,1.656-0.438,2.532c-0.086,0.438-0.173,0.882-0.262,1.335c-0.106,0.448-0.249,0.896-0.376,1.356
			c-1.009,3.674-2.692,7.729-5.505,11.595c-1.361,1.967-3.152,3.738-5.137,5.432c-0.529,0.383-1.063,0.771-1.603,1.16
			c-0.273,0.191-0.537,0.401-0.821,0.58l-0.885,0.497c-0.598,0.324-1.188,0.687-1.812,0.985c-0.643,0.264-1.291,0.529-1.941,0.797
			c-0.646,0.302-1.343,0.453-2.034,0.646l-1.047,0.282l-0.527,0.141l-0.601,0.092c-0.682,0.098-1.365,0.196-2.054,0.296
			c-0.685,0.104-1.51,0.062-2.271,0.093l-1.174,0.015c-0.384-0.019-0.756-0.07-1.138-0.105c-0.756-0.092-1.531-0.129-2.288-0.277
			c-0.754-0.169-1.513-0.34-2.273-0.512c-0.769-0.16-1.48-0.489-2.23-0.732c-2.947-1.092-5.806-2.639-8.327-4.659
			c-2.547-1.986-4.87-4.34-6.779-7.015c-1.028-1.292-1.822-2.738-2.703-4.141c-0.391-0.728-0.742-1.478-1.114-2.218l-0.549-1.115
			l-0.46-1.155l-0.908-2.32l-0.702-2.39l-0.345-1.199l-0.253-1.22l-0.501-2.442l-0.281-2.439l-0.131-1.16l-0.052-1.278l-0.078-2.57
			c0.026-0.836,0.092-1.661,0.138-2.49l0.078-1.24l0.178-1.232c0.123-0.819,0.227-1.641,0.368-2.453
			c0.396-1.609,0.706-3.229,1.281-4.777c0.978-3.14,2.467-6.094,4.262-8.779c1.773-2.704,4.012-5.062,6.476-7.016
			c2.432-2.004,5.262-3.425,8.121-4.35c2.835-0.992,5.869-1.264,8.576-1.186c0.723,0.051,1.438,0.102,2.151,0.153
			c0.696,0.09,1.362,0.252,2.033,0.375l0.995,0.197c0.326,0.082,0.643,0.199,0.961,0.296c0.634,0.205,1.262,0.407,1.884,0.608
			c2.412,0.995,4.665,2.123,6.57,3.571c3.874,2.803,6.731,6.138,8.83,9.317c0.264,0.398,0.538,0.779,0.778,1.173
			c0.226,0.402,0.445,0.799,0.662,1.188c0.422,0.785,0.884,1.51,1.202,2.271c0.346,0.747,0.677,1.464,0.994,2.148
			c0.293,0.694,0.515,1.38,0.757,2.019c0.503,1.27,0.812,2.447,1.101,3.468c0.141,0.51,0.286,0.978,0.392,1.414
			c0.087,0.439,0.165,0.841,0.236,1.199C323.762,75.026,323.912,75.791,323.912,75.791z M323.912,75.791
			c0,0-0.157-0.763-0.452-2.191c-0.072-0.357-0.155-0.756-0.246-1.195c-0.107-0.435-0.26-0.901-0.403-1.41
			c-0.299-1.015-0.606-2.192-1.152-3.444c-0.928-2.556-2.461-5.521-4.665-8.579c-2.21-3.042-5.231-6.151-9.164-8.512
			c-1.927-1.237-4.146-2.125-6.452-2.871c-0.592-0.129-1.188-0.26-1.791-0.392c-0.301-0.061-0.599-0.143-0.902-0.188l-0.927-0.09
			c-0.616-0.051-1.24-0.145-1.857-0.165c-0.606,0.015-1.218,0.027-1.833,0.042c-2.62,0.181-5.132,0.661-7.526,1.765l-0.903,0.374
			c-0.294,0.146-0.573,0.321-0.861,0.48c-0.565,0.338-1.16,0.622-1.705,1c-0.533,0.393-1.069,0.786-1.608,1.182
			c-0.548,0.376-1.006,0.885-1.517,1.318c-1.962,1.834-3.71,3.985-5.038,6.434l-0.53,0.895l-0.45,0.947
			c-0.29,0.638-0.628,1.25-0.884,1.907c-0.483,1.324-1.017,2.632-1.356,4.019c-0.447,1.35-0.631,2.78-0.933,4.177
			c-0.104,0.709-0.17,1.428-0.259,2.141l-0.128,1.07l-0.034,1.082l-0.073,2.163l0.081,2.091l0.041,1.054l0.143,1.159l0.264,2.198
			c0.535,2.852,1.164,5.703,2.251,8.381l0.369,1.02l0.454,0.979c0.306,0.65,0.593,1.312,0.909,1.955
			c0.714,1.238,1.338,2.538,2.181,3.685c0.756,1.212,1.661,2.294,2.537,3.401c0.446,0.544,0.958,1.022,1.432,1.539l0.725,0.762
			l0.778,0.689c2.024,1.914,4.355,3.416,6.792,4.551c0.62,0.255,1.216,0.594,1.854,0.786c0.635,0.209,1.268,0.417,1.896,0.623
			c0.637,0.19,1.29,0.275,1.935,0.421c0.321,0.062,0.646,0.143,0.965,0.189l0.938,0.074c0.643,0.029,1.218,0.157,1.916,0.119
			c0.695-0.032,1.387-0.066,2.072-0.1l0.421-0.019l0.475-0.083l0.944-0.163c0.628-0.114,1.269-0.183,1.862-0.4
			c0.607-0.184,1.211-0.366,1.811-0.546c0.589-0.215,1.147-0.495,1.721-0.736l0.853-0.374c0.275-0.139,0.533-0.308,0.8-0.46
			c0.531-0.312,1.06-0.624,1.581-0.932c1.959-1.426,3.795-2.958,5.242-4.735c3.004-3.466,4.91-7.361,6.065-10.939
			c1.145-3.592,1.68-6.888,1.769-9.605c0.131-1.357,0.057-2.574,0.025-3.631c-0.021-0.529-0.021-1.019-0.054-1.466
			c-0.051-0.446-0.097-0.852-0.138-1.213C323.999,76.564,323.912,75.791,323.912,75.791z"/>
	</g>
</g>
<ellipse transform="matrix(-0.1572 -0.9876 0.9876 -0.1572 272.554 397.0986)" cx="305.723" cy="82.248" rx="14.858" ry="9.647"/>
<g>
	<path d="M249.471,116.981c0,0,0.514,1.266,1.41,3.48c0.455,1.099,1.009,2.432,1.642,3.96c0.65,1.518,1.422,3.208,2.277,5.033
		c0.891,1.812,1.871,3.757,2.997,5.757c1.135,1.994,2.396,4.054,3.801,6.103c1.398,2.053,2.972,4.078,4.667,6.036
		c1.688,1.965,3.521,3.854,5.518,5.553c0.957,0.896,1.998,1.693,3.013,2.514c1.054,0.769,2.094,1.553,3.186,2.237
		c1.094,0.683,2.168,1.379,3.283,1.982c1.087,0.652,2.218,1.191,3.328,1.729c2.233,1.049,4.463,1.931,6.618,2.676
		c2.173,0.688,4.25,1.307,6.209,1.75c0.973,0.266,1.921,0.424,2.823,0.599c0.902,0.17,1.756,0.374,2.569,0.489
		c1.628,0.205,3.05,0.482,4.23,0.603c2.362,0.24,3.729,0.424,3.729,0.424s-1.354,0.158-3.752,0.353
		c-1.198,0.093-2.657,0.093-4.339,0.111c-0.842,0.004-1.731-0.071-2.678-0.106c-0.944-0.041-1.938-0.112-2.967-0.26
		c-1.028-0.146-2.116-0.224-3.22-0.441c-1.104-0.221-2.251-0.425-3.414-0.715c-1.154-0.325-2.362-0.599-3.562-0.993
		c-0.6-0.198-1.204-0.407-1.812-0.626c-0.613-0.204-1.222-0.44-1.822-0.71c-1.214-0.512-2.452-1.028-3.652-1.666
		c-0.603-0.313-1.229-0.593-1.822-0.941c-0.589-0.354-1.183-0.711-1.775-1.069c-2.348-1.479-4.646-3.134-6.756-5.006
		c-2.116-1.865-4.051-3.924-5.815-6.05c-1.798-2.104-3.284-4.387-4.669-6.604c-1.399-2.214-2.505-4.49-3.51-6.65
		c-1.018-2.157-1.787-4.275-2.472-6.227c-1.342-3.918-2.117-7.269-2.592-9.616C249.668,118.336,249.471,116.981,249.471,116.981z"/>
</g>
<g>
	<path fill="#FFFFFF" d="M95.283,91.357c8.693,1.701,46.227,23.99,46.227,23.99"/>
	<path d="M95.283,91.357c0,0,0.207,0.014,0.595,0.041c0.386,0.047,0.959,0.05,1.67,0.178c0.708,0.15,1.596,0.318,2.601,0.581
		c0.969,0.28,2.072,0.591,3.256,0.98c1.166,0.414,2.433,0.867,3.752,1.388c1.306,0.539,2.689,1.105,4.09,1.745
		c1.396,0.644,2.844,1.309,4.28,2.042c1.44,0.723,2.896,1.479,4.333,2.261c2.871,1.572,5.691,3.229,8.283,4.875
		c2.595,1.638,4.957,3.264,6.944,4.719c1.985,1.46,3.598,2.744,4.705,3.678c1.111,0.928,1.717,1.504,1.717,1.504
		s-0.796-0.255-2.146-0.771c-1.354-0.51-3.26-1.283-5.513-2.266c-4.504-1.967-10.333-4.876-16.034-7.988
		c-1.418-0.79-2.836-1.58-4.232-2.357c-1.39-0.789-2.758-1.558-4.066-2.336c-2.628-1.531-5.063-2.982-7.146-4.254
		c-1.047-0.609-2-1.191-2.849-1.716c-0.844-0.462-1.58-0.904-2.202-1.268c-0.649-0.326-1.159-0.582-1.506-0.756
		C95.468,91.454,95.283,91.357,95.283,91.357z"/>
</g>
<g>
	<line fill="none" x1="121.928" y1="78.654" x2="147.8" y2="112.488"/>
	<path d="M121.928,78.654c0,0,0.551,0.416,1.446,1.197c0.9,0.776,2.145,1.921,3.574,3.341c2.858,2.841,6.375,6.854,9.611,11.082
		c3.235,4.228,6.189,8.671,8.181,12.175c0.995,1.752,1.772,3.253,2.285,4.326c0.518,1.07,0.773,1.712,0.773,1.712
		s-0.552-0.416-1.448-1.196c-0.901-0.776-2.146-1.919-3.577-3.339c-2.86-2.839-6.374-6.854-9.606-11.085
		c-3.231-4.229-6.184-8.676-8.177-12.179c-0.995-1.752-1.773-3.251-2.288-4.324C122.185,79.295,121.928,78.654,121.928,78.654z"/>
</g>
<path fill="none" stroke="#000000" stroke-width="5.1247" stroke-miterlimit="10" d="M203.999,219.62
	c5.694,6.266,24.485,24.855,38.151,24.67"/>
<text transform="matrix(1 0 0 1 223.074 322.9656)" font-family="'KomikaTitle-Axis'" font-size="147.7613">03</text>
</svg>
