<?xml version="1.0" encoding="utf-8"?>
<!-- Generator: Adobe Illustrator 16.0.0, SVG Export Plug-In . SVG Version: 6.00 Build 0)  -->
<!DOCTYPE svg PUBLIC "-//W3C//DTD SVG 1.1//EN" "http://www.w3.org/Graphics/SVG/1.1/DTD/svg11.dtd">
<svg version="1.1" id="Calque_1" xmlns="http://www.w3.org/2000/svg" xmlns:xlink="http://www.w3.org/1999/xlink" x="0px" y="0px"
	 width="419.527px" height="334.488px" viewBox="0 0 419.527 334.488" enable-background="new 0 0 419.527 334.488"
	 xml:space="preserve">
<g>
	<path fill="#FFFFFF" d="M143.762,144.243c4.485-13.087-25.844-91.881-5.445-116.443c9.106-10.967,27.625-17.226,50.585-12.771
		c57.839,11.22-32.011,123.296-35.662,126.042C149.301,142.39,143.762,144.243,143.762,144.243z"/>
	<g>
		<path d="M143.762,144.243c0.444-1.645,0.356-3.354,0.239-5.031c-0.138-1.681-0.388-3.353-0.675-5.016
			c-0.569-3.33-1.28-6.637-2.031-9.937l-4.665-19.79c-1.54-6.611-2.965-13.259-4.218-19.955c-1.261-6.695-2.249-13.46-2.833-20.303
			c-0.286-3.421-0.47-6.861-0.46-10.325c0.004-3.463,0.181-6.948,0.703-10.433c0.504-3.479,1.321-6.975,2.71-10.345
			c0.682-1.687,1.539-3.332,2.575-4.885c0.249-0.395,0.517-0.777,0.81-1.146l0.428-0.561c0.085-0.107,0.11-0.156,0.245-0.312
			l0.206-0.242c0.514-0.617,1.18-1.345,1.828-2.005c5.141-5.2,11.737-8.566,18.536-10.542c6.831-1.977,13.945-2.61,20.944-2.269
			c3.504,0.158,6.984,0.588,10.417,1.228l0.644,0.119l0.672,0.137c0.427,0.097,0.801,0.161,1.273,0.286
			c0.919,0.223,1.79,0.466,2.66,0.747c1.741,0.563,3.46,1.275,5.106,2.178c3.295,1.776,6.282,4.456,8.266,7.757
			c2.016,3.289,3.021,7.02,3.385,10.65c0.369,3.649,0.115,7.248-0.427,10.736c-0.547,3.493-1.396,6.891-2.412,10.212
			c-2.05,6.64-4.73,12.996-7.742,19.152c-3.029,6.149-6.367,12.116-9.893,17.955c-3.514,5.847-7.285,11.521-11.166,17.11
			c-3.876,5.593-7.925,11.061-12.115,16.412c-2.098,2.674-4.209,5.337-6.396,7.939c-1.093,1.302-2.194,2.596-3.316,3.875
			l-1.704,1.903c-0.6,0.636-1.11,1.237-1.858,1.868l-0.052,0.044l-0.07,0.021L143.762,144.243z M143.762,144.243l9.341-3.58
			l-0.122,0.064c0.517-0.497,1.087-1.21,1.607-1.845l1.57-1.984c1.035-1.335,2.052-2.687,3.058-4.045
			c2.007-2.724,4-5.455,5.942-8.224c3.883-5.537,7.647-11.153,11.295-16.837c3.645-5.687,7.106-11.481,10.441-17.335
			c3.316-5.861,6.436-11.83,9.226-17.924c2.791-6.087,5.318-12.293,7.147-18.648c1.813-6.325,2.989-12.9,2.376-19.131
			c-0.328-3.094-1.183-6.061-2.735-8.558c-1.534-2.508-3.771-4.516-6.438-5.942c-1.33-0.719-2.758-1.305-4.242-1.775
			c-0.744-0.235-1.507-0.443-2.236-0.616c-0.346-0.094-0.807-0.176-1.208-0.264l-0.574-0.113l-0.606-0.107
			c-3.235-0.567-6.492-1.004-9.76-1.167c-6.525-0.357-13.103,0.206-19.314,1.968c-6.188,1.764-12.046,4.763-16.561,9.146
			c-0.547,0.541-1.042,1.049-1.625,1.725l-0.211,0.238c-0.007,0.002-0.102,0.128-0.147,0.188l-0.35,0.444
			c-0.241,0.29-0.465,0.597-0.672,0.917c-0.866,1.25-1.611,2.612-2.224,4.059c-1.247,2.879-2.055,6.021-2.574,9.233
			c-1.018,6.444-1.089,13.145-0.714,19.815c0.368,6.683,1.202,13.368,2.157,20.043c0.968,6.677,2.167,13.332,3.388,19.993
			c1.2,6.666,2.524,13.317,3.633,20.021c0.55,3.353,1.077,6.712,1.429,10.1c0.167,1.693,0.296,3.394,0.312,5.099
			C144.368,140.889,144.328,142.633,143.762,144.243z"/>
	</g>
</g>
<ellipse transform="matrix(-0.2699 -0.9629 0.9629 -0.2699 -5.1846 368.3808)" fill="#FFBF0F" stroke="#000000" stroke-width="5.1038" stroke-miterlimit="10" cx="137.069" cy="186.156" rx="60.319" ry="109.24"/>
<g>
	<circle fill="#FFBF0F" cx="266.377" cy="125.176" r="58.118"/>
	<g>
		<path d="M324.495,125.176c0,0-0.008,0.356-0.021,1.048c-0.028,0.689,0.002,1.717-0.12,3.05c-0.162,2.666-0.578,6.595-1.9,11.42
			c-0.619,2.422-1.56,5.034-2.73,7.809c-1.186,2.771-2.674,5.688-4.559,8.624c-3.744,5.88-9.114,11.854-16.186,16.839
			c-3.546,2.469-7.522,4.657-11.867,6.405c-4.341,1.757-9.072,2.983-14.023,3.667c-1.235,0.185-2.493,0.266-3.756,0.392
			c-1.271,0.038-2.527,0.159-3.842,0.13c-0.629-0.003-1.26-0.006-1.893-0.01c-0.639-0.01-1.305-0.063-1.958-0.095
			c-1.325-0.046-2.618-0.217-3.934-0.352c-2.612-0.356-5.252-0.813-7.854-1.538c-1.314-0.314-2.598-0.765-3.901-1.167
			c-1.275-0.48-2.586-0.904-3.842-1.474c-5.09-2.123-9.964-5.028-14.413-8.599c-4.437-3.59-8.378-7.904-11.681-12.722
			c-1.657-2.407-3.104-4.97-4.416-7.607c-1.287-2.652-2.323-5.43-3.22-8.254c-0.883-2.831-1.503-5.743-1.978-8.677
			c-0.197-1.474-0.403-2.947-0.493-4.434c-0.062-0.741-0.125-1.482-0.133-2.227l-0.064-2.296
			c0.033-11.771,3.639-23.775,10.293-33.372c3.303-4.821,7.252-9.127,11.681-12.728c4.45-3.57,9.326-6.478,14.419-8.601
			c1.256-0.569,2.565-0.992,3.842-1.473c1.306-0.403,2.588-0.854,3.903-1.167c2.604-0.725,5.243-1.182,7.856-1.537
			c1.313-0.135,2.614-0.306,3.918-0.351c1.3-0.097,2.595-0.108,3.881-0.104h0.993l0.938,0.043c0.624,0.029,1.247,0.058,1.866,0.086
			c1.269,0.125,2.553,0.208,3.786,0.392c4.952,0.686,9.686,1.912,14.025,3.671c4.345,1.748,8.321,3.938,11.867,6.406
			c7.071,4.988,12.438,10.965,16.184,16.846c1.885,2.938,3.374,5.853,4.557,8.625c1.173,2.773,2.111,5.386,2.731,7.809
			c1.321,4.825,1.737,8.755,1.899,11.42c0.122,1.333,0.092,2.361,0.12,3.051C324.487,124.819,324.495,125.176,324.495,125.176z
			 M324.495,125.176c0,0-0.011-0.355-0.031-1.047c-0.033-0.689-0.013-1.717-0.146-3.048c-0.186-2.662-0.635-6.584-1.994-11.387
			c-1.346-4.787-3.594-10.504-7.509-16.24c-3.869-5.725-9.29-11.575-16.466-16.129c-3.576-2.273-7.546-4.246-11.831-5.767
			c-4.282-1.53-8.903-2.521-13.688-2.98c-1.196-0.127-2.383-0.15-3.591-0.224c-0.621-0.003-1.245-0.005-1.87-0.008l-0.938-0.004
			l-0.891,0.038c-1.229,0.048-2.466,0.11-3.701,0.256c-1.239,0.092-2.473,0.31-3.715,0.487c-2.469,0.443-4.951,0.979-7.383,1.768
			c-1.229,0.347-2.422,0.824-3.635,1.253c-1.185,0.505-2.397,0.95-3.556,1.537c-4.699,2.191-9.139,5.103-13.136,8.591
			c-2.006,1.737-3.886,3.635-5.661,5.637c-1.769,2.01-3.363,4.182-4.846,6.431c-2.908,4.539-5.219,9.497-6.785,14.706
			c-0.789,2.604-1.332,5.28-1.746,7.974c-0.388,2.742-0.531,5.279-0.57,8.224l0.044,1.982c0,0.683,0.054,1.362,0.104,2.043
			c0.069,1.363,0.249,2.716,0.417,4.069c0.414,2.693,0.958,5.37,1.747,7.975c1.571,5.207,3.867,10.174,6.779,14.711
			c5.871,9.051,14.255,16.268,23.646,20.666c1.158,0.587,2.373,1.032,3.559,1.537c1.213,0.428,2.404,0.905,3.636,1.253
			c2.432,0.788,4.914,1.323,7.385,1.766c1.24,0.178,2.48,0.396,3.7,0.486c0.615,0.054,1.213,0.132,1.84,0.168
			c0.632,0.029,1.264,0.058,1.892,0.087c1.201,0.08,2.445,0.012,3.656,0.027c1.215-0.072,2.427-0.099,3.621-0.227
			c4.784-0.46,9.405-1.452,13.688-2.982c4.286-1.521,8.256-3.494,11.832-5.77c7.177-4.556,12.594-10.41,16.464-16.133
			c3.915-5.737,6.161-11.455,7.507-16.242c1.36-4.803,1.81-8.726,1.994-11.387c0.133-1.332,0.111-2.359,0.146-3.049
			C324.484,125.532,324.495,125.176,324.495,125.176z"/>
	</g>
</g>
<path d="M52.384,163.994c0,0-7.414,59.375,31.319,87.299c17.709,1.146,23.179,0.021,26.098-0.107
	c-19.719-22.885-42.339-58.88-32.137-105.113C70.771,150.323,52.384,163.994,52.384,163.994z"/>
<path d="M95.385,135.12c-6.275,30.674,4.184,82.966,38.397,112.66c16.142-2.292,22.622-5.201,25.541-5.332
	c-17.044-21.423-45.648-66.924-34.725-115.408C116.588,129.294,105.079,131.292,95.385,135.12z"/>
<path d="M143.747,125.176c-4.453,23.351,5.925,80.266,38.286,107.735c14.344-3.938,21.921-10.771,24.842-10.899
	c-19.584-21.274-39.043-56.947-30.787-101.019C165.201,121.222,154.536,122.581,143.747,125.176z"/>
<g>
	
		<ellipse transform="matrix(-0.1572 -0.9876 0.9876 -0.1572 268.647 423.0269)" fill="#FFFFFF" cx="314.835" cy="96.878" rx="22.273" ry="18.086"/>
	<g>
		<path d="M332.685,94.033c0,0,0.061,0.493,0.175,1.417c0.066,0.461,0.13,1.031,0.14,1.708c0.029,0.675,0.075,1.451,0.026,2.321
			c-0.003,1.742-0.285,3.854-0.886,6.217c-0.625,2.354-1.674,4.958-3.444,7.47c-0.858,1.277-1.995,2.435-3.263,3.544
			c-1.328,1.029-2.808,2.041-4.539,2.676c-0.417,0.201-0.868,0.307-1.317,0.44l-0.679,0.194l-0.343,0.097l-0.403,0.066
			c-0.434,0.069-0.869,0.141-1.308,0.211c-0.436,0.074-0.989,0.058-1.489,0.084c-2.035,0.032-4.037-0.245-5.983-0.973
			c-3.899-1.359-7.422-4.074-9.964-7.528c-0.678-0.841-1.203-1.78-1.784-2.694c-0.258-0.474-0.488-0.961-0.733-1.444l-0.361-0.728
			l-0.304-0.752l-0.6-1.513l-0.462-1.56c-0.167-0.518-0.291-1.044-0.392-1.577l-0.342-1.696l-0.167-1.48l-0.082-0.74l-0.034-0.842
			l-0.05-1.695c0.018-0.546,0.062-1.085,0.096-1.626c0.021-0.541,0.08-1.079,0.173-1.613c0.083-0.535,0.152-1.071,0.249-1.602
			c0.263-1.051,0.477-2.105,0.857-3.116c1.339-4.075,3.844-7.755,7.135-10.258c1.605-1.294,3.478-2.194,5.354-2.771
			c1.859-0.621,3.855-0.77,5.593-0.688c3.8,0.219,6.936,1.661,9.402,3.497c2.464,1.839,4.268,3.992,5.593,6.036
			c1.303,2.06,2.226,3.981,2.77,5.636c0.316,0.812,0.514,1.563,0.695,2.214c0.201,0.646,0.317,1.208,0.396,1.667
			C332.59,93.545,332.685,94.033,332.685,94.033z M332.685,94.033c0,0-0.103-0.486-0.291-1.396
			c-0.085-0.458-0.209-1.019-0.417-1.661c-0.192-0.646-0.389-1.398-0.741-2.193c-0.599-1.626-1.585-3.512-3.006-5.446
			c-1.422-1.924-3.369-3.88-5.882-5.333c-1.231-0.765-2.645-1.302-4.102-1.749c-0.758-0.123-1.498-0.361-2.283-0.378
			c-0.387-0.023-0.779-0.076-1.164-0.081c-0.375,0.017-0.752,0.032-1.132,0.05c-1.661,0.145-3.2,0.476-4.677,1.191l-0.556,0.243
			c-0.181,0.094-0.353,0.208-0.527,0.31c-0.346,0.218-0.71,0.399-1.042,0.641c-0.655,0.502-1.317,0.983-1.903,1.585
			c-1.191,1.156-2.25,2.503-3.045,4.033l-0.318,0.559l-0.271,0.591c-0.174,0.397-0.379,0.778-0.531,1.188
			c-0.288,0.826-0.607,1.637-0.812,2.499c-0.471,1.695-0.728,3.471-0.798,5.257l-0.04,1.341l0.053,1.278l0.024,0.645l0.091,0.739
			l0.181,1.479c-0.025-0.193-0.003-0.029-0.006-0.062l0.008,0.042l0.018,0.083l0.031,0.166l0.065,0.332l0.129,0.664
			c0.076,0.444,0.172,0.885,0.309,1.313l0.363,1.3l0.45,1.266c0.626,1.675,1.412,3.287,2.389,4.752
			c0.462,0.756,1.014,1.433,1.546,2.127c0.272,0.341,0.585,0.64,0.874,0.964c0.286,0.329,0.594,0.631,0.917,0.912
			c1.232,1.208,2.657,2.161,4.151,2.889c0.744,0.389,1.523,0.647,2.303,0.918c0.393,0.126,0.794,0.187,1.191,0.285
			c0.198,0.042,0.399,0.098,0.596,0.131l0.57,0.058c0.395,0.025,0.732,0.118,1.181,0.102c0.443-0.014,0.885-0.028,1.323-0.042
			l0.165-0.005l0.082-0.002l0.041-0.001c0.031-0.002-0.123,0.016-0.04,0.005l0.295-0.045l0.591-0.09
			c0.395-0.063,0.795-0.097,1.168-0.228c0.383-0.106,0.764-0.213,1.141-0.318c0.369-0.127,0.724-0.296,1.086-0.44
			c0.74-0.26,1.372-0.716,2.053-1.071c1.247-0.878,2.422-1.826,3.354-2.938c1.938-2.164,3.18-4.629,3.934-6.899
			c0.75-2.279,1.101-4.379,1.165-6.11c0.09-0.866,0.041-1.641,0.022-2.314c-0.001-0.675-0.058-1.246-0.118-1.708
			C332.739,94.526,332.685,94.033,332.685,94.033z"/>
	</g>
</g>
<ellipse transform="matrix(-0.0169 -0.9999 0.9999 -0.0169 230.1908 422.8256)" cx="322.97" cy="98.243" rx="8.276" ry="5.373"/>
<g>
	<path fill="#FFFFFF" d="M164.105,140.743c-11.324-14.797-17.751-76.06-54.303-98.711c-16.318-10.113-42.646-10.19-70.066,5.313
		c-69.075,39.057,105.071,91.45,110.909,93.396C156.238,140.743,164.105,140.743,164.105,140.743z"/>
	<g>
		<path d="M164.105,140.743c-2.343-3.03-3.992-6.561-5.5-10.073c-1.491-3.536-2.812-7.136-4.117-10.731
			c-2.607-7.198-5.077-14.427-7.848-21.525c-2.769-7.093-5.725-14.104-9.23-20.809c-1.745-3.354-3.61-6.639-5.634-9.807
			c-1.991-3.191-4.199-6.229-6.551-9.129c-2.328-2.925-4.951-5.575-7.667-8.09c-2.764-2.47-5.737-4.66-8.842-6.63l-2.423-1.337
			c-0.85-0.511-1.64-0.779-2.453-1.156c-0.803-0.358-1.601-0.727-2.482-1c-0.863-0.292-1.715-0.609-2.583-0.882
			c-3.509-1-7.122-1.664-10.782-1.972c-3.664-0.243-7.357-0.271-11.035,0.107c-0.918,0.096-1.842,0.136-2.756,0.273l-2.744,0.42
			l-1.372,0.209l-1.358,0.294l-2.719,0.585c-7.229,1.693-14.211,4.453-20.855,7.844c-6.52,3.373-13.229,7.329-16.875,13.034
			c-0.42,0.717-0.868,1.423-1.146,2.184c-0.376,0.732-0.532,1.516-0.771,2.279c-0.294,1.559-0.405,3.151-0.125,4.755
			c0.533,3.206,2.185,6.354,4.323,9.202c4.382,5.694,10.269,10.475,16.399,14.766c6.188,4.269,12.741,8.083,19.434,11.65
			c6.684,3.59,13.533,6.909,20.466,10.057c6.938,3.136,13.935,6.164,21.002,9.035c14.141,5.738,28.451,11.06,42.922,16.038
			l-0.136-0.021L164.105,140.743z M164.105,140.743l-13.46,0.43l-0.054,0.001l-0.083-0.022c-7.344-2.09-14.695-4.277-21.974-6.647
			c-7.291-2.343-14.541-4.823-21.731-7.478c-7.192-2.649-14.357-5.396-21.417-8.414c-7.068-2.998-14.072-6.175-20.95-9.649
			c-6.877-3.472-13.604-7.293-20.079-11.601c-3.225-2.176-6.375-4.49-9.379-7.04c-2.999-2.551-5.864-5.34-8.337-8.575
			c-0.604-0.823-1.197-1.659-1.757-2.524c-0.518-0.903-1.096-1.759-1.523-2.733c-0.975-1.859-1.627-3.954-2.029-6.104
			c-0.385-2.175-0.275-4.451,0.151-6.639c0.3-1.068,0.555-2.164,1.035-3.15c0.392-1.039,0.951-1.961,1.499-2.895
			c0.547-0.932,1.23-1.735,1.851-2.601c0.704-0.767,1.382-1.573,2.116-2.298c0.758-0.688,1.491-1.425,2.277-2.067
			c0.798-0.626,1.576-1.271,2.394-1.877l2.529-1.737c0.828-0.53,1.64-0.997,2.463-1.494l0.615-0.367l0.153-0.093l0.223-0.122
			l0.323-0.172l1.296-0.686l2.594-1.37c6.979-3.52,14.34-6.388,22.018-8.148c7.663-1.756,15.625-2.551,23.542-1.793
			c3.956,0.394,7.878,1.169,11.706,2.328c0.95,0.312,1.886,0.675,2.828,1.012c0.941,0.31,1.878,0.748,2.812,1.186
			c0.915,0.438,1.924,0.845,2.707,1.336l2.574,1.476c3.328,2.165,6.479,4.583,9.343,7.297c2.825,2.742,5.521,5.617,7.881,8.737
			c2.387,3.097,4.602,6.313,6.574,9.659c1.027,1.651,1.939,3.362,2.877,5.059c0.873,1.729,1.793,3.435,2.598,5.19
			c3.333,6.978,6.114,14.167,8.602,21.428c2.455,7.274,4.668,14.604,6.868,21.922c1.106,3.657,2.241,7.302,3.514,10.896
			C160.569,133.991,161.96,137.562,164.105,140.743z"/>
	</g>
</g>
<path fill="none" stroke="#000000" stroke-width="2.9186" stroke-miterlimit="10" d="M303.971,58.785
	c9.341-13.666,22.811-14.548,30.092-9.418"/>
<ellipse transform="matrix(0.3655 -0.9308 0.9308 0.3655 165.9922 351.4898)" cx="340.824" cy="53.985" rx="7.904" ry="7.616"/>
<path fill="none" stroke="#000000" stroke-width="2.9186" stroke-miterlimit="10" d="M264.379,60.46
	c1.946-35.277,26.27-47.926,42.809-44.033"/>
<circle cx="320.549" cy="19.345" r="12.739"/>
<g>
	
		<ellipse transform="matrix(-0.1572 -0.9876 0.9876 -0.1572 248.0737 380.5065)" fill="#FFFFFF" cx="286.402" cy="84.398" rx="34.79" ry="28.249"/>
	<g>
		<path d="M314.288,79.971c0,0,0.094,0.77,0.27,2.213c0.044,0.36,0.093,0.764,0.146,1.207c0.036,0.444,0.041,0.934,0.065,1.46
			c0.043,1.054,0.113,2.266,0.026,3.623c-0.032,0.678-0.031,1.396-0.097,2.144c-0.09,0.746-0.183,1.526-0.28,2.34
			c-0.068,0.819-0.282,1.648-0.438,2.521c-0.085,0.436-0.171,0.879-0.259,1.33c-0.105,0.446-0.248,0.892-0.374,1.351
			c-0.996,3.663-2.731,7.673-5.531,11.502c-1.362,1.947-3.148,3.696-5.122,5.366c-0.527,0.377-1.06,0.758-1.595,1.141
			c-0.271,0.188-0.534,0.396-0.817,0.57l-0.879,0.487c-0.594,0.316-1.178,0.674-1.798,0.966c-0.638,0.257-1.28,0.517-1.927,0.778
			c-0.641,0.295-1.33,0.439-2.017,0.628l-1.035,0.273l-0.521,0.137l-0.588,0.087c-0.679,0.094-1.36,0.188-2.046,0.282
			c-0.683,0.101-1.488,0.053-2.24,0.08l-1.154,0.009c-0.379-0.021-0.746-0.073-1.122-0.11c-0.745-0.095-1.511-0.135-2.257-0.285
			c-0.743-0.171-1.49-0.343-2.24-0.517c-0.757-0.162-1.46-0.49-2.198-0.732c-2.902-1.09-5.717-2.628-8.197-4.633
			c-2.508-1.97-4.768-4.321-6.656-6.957c-1.017-1.274-1.801-2.702-2.672-4.086c-0.386-0.718-0.73-1.459-1.097-2.191l-0.542-1.103
			l-0.451-1.143l-0.895-2.293l-0.693-2.361l-0.339-1.185l-0.249-1.206l-0.493-2.413l-0.279-2.415l-0.131-1.154l-0.051-1.26
			l-0.079-2.529c0.027-0.824,0.09-1.642,0.135-2.459l0.075-1.227l0.172-1.217c0.121-0.81,0.221-1.621,0.361-2.424
			c0.391-1.589,0.698-3.188,1.269-4.716c0.461-1.559,1.138-3.034,1.782-4.509c0.334-0.73,0.756-1.424,1.129-2.132l0.578-1.051
			l0.676-0.994c1.738-2.677,3.938-5.013,6.359-6.951c0.627-0.461,1.194-0.987,1.861-1.381c0.66-0.396,1.317-0.793,1.973-1.187
			c0.663-0.374,1.378-0.649,2.058-0.972c0.346-0.15,0.683-0.317,1.03-0.452l1.07-0.34c2.796-0.995,5.784-1.278,8.476-1.217
			c0.713,0.047,1.421,0.095,2.124,0.141c0.688,0.085,1.349,0.242,2.013,0.359l0.987,0.19c0.324,0.079,0.638,0.193,0.954,0.289
			c0.629,0.199,1.252,0.396,1.87,0.592c2.396,0.975,4.637,2.083,6.536,3.513c3.851,2.772,6.741,6.049,8.825,9.222
			c0.263,0.396,0.536,0.775,0.775,1.167c0.223,0.401,0.442,0.796,0.658,1.184c0.42,0.781,0.878,1.503,1.198,2.261
			c0.345,0.743,0.676,1.457,0.991,2.139c0.294,0.69,0.517,1.374,0.758,2.008c0.505,1.264,0.812,2.438,1.1,3.452
			c0.14,0.508,0.286,0.974,0.391,1.408c0.086,0.438,0.165,0.838,0.235,1.193C314.138,79.21,314.288,79.971,314.288,79.971z
			 M314.288,79.971c0,0-0.156-0.761-0.449-2.185c-0.072-0.355-0.153-0.753-0.243-1.19c-0.107-0.434-0.259-0.898-0.402-1.404
			c-0.297-1.011-0.604-2.186-1.146-3.432c-0.919-2.548-2.439-5.506-4.641-8.551c-2.206-3.024-5.171-6.166-9.094-8.536
			c-1.918-1.246-4.131-2.145-6.434-2.902c-0.592-0.133-1.188-0.269-1.79-0.404c-0.301-0.062-0.598-0.146-0.902-0.195l-0.928-0.097
			c-0.616-0.056-1.241-0.153-1.859-0.178c-0.611,0.01-1.228,0.02-1.846,0.029c-2.615,0.163-5.149,0.629-7.562,1.721l-0.911,0.37
			c-0.296,0.145-0.579,0.319-0.869,0.478c-0.57,0.336-1.172,0.618-1.723,0.994c-0.539,0.39-1.082,0.783-1.627,1.177
			c-0.554,0.376-1.019,0.884-1.534,1.318c-1.985,1.834-3.757,3.989-5.107,6.442l-0.539,0.896l-0.461,0.949
			c-0.298,0.638-0.643,1.253-0.904,1.911c-0.503,1.327-1.044,2.641-1.383,4.038c-0.449,1.358-0.634,2.796-0.938,4.201
			c-0.104,0.714-0.174,1.435-0.265,2.15l-0.13,1.077l-0.037,1.088l-0.078,2.174l0.082,2.113l0.041,1.062l0.141,1.154l0.264,2.206
			c0.981,5.745,2.995,11.354,6.212,16.097c0.756,1.224,1.679,2.305,2.568,3.41c0.454,0.543,0.974,1.021,1.453,1.536l0.733,0.759
			l0.788,0.69c2.048,1.913,4.401,3.412,6.859,4.539c0.626,0.253,1.228,0.589,1.868,0.778c0.641,0.206,1.279,0.41,1.913,0.614
			c0.641,0.188,1.3,0.269,1.947,0.41c0.324,0.061,0.65,0.138,0.973,0.184l0.949,0.068c0.646,0.026,1.234,0.148,1.931,0.106
			c0.691-0.038,1.379-0.075,2.062-0.112l0.431-0.023l0.475-0.085l0.947-0.17c0.63-0.118,1.271-0.19,1.866-0.414
			c0.607-0.188,1.212-0.374,1.812-0.56c0.589-0.219,1.146-0.503,1.719-0.749l0.852-0.38c0.275-0.141,0.532-0.312,0.798-0.466
			c0.529-0.316,1.056-0.63,1.576-0.942c1.952-1.437,3.778-2.978,5.214-4.759c2.993-3.471,4.833-7.381,5.992-10.94
			c1.146-3.578,1.672-6.862,1.756-9.569c0.128-1.354,0.054-2.563,0.022-3.617c-0.021-0.526-0.021-1.015-0.056-1.459
			c-0.05-0.444-0.096-0.848-0.137-1.208C314.375,80.742,314.288,79.971,314.288,79.971z"/>
	</g>
</g>
<ellipse transform="matrix(-0.1572 -0.9876 0.9876 -0.1572 257.3989 392.4765)" cx="296.172" cy="86.405" rx="14.798" ry="9.608"/>
<g>
	<path d="M240.149,120.993c0,0,0.512,1.261,1.406,3.467c0.884,2.203,2.182,5.325,3.901,8.957c0.887,1.805,1.863,3.742,2.984,5.733
		c1.13,1.987,2.386,4.037,3.784,6.078c1.395,2.044,2.96,4.061,4.647,6.011c1.682,1.957,3.508,3.838,5.495,5.53
		c0.953,0.894,1.989,1.686,3,2.503c1.048,0.765,2.084,1.546,3.172,2.229c1.09,0.681,2.159,1.373,3.271,1.975
		c1.083,0.649,2.209,1.187,3.315,1.721c2.225,1.045,4.443,1.923,6.591,2.665c2.163,0.684,4.232,1.301,6.185,1.742
		c0.967,0.264,1.913,0.423,2.812,0.596c0.898,0.169,1.749,0.372,2.56,0.488c1.621,0.204,3.038,0.479,4.214,0.6
		c2.354,0.239,3.714,0.422,3.714,0.422s-1.349,0.157-3.736,0.353c-1.193,0.092-2.646,0.092-4.321,0.109
		c-0.837,0.004-1.725-0.07-2.665-0.106c-0.941-0.041-1.931-0.111-2.955-0.258c-1.023-0.146-2.107-0.224-3.206-0.44
		c-1.099-0.219-2.242-0.423-3.4-0.712c-1.148-0.324-2.353-0.595-3.548-0.989c-0.598-0.196-1.2-0.404-1.805-0.624
		c-0.611-0.203-1.217-0.438-1.815-0.708c-1.209-0.509-2.441-1.023-3.638-1.66c-0.602-0.312-1.227-0.589-1.815-0.937
		c-0.587-0.354-1.177-0.708-1.769-1.065c-2.338-1.473-4.627-3.121-6.729-4.985c-2.106-1.858-4.032-3.908-5.791-6.025
		c-1.79-2.096-3.271-4.37-4.649-6.578c-1.395-2.205-2.494-4.472-3.495-6.623c-1.014-2.147-1.779-4.257-2.462-6.201
		c-1.336-3.901-2.108-7.237-2.58-9.576C240.347,122.342,240.149,120.993,240.149,120.993z"/>
</g>
<g>
	<path fill="#FFFFFF" d="M86.59,95.474c8.658,1.692,46.039,23.893,46.039,23.893"/>
	<path d="M86.59,95.474c0,0,0.206,0.014,0.594,0.041c0.383,0.047,0.955,0.05,1.663,0.178c0.706,0.148,1.588,0.315,2.59,0.578
		c0.965,0.278,2.062,0.589,3.243,0.977c1.16,0.412,2.422,0.864,3.736,1.382c1.301,0.537,2.68,1.103,4.074,1.738
		c1.391,0.641,2.833,1.304,4.263,2.033c1.436,0.72,2.885,1.474,4.315,2.251c2.86,1.564,5.669,3.216,8.249,4.854
		c2.584,1.632,4.937,3.25,6.917,4.7c1.977,1.455,3.583,2.733,4.686,3.662c1.106,0.924,1.709,1.498,1.709,1.498
		s-0.793-0.254-2.138-0.768c-1.348-0.509-3.247-1.278-5.49-2.258c-4.485-1.959-10.291-4.856-15.968-7.956
		c-1.413-0.787-2.825-1.573-4.215-2.349c-1.384-0.786-2.746-1.551-4.05-2.327c-2.618-1.525-5.043-2.971-7.117-4.235
		c-1.043-0.608-1.992-1.188-2.837-1.709c-0.841-0.46-1.574-0.9-2.193-1.263c-0.646-0.323-1.154-0.58-1.5-0.753
		C86.775,95.569,86.59,95.474,86.59,95.474z"/>
</g>
<g>
	<line fill="none" x1="113.126" y1="82.822" x2="138.894" y2="116.519"/>
	<path d="M113.126,82.822c0,0,0.549,0.415,1.441,1.192c0.896,0.773,2.135,1.914,3.559,3.327c2.848,2.829,6.351,6.826,9.572,11.037
		s6.165,8.637,8.148,12.126c0.99,1.745,1.765,3.24,2.275,4.31c0.517,1.065,0.771,1.705,0.771,1.705s-0.551-0.414-1.443-1.191
		c-0.897-0.772-2.137-1.912-3.562-3.325c-2.85-2.828-6.349-6.827-9.567-11.041s-6.158-8.641-8.143-12.129
		c-0.991-1.745-1.768-3.237-2.279-4.307C113.382,83.461,113.126,82.822,113.126,82.822z"/>
</g>
<path fill="none" stroke="#000000" stroke-width="5.1038" stroke-miterlimit="10" d="M194.863,223.211
	c5.671,6.239,24.385,24.754,37.996,24.569"/>
<text transform="matrix(1 0 0 1 213.863 326.1384)" font-family="'KomikaTitle-Axis'" font-size="147.1595">04</text>
</svg>
