<?xml version="1.0" encoding="utf-8"?>
<!-- Generator: Adobe Illustrator 16.0.0, SVG Export Plug-In . SVG Version: 6.00 Build 0)  -->
<!DOCTYPE svg PUBLIC "-//W3C//DTD SVG 1.1//EN" "http://www.w3.org/Graphics/SVG/1.1/DTD/svg11.dtd">
<svg version="1.1" xmlns="http://www.w3.org/2000/svg" xmlns:xlink="http://www.w3.org/1999/xlink" x="0px" y="0px"
	 width="595.28px" height="841.89px" viewBox="0 0 595.28 841.89" enable-background="new 0 0 595.28 841.89" xml:space="preserve">
<g id="Calque_1">
	<g>
		<path fill-rule="evenodd" clip-rule="evenodd" fill="#FFFFFF" d="M219.377,342.331c5.273-15.385-30.382-108.016-6.402-136.891
			c10.706-12.893,32.476-20.25,59.467-15.013c67.996,13.19-37.631,144.947-41.923,148.175
			C225.888,340.152,219.377,342.331,219.377,342.331z"/>
		<path d="M219.377,342.331c0.534-1.931,0.442-3.945,0.314-5.917c-0.151-1.979-0.434-3.946-0.761-5.904
			c-0.649-3.919-1.469-7.812-2.334-11.695l-5.393-23.287c-1.782-7.776-3.438-15.591-4.885-23.462
			c-1.456-7.87-2.604-15.815-3.271-23.844c-0.327-4.015-0.535-8.05-0.515-12.109c0.015-4.057,0.228-8.138,0.842-12.209
			c0.594-4.067,1.554-8.145,3.174-12.063c0.796-1.961,1.793-3.87,2.997-5.669c0.289-0.457,0.6-0.9,0.94-1.328l0.495-0.649
			c0.097-0.122,0.133-0.186,0.281-0.355l0.243-0.284c0.609-0.732,1.376-1.566,2.13-2.333c5.987-6.041,13.677-9.966,21.616-12.27
			c7.975-2.304,16.291-3.044,24.477-2.64c4.099,0.187,8.171,0.692,12.188,1.438l0.754,0.138l0.781,0.159
			c0.499,0.112,0.947,0.19,1.491,0.334c1.063,0.256,2.078,0.541,3.089,0.866c2.024,0.653,4.02,1.479,5.927,2.524
			c3.817,2.057,7.263,5.147,9.554,8.957c2.329,3.796,3.499,8.114,3.922,12.336c0.43,4.242,0.14,8.438-0.489,12.515
			c-0.634,4.081-1.622,8.059-2.808,11.951c-2.39,7.78-5.527,15.239-9.048,22.471c-3.54,7.225-7.445,14.239-11.571,21.105
			c-4.114,6.874-8.521,13.557-13.062,20.136c-4.537,6.583-9.27,13.023-14.169,19.331c-2.451,3.152-4.924,6.289-7.479,9.358
			c-1.276,1.536-2.564,3.062-3.876,4.57l-1.991,2.246c-0.698,0.747-1.304,1.464-2.163,2.194l-0.051,0.043l-0.071,0.021
			L219.377,342.331z M219.377,342.331l11.005-4.137l-0.122,0.064c0.628-0.596,1.293-1.425,1.913-2.17l1.858-2.326
			c1.225-1.564,2.427-3.148,3.618-4.74c2.374-3.191,4.729-6.396,7.025-9.642c4.592-6.494,9.042-13.083,13.351-19.757
			c4.305-6.677,8.403-13.479,12.338-20.359c3.918-6.89,7.604-13.905,10.905-21.075c3.301-7.163,6.285-14.472,8.455-21.968
			c2.148-7.463,3.562-15.229,2.834-22.65c-0.388-3.686-1.405-7.241-3.273-10.247c-1.843-3.018-4.539-5.438-7.729-7.146
			c-1.591-0.861-3.295-1.562-5.064-2.124c-0.885-0.28-1.792-0.528-2.666-0.736c-0.418-0.113-0.953-0.208-1.426-0.312l-0.683-0.135
			L271,192.745c-3.821-0.674-7.67-1.186-11.532-1.378c-7.713-0.419-15.492,0.25-22.85,2.339c-7.328,2.093-14.281,5.65-19.645,10.875
			c-0.65,0.646-1.249,1.263-1.927,2.052l-0.247,0.28c-0.02,0.016-0.125,0.158-0.183,0.23l-0.418,0.534
			c-0.288,0.348-0.554,0.715-0.802,1.098c-1.034,1.496-1.92,3.123-2.646,4.843c-1.479,3.428-2.429,7.153-3.038,10.954
			c-1.197,7.623-1.254,15.521-0.798,23.379c0.452,7.871,1.446,15.736,2.596,23.585c1.163,7.851,2.593,15.674,4.057,23.5
			c1.441,7.831,3.022,15.645,4.363,23.516c0.663,3.936,1.3,7.881,1.731,11.858c0.207,1.988,0.37,3.985,0.399,5.987
			C220.067,338.389,220.031,340.436,219.377,342.331z"/>
	</g>
	
		<ellipse transform="matrix(0.9629 -0.2699 0.2699 0.9629 -97.8545 71.6341)" fill-rule="evenodd" clip-rule="evenodd" fill="#FFBF0F" stroke="#000000" stroke-width="5.7186" stroke-miterlimit="10" cx="211.515" cy="391.59" rx="128.419" ry="70.909"/>
	<g>
		<circle fill-rule="evenodd" clip-rule="evenodd" fill="#FFBF0F" cx="363.523" cy="319.916" r="68.323"/>
		<g>
			<path d="M431.846,319.916c0,0-0.009,0.419-0.026,1.231c-0.033,0.811,0.001,2.019-0.142,3.586
				c-0.191,3.133-0.682,7.753-2.237,13.425c-0.729,2.848-1.834,5.917-3.213,9.179c-1.393,3.257-3.145,6.683-5.362,10.134
				c-4.406,6.905-10.715,13.934-19.044,19.764c-8.327,5.776-18.755,10.247-30.419,11.803c-1.452,0.217-2.929,0.313-4.411,0.462
				c-1.493,0.047-2.969,0.19-4.51,0.157c-0.739-0.003-1.481-0.005-2.226-0.008c-0.749-0.012-1.53-0.074-2.299-0.11
				c-1.556-0.052-3.074-0.252-4.618-0.409c-3.069-0.416-6.17-0.951-9.229-1.799c-1.546-0.368-3.052-0.895-4.585-1.367
				c-0.758-0.261-1.506-0.554-2.262-0.833c-0.76-0.271-1.508-0.574-2.247-0.905c-5.972-2.508-11.686-5.936-16.896-10.139
				c-5.197-4.225-9.826-9.283-13.697-14.941c-7.813-11.292-12.031-25.268-12.079-39.229c0.038-13.963,4.266-27.936,12.068-39.236
				c3.87-5.661,8.506-10.713,13.696-14.947c5.213-4.204,10.929-7.631,16.902-10.14c0.738-0.331,1.487-0.635,2.247-0.905l2.262-0.836
				c1.533-0.472,3.04-0.999,4.586-1.367c3.06-0.848,6.161-1.382,9.23-1.798c1.543-0.157,3.071-0.356,4.603-0.407
				c0.765-0.035,1.525-0.098,2.285-0.11c0.76-0.003,1.518-0.006,2.273-0.009l1.164,0.001l1.104,0.052
				c0.733,0.034,1.466,0.069,2.195,0.103c1.488,0.148,2.994,0.247,4.444,0.464c11.666,1.558,22.093,6.034,30.422,11.81
				c8.329,5.831,14.635,12.864,19.042,19.769c2.217,3.452,3.971,6.877,5.36,10.135c1.379,3.262,2.483,6.332,3.213,9.179
				c1.555,5.672,2.045,10.292,2.236,13.424c0.144,1.567,0.108,2.775,0.142,3.587C431.837,319.497,431.846,319.916,431.846,319.916z
				 M431.846,319.916c0,0-0.013-0.419-0.036-1.231c-0.04-0.811-0.015-2.019-0.171-3.584c-0.217-3.129-0.744-7.741-2.342-13.388
				c-1.58-5.628-4.223-12.35-8.82-19.097c-4.545-6.736-10.921-13.607-19.341-18.995c-4.199-2.687-8.864-5.02-13.903-6.824
				c-5.043-1.797-10.482-2.958-16.113-3.495c-1.408-0.149-2.806-0.176-4.229-0.261c-0.73-0.002-1.463-0.005-2.197-0.008
				l-1.104-0.004l-1.05,0.047c-0.723,0.034-1.448,0.068-2.175,0.103c-0.727,0.043-1.452,0.136-2.181,0.201
				c-1.459,0.11-2.909,0.367-4.37,0.578c-2.905,0.524-5.825,1.156-8.685,2.086c-2.873,0.878-5.702,1.983-8.465,3.274
				c-5.536,2.563-10.771,5.975-15.488,10.069c-2.368,2.039-4.58,4.276-6.674,6.632c-2.085,2.367-3.965,4.923-5.713,7.571
				c-3.43,5.343-6.154,11.184-8,17.32c-0.93,3.068-1.57,6.22-2.059,9.393c-0.198,1.595-0.411,3.195-0.489,4.753
				c-0.155,1.485-0.124,3.349-0.184,4.859c0.029,3.216,0.213,6.432,0.668,9.613c0.489,3.173,1.129,6.326,2.059,9.394
				c1.852,6.134,4.559,11.983,7.993,17.326c6.914,10.665,16.815,19.139,27.881,24.278c1.364,0.688,2.797,1.203,4.188,1.8
				c1.427,0.504,2.83,1.069,4.277,1.478c2.86,0.929,5.781,1.561,8.688,2.085c1.46,0.21,2.919,0.468,4.354,0.576
				c0.725,0.065,1.428,0.157,2.165,0.201c0.743,0.035,1.484,0.069,2.224,0.104c1.416,0.095,2.879,0.017,4.305,0.035
				c1.428-0.083,2.855-0.113,4.262-0.262c5.631-0.538,11.073-1.698,16.115-3.5c5.039-1.806,9.704-4.139,13.903-6.827
				c8.421-5.389,14.794-12.264,19.339-19c4.599-6.748,7.237-13.471,8.818-19.099c1.599-5.646,2.126-10.259,2.342-13.387
				c0.156-1.565,0.131-2.773,0.171-3.584C431.833,320.334,431.846,319.916,431.846,319.916z"/>
		</g>
	</g>
	<path fill-rule="evenodd" clip-rule="evenodd" d="M111.953,365.55c0,0-8.717,69.801,36.819,102.628
		c20.819,1.347,27.249,0.025,30.681-0.127c-23.182-26.901-49.773-69.219-37.779-123.571
		C133.569,349.478,111.953,365.55,111.953,365.55z"/>
	<path fill-rule="evenodd" clip-rule="evenodd" d="M162.505,331.606c-7.377,36.061,4.917,97.535,45.139,132.443
		c18.977-2.694,26.594-6.115,30.026-6.269c-20.037-25.185-53.664-78.677-40.822-135.674
		C187.431,324.757,173.9,327.106,162.505,331.606z"/>
	<path fill-rule="evenodd" clip-rule="evenodd" d="M219.358,319.916c-5.234,27.449,6.965,94.358,45.01,126.653
		c16.862-4.628,25.77-12.661,29.203-12.813c-23.023-25.009-45.898-66.946-36.192-118.756
		C244.58,315.267,232.043,316.865,219.358,319.916z"/>
	<g>
		
			<ellipse transform="matrix(0.9876 -0.1572 0.1572 0.9876 -39.8279 69.6522)" fill-rule="evenodd" clip-rule="evenodd" fill="#FFFFFF" cx="420.477" cy="286.646" rx="21.261" ry="26.184"/>
		<path d="M441.474,283.304c0,0,0.071,0.58,0.204,1.666c0.033,0.271,0.07,0.575,0.111,0.909c0.027,0.335,0.031,0.703,0.051,1.099
			c0.032,0.793,0.086,1.706,0.024,2.728c-0.011,2.047-0.35,4.529-1.071,7.297c-0.75,2.758-2.003,5.805-4.104,8.718
			c-1.018,1.483-2.358,2.82-3.847,4.1c-0.808,0.552-1.563,1.238-2.483,1.696c-0.448,0.246-0.891,0.521-1.361,0.749
			c-0.483,0.201-0.971,0.404-1.462,0.607c-0.485,0.23-1.011,0.346-1.531,0.495l-0.789,0.217l-0.397,0.108l-0.458,0.071
			c-0.51,0.076-1.022,0.153-1.538,0.23c-0.512,0.081-1.142,0.053-1.718,0.079c-2.336,0.015-4.652-0.332-6.888-1.189
			c-2.229-0.817-4.394-1.979-6.305-3.497c-1.929-1.495-3.689-3.268-5.136-5.284c-0.778-0.975-1.38-2.064-2.048-3.123
			c-0.296-0.549-0.562-1.114-0.843-1.673l-0.416-0.842l-0.348-0.872l-0.688-1.75l-0.532-1.804c-0.193-0.599-0.336-1.209-0.451-1.825
			l-0.392-1.943l-0.198-1.74l-0.098-0.87l-0.039-0.968l-0.059-1.947c0.021-0.631,0.07-1.254,0.106-1.88l0.061-0.937l0.134-0.93
			c0.094-0.619,0.173-1.238,0.281-1.852c0.301-1.215,0.539-2.438,0.976-3.606c0.741-2.37,1.874-4.598,3.237-6.623
			c1.347-2.038,3.045-3.814,4.912-5.283c1.843-1.508,3.987-2.571,6.15-3.26c2.144-0.74,4.439-0.934,6.473-0.865
			c0.546,0.042,1.088,0.083,1.626,0.123c0.525,0.071,1.026,0.195,1.531,0.29l0.749,0.153c0.245,0.063,0.483,0.152,0.723,0.227
			c0.477,0.156,0.948,0.312,1.416,0.465c1.812,0.756,3.503,1.612,4.93,2.706c2.901,2.12,5.037,4.629,6.605,7.019
			c1.545,2.408,2.637,4.663,3.282,6.605c0.376,0.953,0.607,1.836,0.822,2.601c0.105,0.383,0.216,0.733,0.293,1.061
			c0.065,0.33,0.124,0.63,0.177,0.898C441.361,282.731,441.474,283.304,441.474,283.304z M441.474,283.304
			c0,0-0.118-0.572-0.34-1.643c-0.056-0.268-0.117-0.567-0.186-0.896c-0.081-0.326-0.194-0.675-0.303-1.057
			c-0.225-0.76-0.455-1.644-0.866-2.58c-0.698-1.915-1.851-4.136-3.508-6.423c-1.661-2.275-3.934-4.596-6.883-6.347
			c-1.445-0.92-3.108-1.574-4.832-2.124c-0.442-0.094-0.889-0.189-1.339-0.285c-0.225-0.045-0.447-0.104-0.675-0.137l-0.691-0.063
			c-0.46-0.036-0.927-0.103-1.385-0.115c-0.451,0.013-0.904,0.026-1.361,0.039c-1.961,0.146-3.822,0.515-5.6,1.346l-0.67,0.282
			c-0.217,0.11-0.425,0.242-0.638,0.361c-0.419,0.254-0.859,0.467-1.263,0.75c-0.395,0.293-0.791,0.589-1.189,0.885
			c-0.405,0.281-0.744,0.662-1.121,0.986c-1.45,1.37-2.74,2.974-3.718,4.797l-0.391,0.667l-0.332,0.705
			c-0.214,0.475-0.463,0.931-0.65,1.419c-0.356,0.987-0.749,1.958-0.999,2.99c-0.329,1.004-0.463,2.068-0.684,3.106
			c-0.076,0.527-0.125,1.061-0.19,1.591l-0.093,0.796l-0.024,0.805l-0.053,1.608l0.062,1.548l0.03,0.78l0.106,0.869l0.21,1.738
			c-0.024-0.182-0.001-0.021-0.004-0.049l0.01,0.05l0.02,0.099l0.04,0.199l0.078,0.397l0.156,0.795
			c0.091,0.533,0.207,1.06,0.371,1.574l0.438,1.555l0.547,1.515l0.272,0.758l0.336,0.728l0.674,1.455
			c0.528,0.921,0.988,1.89,1.612,2.743c0.56,0.902,1.229,1.709,1.877,2.535c0.33,0.406,0.709,0.762,1.06,1.147l0.535,0.568
			l0.576,0.515c1.497,1.431,3.223,2.555,5.028,3.407c0.459,0.192,0.9,0.445,1.373,0.591c0.471,0.158,0.939,0.315,1.406,0.472
			c0.472,0.145,0.957,0.209,1.435,0.321c0.238,0.047,0.48,0.109,0.717,0.146l0.693,0.059c0.476,0.025,0.897,0.124,1.422,0.099
			c0.521-0.022,1.039-0.045,1.554-0.067l0.193-0.008l0.097-0.004l0.048-0.002c0.033-0.002-0.111,0.014-0.029,0.004l0.353-0.06
			l0.704-0.117c0.468-0.082,0.945-0.129,1.39-0.29c0.453-0.134,0.904-0.267,1.352-0.399c0.439-0.157,0.857-0.364,1.285-0.542
			c0.432-0.174,0.851-0.367,1.236-0.615c0.398-0.231,0.793-0.461,1.185-0.689c1.468-1.058,2.846-2.197,3.934-3.521
			c2.261-2.582,3.698-5.495,4.57-8.173c0.865-2.689,1.27-5.159,1.339-7.195c0.101-1.018,0.045-1.929,0.022-2.722
			c-0.016-0.396-0.016-0.763-0.04-1.099c-0.037-0.334-0.071-0.638-0.102-0.91C441.539,283.884,441.474,283.304,441.474,283.304z"/>
	</g>
	
		<ellipse transform="matrix(0.9999 -0.0168 0.0168 0.9999 -4.7864 7.2718)" fill-rule="evenodd" clip-rule="evenodd" cx="430.033" cy="288.264" rx="6.316" ry="9.729"/>
	<g>
		<path fill-rule="evenodd" clip-rule="evenodd" fill="#FFFFFF" d="M243.292,338.216c-13.312-17.395-20.868-89.416-63.839-116.044
			c-19.184-11.888-50.135-11.979-82.369,6.247C15.88,274.334,220.605,335.929,227.468,338.216
			C234.044,338.216,243.292,338.216,243.292,338.216z"/>
		<path d="M243.292,338.216c-2.755-3.562-4.693-7.712-6.466-11.841c-1.753-4.157-3.304-8.389-4.84-12.617
			c-3.065-8.462-5.969-16.96-9.226-25.304c-3.254-8.339-6.729-16.582-10.852-24.462c-2.051-3.943-4.244-7.804-6.623-11.528
			c-2.34-3.752-4.937-7.323-7.702-10.732c-2.737-3.438-5.82-6.555-9.014-9.51l-2.478-2.121c-0.808-0.73-1.721-1.321-2.572-1.993
			c-1.688-1.368-3.553-2.471-5.344-3.681l-2.848-1.571c-1-0.601-1.928-0.916-2.883-1.359c-0.945-0.422-1.882-0.854-2.92-1.175
			c-1.014-0.343-2.016-0.717-3.037-1.038c-4.126-1.176-8.372-1.955-12.676-2.318c-4.308-0.286-8.649-0.317-12.972,0.127
			c-1.08,0.111-2.165,0.159-3.241,0.321l-3.226,0.494l-1.613,0.246l-1.598,0.345l-3.196,0.688
			c-8.498,1.991-16.706,5.235-24.518,9.222c-7.664,3.965-15.553,8.616-19.838,15.323l-0.741,1.263
			c-0.273,0.412-0.395,0.873-0.604,1.304c-0.442,0.862-0.627,1.782-0.906,2.681c-0.345,1.832-0.477,3.705-0.148,5.59
			c0.626,3.77,2.569,7.47,5.083,10.817c5.151,6.694,12.071,12.314,19.28,17.358c7.275,5.018,14.977,9.502,22.845,13.697
			c7.857,4.221,15.91,8.122,24.059,11.822c8.156,3.687,16.382,7.248,24.69,10.622c8.311,3.368,16.673,6.624,25.083,9.768
			c8.42,3.125,16.86,6.156,25.376,9.086l-0.16-0.026L243.292,338.216z M243.292,338.216l-15.824,0.505l-0.062,0.002l-0.099-0.028
			c-8.633-2.457-17.276-5.028-25.832-7.813c-4.284-1.383-8.557-2.801-12.82-4.253c-4.257-1.469-8.498-2.987-12.729-4.537
			c-8.455-3.115-16.878-6.343-25.178-9.891c-8.31-3.524-16.542-7.259-24.628-11.343c-8.085-4.082-15.994-8.574-23.604-13.638
			c-3.79-2.558-7.495-5.278-11.026-8.276c-3.526-2.999-6.894-6.277-9.802-10.08c-0.708-0.968-1.407-1.951-2.064-2.969
			c-0.609-1.062-1.289-2.067-1.792-3.213c-1.146-2.186-1.913-4.648-2.385-7.177c-0.454-2.556-0.325-5.232,0.178-7.803
			c0.353-1.257,0.653-2.543,1.216-3.704c0.271-0.583,0.472-1.215,0.808-1.751l0.955-1.65c0.3-0.569,0.695-1.046,1.06-1.554
			l1.116-1.504c0.827-0.9,1.625-1.849,2.488-2.701c0.892-0.809,1.752-1.674,2.676-2.431c0.938-0.736,1.854-1.494,2.815-2.207
			l2.973-2.042c0.974-0.623,1.928-1.171,2.896-1.756l0.723-0.432l0.181-0.108l0.261-0.143l0.381-0.202l1.524-0.806l3.048-1.611
			c8.207-4.136,16.859-7.51,25.884-9.58c9.008-2.064,18.368-2.999,27.676-2.108c4.65,0.461,9.262,1.375,13.761,2.737
			c1.117,0.367,2.217,0.793,3.325,1.189c1.107,0.364,2.208,0.879,3.307,1.394c1.075,0.516,2.261,0.994,3.182,1.571l3.025,1.735
			c3.912,2.544,7.615,5.388,10.984,8.577c3.321,3.225,6.489,6.605,9.265,10.272c2.806,3.64,5.409,7.422,7.729,11.355
			c1.208,1.94,2.28,3.953,3.382,5.947c1.026,2.031,2.108,4.036,3.054,6.102c3.917,8.203,7.188,16.654,10.112,25.191
			c2.885,8.552,5.488,17.169,8.073,25.771c1.301,4.298,2.635,8.583,4.131,12.807C239.135,330.278,240.77,334.476,243.292,338.216z"
			/>
	</g>
	<path fill-rule="evenodd" clip-rule="evenodd" fill="none" stroke="#000000" stroke-width="3.4311" stroke-miterlimit="10" d="
		M407.718,241.867c10.98-16.066,26.815-17.103,35.375-11.071"/>
	
		<ellipse transform="matrix(0.9308 0.3655 -0.3655 0.9308 117.5422 -148.5167)" fill-rule="evenodd" clip-rule="evenodd" cx="451.056" cy="236.212" rx="8.953" ry="9.292"/>
	<path fill-rule="evenodd" clip-rule="evenodd" fill="none" stroke="#000000" stroke-width="3.4311" stroke-miterlimit="10" d="
		M361.174,243.837c2.288-41.473,30.881-56.342,50.324-51.767"/>
	<circle fill-rule="evenodd" clip-rule="evenodd" cx="427.207" cy="195.502" r="14.976"/>
	<g>
		
			<ellipse transform="matrix(0.9876 -0.1572 0.1572 0.9876 -37.9349 64.206)" fill-rule="evenodd" clip-rule="evenodd" fill="#FFFFFF" cx="387.051" cy="271.992" rx="33.208" ry="40.898"/>
		<path d="M419.847,266.773c0,0,0.109,0.905,0.315,2.602c0.052,0.424,0.108,0.898,0.172,1.419c0.042,0.523,0.048,1.097,0.077,1.716
			c0.049,1.239,0.133,2.664,0.029,4.259c-0.039,0.797-0.038,1.641-0.114,2.52c-0.105,0.877-0.216,1.794-0.331,2.751
			c-0.08,0.963-0.335,1.937-0.522,2.961c-0.103,0.511-0.206,1.032-0.312,1.561c-0.127,0.524-0.296,1.047-0.446,1.585
			c-1.195,4.292-3.188,9.025-6.5,13.511c-1.603,2.285-3.704,4.335-6.023,6.292c-0.62,0.441-1.244,0.887-1.874,1.336
			c-0.319,0.22-0.628,0.462-0.96,0.667l-1.033,0.569c-0.696,0.371-1.383,0.788-2.111,1.129c-0.748,0.301-1.503,0.604-2.262,0.909
			c-0.751,0.345-1.561,0.513-2.365,0.733l-1.215,0.319l-0.612,0.16c0.054-0.004-0.158,0.029-0.163,0.029l-0.075,0.01l-0.149,0.02
			l-0.298,0.041c-0.798,0.109-1.6,0.218-2.406,0.328c-0.388,0.075-0.844,0.063-1.286,0.072l-1.339,0.016l-1.352,0.009
			c-0.443-0.025-0.874-0.089-1.314-0.133c-0.874-0.113-1.771-0.162-2.645-0.338c-0.871-0.203-1.746-0.406-2.625-0.61
			c-0.887-0.191-1.71-0.577-2.576-0.862c-3.4-1.282-6.694-3.089-9.6-5.444c-2.934-2.314-5.609-5.048-7.81-8.152
			c-1.186-1.499-2.099-3.177-3.113-4.804c-0.45-0.843-0.855-1.711-1.284-2.57l-0.634-1.293l-0.529-1.339l-1.047-2.688l-0.812-2.77
			c-0.132-0.463-0.276-0.923-0.397-1.389l-0.292-1.413l-0.578-2.83l-0.327-2.833l-0.154-1.358l-0.06-1.475l-0.093-2.963
			c0.032-0.966,0.104-1.924,0.156-2.884l0.087-1.437l0.201-1.426c0.142-0.95,0.258-1.901,0.422-2.843
			c0.454-1.863,0.806-3.741,1.467-5.535c1.119-3.638,2.826-7.063,4.888-10.18c2.033-3.141,4.605-5.882,7.441-8.157
			c0.734-0.542,1.399-1.16,2.181-1.622c0.772-0.467,1.542-0.932,2.308-1.395c0.776-0.439,1.614-0.763,2.41-1.143
			c0.404-0.178,0.799-0.374,1.206-0.533l1.254-0.399c3.277-1.173,6.778-1.511,9.939-1.445c0.835,0.054,1.665,0.107,2.488,0.16
			c0.808,0.099,1.583,0.282,2.363,0.419l1.158,0.221c0.381,0.092,0.749,0.226,1.12,0.336c0.738,0.232,1.471,0.462,2.197,0.691
			c2.812,1.141,5.447,2.438,7.681,4.113c4.541,3.238,7.902,7.122,10.37,10.831c0.31,0.464,0.633,0.909,0.916,1.368
			c0.265,0.471,0.524,0.933,0.78,1.388c0.497,0.916,1.04,1.762,1.415,2.653c0.406,0.874,0.796,1.712,1.169,2.512
			c0.346,0.812,0.606,1.614,0.891,2.36c0.594,1.485,0.955,2.865,1.293,4.058c0.165,0.598,0.338,1.146,0.46,1.656
			c0.102,0.516,0.194,0.984,0.277,1.403C419.67,265.878,419.847,266.773,419.847,266.773z M419.847,266.773
			c0,0-0.184-0.893-0.527-2.567c-0.086-0.418-0.182-0.886-0.287-1.4c-0.127-0.509-0.304-1.056-0.473-1.651
			c-0.349-1.188-0.708-2.568-1.344-4.034c-1.08-2.996-2.868-6.472-5.436-10.067c-2.576-3.575-6.1-7.237-10.696-10.043
			c-2.254-1.471-4.857-2.532-7.565-3.43c-0.696-0.159-1.398-0.319-2.106-0.48c-0.354-0.075-0.704-0.174-1.063-0.231l-1.091-0.116
			c-0.728-0.067-1.463-0.183-2.192-0.214c-0.721,0.01-1.446,0.02-2.177,0.029c-0.704-0.038-1.51,0.116-2.293,0.215l-1.185,0.162
			l-0.596,0.081c-0.104,0.015,0.058-0.009,0.016,0.001l-0.068,0.019l-0.139,0.038l-0.276,0.075
			c-0.733,0.197-1.473,0.395-2.216,0.594c-0.742,0.192-1.436,0.557-2.158,0.825l-1.076,0.435c-0.349,0.17-0.684,0.375-1.026,0.561
			c-0.674,0.395-1.384,0.726-2.034,1.167c-0.638,0.459-1.278,0.92-1.922,1.384c-0.654,0.443-1.203,1.041-1.812,1.552
			c-2.347,2.159-4.44,4.698-6.04,7.588l-0.636,1.059l-0.542,1.12c-0.349,0.754-0.753,1.48-1.061,2.256
			c-0.585,1.567-1.224,3.115-1.635,4.758c-0.535,1.6-0.764,3.292-1.125,4.949c-0.125,0.84-0.206,1.69-0.314,2.536l-0.153,1.27
			l-0.045,1.283l-0.093,2.563l0.096,2.495c0.019,0.419,0.021,0.826,0.049,1.255l0.165,1.357l0.31,2.599l0.502,2.532l0.248,1.267
			l0.348,1.24l0.702,2.478l0.881,2.412l0.44,1.206l0.541,1.16c0.364,0.771,0.707,1.552,1.085,2.313
			c0.853,1.466,1.599,3.002,2.604,4.358c0.901,1.434,1.982,2.712,3.029,4.019c0.533,0.643,1.144,1.208,1.709,1.816l0.863,0.897
			l0.932,0.812c2.419,2.251,5.199,4.015,8.102,5.339c0.739,0.298,1.447,0.692,2.206,0.915c0.756,0.241,1.509,0.48,2.258,0.719
			c0.756,0.218,1.534,0.312,2.298,0.478c0.382,0.07,0.769,0.161,1.147,0.214l1.121,0.078l1.121,0.085
			c0.376,0.026,0.736,0.081,1.157,0.034c0.812-0.045,1.621-0.091,2.424-0.136l0.511-0.029l0.559-0.103l1.117-0.202
			c0.741-0.141,1.496-0.229,2.197-0.493c0.716-0.223,1.427-0.444,2.133-0.664c0.692-0.26,1.35-0.596,2.022-0.887l1.001-0.45
			c0.323-0.166,0.626-0.369,0.938-0.55c0.623-0.374,1.241-0.745,1.854-1.113c2.296-1.696,4.441-3.513,6.127-5.612
			c3.499-4.097,5.709-8.673,7.047-12.872c1.324-4.215,1.942-8.075,2.04-11.258c0.149-1.591,0.062-3.014,0.024-4.252
			c-0.023-0.619-0.025-1.192-0.063-1.716c-0.06-0.522-0.113-0.996-0.161-1.421C419.949,267.679,419.847,266.773,419.847,266.773z"/>
	</g>
	
		<ellipse transform="matrix(0.9876 -0.1572 0.1572 0.9876 -38.1691 66.0586)" fill-rule="evenodd" clip-rule="evenodd" cx="398.538" cy="274.334" rx="11.294" ry="17.395"/>
	<g>
		<path d="M332.689,314.999c0,0,0.601,1.482,1.652,4.076c0.533,1.286,1.18,2.846,1.921,4.637c0.762,1.776,1.664,3.755,2.667,5.893
			c1.042,2.121,2.191,4.399,3.509,6.741c1.328,2.335,2.805,4.746,4.449,7.145c1.642,2.401,3.472,4.78,5.471,7.061
			c1.994,2.283,4.127,4.507,6.454,6.506c1.123,1.048,2.347,1.972,3.537,2.928c0.601,0.472,1.241,0.886,1.851,1.339
			c0.619,0.441,1.224,0.901,1.872,1.287c1.276,0.807,2.532,1.625,3.839,2.33c1.272,0.765,2.597,1.395,3.898,2.023
			c2.614,1.229,5.224,2.261,7.748,3.133c2.543,0.804,4.977,1.529,7.27,2.049c1.137,0.31,2.248,0.496,3.305,0.699
			c1.057,0.199,2.057,0.438,3.009,0.574c1.905,0.239,3.57,0.564,4.954,0.705c2.766,0.281,4.365,0.496,4.365,0.496
			s-1.585,0.185-4.393,0.413c-1.403,0.108-3.111,0.108-5.08,0.13c-0.984,0.006-2.027-0.083-3.134-0.125
			c-1.107-0.049-2.27-0.132-3.474-0.305c-1.204-0.17-2.479-0.261-3.77-0.518c-1.291-0.258-2.636-0.497-3.998-0.837
			c-1.351-0.38-2.765-0.699-4.17-1.163c-0.703-0.231-1.411-0.476-2.122-0.732c-0.356-0.127-0.715-0.254-1.075-0.382l-1.059-0.45
			c-1.422-0.599-2.871-1.204-4.277-1.951c-0.705-0.367-1.439-0.692-2.134-1.102c-0.691-0.413-1.387-0.827-2.084-1.243
			c-0.709-0.4-1.374-0.875-2.052-1.333c-0.673-0.466-1.366-0.91-2.017-1.414c-1.293-1.017-2.621-2.004-3.837-3.123
			c-1.258-1.072-2.407-2.256-3.575-3.411c-0.575-0.586-1.109-1.208-1.657-1.812c-0.555-0.6-1.08-1.22-1.582-1.855
			c-2.091-2.475-3.842-5.14-5.459-7.738c-1.64-2.592-2.933-5.257-4.109-7.786c-1.191-2.525-2.093-5.005-2.895-7.29
			c-1.57-4.587-2.479-8.509-3.033-11.258c-0.292-1.372-0.462-2.462-0.599-3.2C332.755,315.395,332.689,314.999,332.689,314.999z"/>
	</g>
	<g>
		<path fill-rule="evenodd" clip-rule="evenodd" fill="#FFFFFF" d="M152.166,284.998c10.177,1.991,54.124,28.087,54.124,28.087"/>
		<path d="M152.166,284.998c0,0,0.243,0.017,0.697,0.048c0.45,0.055,1.123,0.059,1.955,0.209c0.83,0.175,1.868,0.372,3.044,0.68
			c1.135,0.328,2.426,0.692,3.812,1.148c1.365,0.484,2.849,1.016,4.394,1.625c1.529,0.631,3.149,1.295,4.789,2.043
			c1.635,0.753,3.33,1.533,5.011,2.39c1.687,0.847,3.391,1.732,5.073,2.647c3.362,1.84,6.665,3.781,9.697,5.707
			c3.038,1.917,5.804,3.821,8.132,5.525c2.323,1.71,4.211,3.213,5.509,4.304c1.3,1.086,2.01,1.761,2.01,1.761
			s-0.932-0.299-2.513-0.903c-1.585-0.597-3.817-1.502-6.455-2.653c-2.633-1.157-5.66-2.581-8.861-4.172
			c-1.597-0.804-3.248-1.629-4.903-2.507c-1.652-0.882-3.33-1.778-5.008-2.673c-1.661-0.925-3.321-1.85-4.956-2.76
			c-1.627-0.924-3.229-1.824-4.761-2.735c-1.539-0.896-3.024-1.759-4.422-2.61c-1.403-0.831-2.729-1.615-3.945-2.37
			c-1.226-0.714-2.342-1.396-3.335-2.009c-0.989-0.542-1.85-1.058-2.578-1.484c-0.76-0.382-1.356-0.682-1.763-0.886
			C152.383,285.111,152.166,284.998,152.166,284.998z"/>
	</g>
	<g>
		<line fill-rule="evenodd" clip-rule="evenodd" fill="#FFFFFF" x1="183.361" y1="270.125" x2="213.653" y2="309.738"/>
		<path d="M183.361,270.125c0,0,0.646,0.487,1.694,1.402c1.055,0.91,2.51,2.25,4.184,3.912c1.668,1.667,3.542,3.667,5.462,5.877
			c0.962,1.104,1.939,2.257,2.904,3.45c0.976,1.185,1.929,2.418,2.887,3.647c0.936,1.246,1.879,2.487,2.766,3.74
			c0.903,1.241,1.755,2.489,2.571,3.704c1.63,2.432,3.07,4.764,4.241,6.811c1.174,2.045,2.077,3.807,2.675,5.065
			c0.607,1.253,0.907,2.004,0.907,2.004s-0.646-0.486-1.697-1.4c-1.058-0.907-2.521-2.241-4.188-3.909
			c-1.668-1.667-3.542-3.667-5.461-5.878c-0.958-1.106-1.941-2.255-2.902-3.452c-0.976-1.185-1.926-2.42-2.884-3.649
			c-0.936-1.247-1.876-2.489-2.763-3.742c-0.898-1.244-1.756-2.489-2.569-3.707c-1.629-2.432-3.069-4.765-4.241-6.811
			c-1.166-2.051-2.076-3.807-2.679-5.063C183.663,270.876,183.361,270.125,183.361,270.125z"/>
	</g>
	<path fill-rule="evenodd" clip-rule="evenodd" fill="#FFFFFF" stroke="#000000" stroke-width="6" stroke-miterlimit="10" d="
		M279.451,435.166c6.667,7.333,28.667,29.101,44.667,28.884"/>
	<text transform="matrix(1 0 0 1 301.7852 556.166)" font-family="'OpenDyslexicAlta-Regular'" font-size="173">01</text>
</g>
<g id="Calque_2">
</g>
</svg>
