<?xml version="1.0" encoding="utf-8"?>
<!-- Generator: Adobe Illustrator 16.0.0, SVG Export Plug-In . SVG Version: 6.00 Build 0)  -->
<!DOCTYPE svg PUBLIC "-//W3C//DTD SVG 1.1//EN" "http://www.w3.org/Graphics/SVG/1.1/DTD/svg11.dtd">
<svg version="1.1" id="Calque_1" xmlns="http://www.w3.org/2000/svg" xmlns:xlink="http://www.w3.org/1999/xlink" x="0px" y="0px"
	 width="595.28px" height="841.89px" viewBox="0 0 595.28 841.89" enable-background="new 0 0 595.28 841.89" xml:space="preserve">
<g>
	<path fill-rule="evenodd" clip-rule="evenodd" fill="#FFFFFF" d="M209.125,349.455c5.273-15.385-30.381-108.016-6.401-136.891
		c10.706-12.893,32.476-20.25,59.467-15.014c67.996,13.19-37.632,144.946-41.923,148.175
		C215.637,347.276,209.125,349.455,209.125,349.455z"/>
	<g>
		<path d="M209.125,349.455c0.523-1.934,0.42-3.945,0.282-5.915c-0.162-1.976-0.456-3.941-0.793-5.897
			c-0.668-3.914-1.504-7.801-2.388-11.68l-5.484-23.267c-1.81-7.771-3.486-15.585-4.959-23.458
			c-1.482-7.871-2.644-15.824-3.33-23.867c-0.335-4.022-0.553-8.067-0.541-12.139c0.005-4.07,0.212-8.167,0.826-12.264
			c0.593-4.09,1.553-8.199,3.186-12.161c0.803-1.982,1.809-3.917,3.028-5.742c0.292-0.463,0.608-0.914,0.952-1.348l0.502-0.659
			c0.101-0.126,0.13-0.183,0.29-0.366l0.243-0.284c0.602-0.727,1.385-1.581,2.148-2.357c6.042-6.113,13.798-10.071,21.791-12.393
			c8.03-2.324,16.394-3.069,24.622-2.667c4.12,0.186,8.211,0.69,12.246,1.443l0.757,0.139l0.79,0.161
			c0.501,0.113,0.941,0.189,1.497,0.335c1.081,0.261,2.104,0.548,3.127,0.878c2.047,0.662,4.068,1.499,6.004,2.56
			c3.873,2.087,7.385,5.238,9.716,9.118c2.37,3.867,3.553,8.252,3.979,12.522c0.434,4.29,0.136,8.52-0.502,12.622
			c-0.643,4.106-1.641,8.1-2.835,12.005c-2.41,7.805-5.561,15.277-9.102,22.515c-3.561,7.23-7.485,14.245-11.63,21.108
			c-4.13,6.874-8.564,13.546-13.126,20.116c-4.557,6.575-9.315,13.001-14.242,19.293c-2.465,3.144-4.948,6.274-7.519,9.333
			c-1.284,1.531-2.58,3.052-3.899,4.556l-2.002,2.238c-0.705,0.747-1.305,1.455-2.185,2.197l-0.062,0.052l-0.082,0.023
			L209.125,349.455z M209.125,349.455l10.982-4.209l-0.144,0.075c0.608-0.584,1.278-1.423,1.891-2.167l1.846-2.333
			c1.217-1.569,2.412-3.158,3.595-4.756c2.357-3.201,4.702-6.412,6.985-9.667c4.564-6.51,8.99-13.113,13.278-19.794
			c4.284-6.686,8.354-13.498,12.274-20.379c3.9-6.892,7.566-13.907,10.845-21.072c3.282-7.156,6.252-14.452,8.403-21.923
			c2.133-7.437,3.515-15.166,2.793-22.489c-0.385-3.638-1.389-7.125-3.215-10.061c-1.804-2.948-4.433-5.309-7.568-6.986
			c-1.563-0.845-3.241-1.534-4.987-2.087c-0.874-0.276-1.771-0.521-2.628-0.724c-0.407-0.111-0.949-0.207-1.42-0.31l-0.675-0.134
			l-0.713-0.126c-3.803-0.668-7.633-1.18-11.474-1.372c-7.671-0.42-15.402,0.243-22.706,2.313
			c-7.274,2.074-14.162,5.599-19.469,10.751c-0.642,0.636-1.225,1.233-1.91,2.027l-0.247,0.28c-0.008,0.002-0.12,0.151-0.175,0.219
			l-0.411,0.523c-0.283,0.341-0.545,0.701-0.789,1.078c-1.019,1.469-1.896,3.071-2.615,4.77c-1.466,3.385-2.416,7.079-3.025,10.856
			c-1.197,7.575-1.28,15.452-0.839,23.295c0.433,7.857,1.413,15.715,2.536,23.562c1.138,7.849,2.547,15.673,3.982,23.503
			c1.41,7.836,2.968,15.656,4.271,23.536c0.646,3.94,1.266,7.891,1.678,11.872c0.196,1.991,0.348,3.99,0.366,5.995
			C209.837,345.513,209.79,347.563,209.125,349.455z"/>
	</g>
</g>
<ellipse transform="matrix(0.9629 -0.2699 0.2699 0.9629 -100.1587 69.1316)" fill-rule="evenodd" clip-rule="evenodd" fill="#FFBF0F" stroke="#000000" stroke-width="6" stroke-miterlimit="10" cx="201.263" cy="398.714" rx="128.419" ry="70.91"/>
<g>
	<circle fill-rule="evenodd" clip-rule="evenodd" fill="#FFBF0F" cx="353.271" cy="327.04" r="68.323"/>
	<g>
		<path d="M421.594,327.04c0,0-0.009,0.419-0.026,1.231c-0.033,0.811,0.002,2.019-0.141,3.586c-0.19,3.134-0.68,7.753-2.234,13.426
			c-0.729,2.848-1.833,5.918-3.212,9.18c-1.392,3.257-3.142,6.685-5.357,10.138c-4.402,6.91-10.71,13.942-19.037,19.783
			c-8.326,5.786-18.756,10.269-30.429,11.839c-1.453,0.218-2.932,0.317-4.415,0.467c-1.495,0.048-2.971,0.193-4.515,0.162
			c-0.74-0.002-1.481-0.004-2.226-0.006c-0.75-0.011-1.533-0.073-2.303-0.108c-1.559-0.051-3.079-0.25-4.625-0.405
			c-3.072-0.413-6.178-0.946-9.241-1.792c-1.548-0.367-3.057-0.894-4.593-1.365c-0.759-0.261-1.509-0.553-2.266-0.833
			c-0.761-0.271-1.511-0.573-2.251-0.905c-5.982-2.507-11.707-5.935-16.931-10.141c-5.21-4.228-9.848-9.293-13.729-14.958
			c-1.948-2.83-3.649-5.842-5.191-8.943c-1.513-3.119-2.731-6.384-3.784-9.704c-1.038-3.328-1.768-6.751-2.325-10.201
			c-0.232-1.732-0.475-3.465-0.58-5.211c-0.073-0.872-0.148-1.744-0.157-2.618l-0.075-2.699c0.039-13.838,4.277-27.95,12.1-39.232
			c3.881-5.668,8.527-10.728,13.729-14.965c5.226-4.206,10.952-7.634,16.937-10.141c0.74-0.331,1.49-0.634,2.252-0.904l2.266-0.836
			c1.536-0.471,3.045-0.997,4.593-1.364c3.064-0.845,6.171-1.378,9.245-1.791c1.545-0.155,3.074-0.354,4.607-0.403
			c0.766-0.035,1.527-0.096,2.288-0.108c0.761-0.002,1.52-0.005,2.275-0.007l1.167,0.002l1.104,0.053
			c0.734,0.035,1.466,0.07,2.195,0.105c1.489,0.15,2.999,0.25,4.449,0.469c11.676,1.572,22.104,6.061,30.432,11.847
			c8.327,5.842,14.632,12.879,19.035,19.788c2.215,3.454,3.967,6.881,5.355,10.14c1.378,3.262,2.483,6.332,3.211,9.18
			c1.555,5.672,2.044,10.292,2.234,13.425c0.143,1.567,0.107,2.775,0.142,3.586C421.585,326.621,421.594,327.04,421.594,327.04z
			 M421.594,327.04c0,0-0.013-0.419-0.036-1.231c-0.04-0.811-0.016-2.019-0.172-3.584c-0.217-3.129-0.745-7.741-2.345-13.387
			c-1.581-5.627-4.224-12.348-8.826-19.092c-4.548-6.732-10.926-13.6-19.348-18.976c-4.2-2.682-8.864-5.009-13.902-6.808
			c-5.041-1.791-10.479-2.945-16.104-3.475c-1.408-0.147-2.803-0.173-4.224-0.255c-0.73-0.002-1.463-0.004-2.198-0.006l-1.104-0.002
			l-1.047,0.048c-0.722,0.035-1.446,0.07-2.173,0.105c-0.725,0.043-1.449,0.137-2.177,0.203c-1.457,0.111-2.905,0.37-4.364,0.582
			c-2.901,0.526-5.816,1.161-8.672,2.093c-2.868,0.88-5.691,1.987-8.449,3.279c-5.525,2.565-10.748,5.976-15.454,10.067
			c-2.362,2.038-4.568,4.272-6.656,6.625c-2.08,2.363-3.955,4.916-5.698,7.56c-3.418,5.335-6.135,11.165-7.976,17.289
			c-0.927,3.061-1.566,6.207-2.053,9.373c-0.456,3.224-0.625,6.207-0.671,9.668l0.052,2.331c0,0.803,0.063,1.603,0.124,2.402
			c0.081,1.604,0.293,3.193,0.49,4.784c0.487,3.167,1.125,6.312,2.053,9.374c1.847,6.122,4.546,11.96,7.97,17.294
			c6.895,10.647,16.77,19.117,27.813,24.259c1.361,0.688,2.791,1.203,4.181,1.801c1.425,0.505,2.825,1.071,4.27,1.48
			c2.855,0.931,5.771,1.566,8.674,2.092c1.458,0.212,2.916,0.47,4.349,0.58c0.723,0.065,1.425,0.159,2.162,0.203
			c0.743,0.036,1.484,0.071,2.223,0.106c1.413,0.097,2.876,0.021,4.3,0.041c1.427-0.082,2.853-0.11,4.259-0.258
			c5.626-0.531,11.065-1.684,16.105-3.479c5.038-1.799,9.703-4.127,13.903-6.81c8.423-5.377,14.797-12.249,19.346-18.98
			c4.603-6.744,7.242-13.466,8.825-19.093c1.599-5.646,2.127-10.258,2.344-13.386c0.156-1.565,0.132-2.773,0.172-3.584
			C421.581,327.459,421.594,327.04,421.594,327.04z"/>
	</g>
</g>
<path fill-rule="evenodd" clip-rule="evenodd" d="M101.701,372.675c0,0-8.717,69.801,36.819,102.628
	c20.819,1.347,27.249,0.025,30.681-0.127c-23.182-26.901-49.773-69.219-37.779-123.571
	C123.317,356.603,101.701,372.675,101.701,372.675z"/>
<path fill-rule="evenodd" clip-rule="evenodd" d="M152.253,338.73c-7.378,36.061,4.917,97.535,45.14,132.443
	c18.977-2.694,26.594-6.115,30.025-6.269c-20.037-25.185-53.664-78.677-40.822-135.674
	C177.18,331.882,163.648,334.23,152.253,338.73z"/>
<path fill-rule="evenodd" clip-rule="evenodd" d="M209.106,327.04c-5.234,27.449,6.966,94.357,45.01,126.652
	c16.862-4.628,25.77-12.661,29.203-12.813c-23.023-25.009-45.898-66.946-36.192-118.756
	C234.328,322.392,221.791,323.989,209.106,327.04z"/>
<g>
	
		<ellipse transform="matrix(0.9876 -0.1572 0.1572 0.9876 -41.0751 68.1294)" fill-rule="evenodd" clip-rule="evenodd" fill="#FFFFFF" cx="410.225" cy="293.771" rx="21.261" ry="26.184"/>
	<g>
		<path d="M431.222,290.429c0,0,0.071,0.579,0.206,1.666c0.033,0.271,0.071,0.575,0.112,0.908c0.027,0.335,0.032,0.703,0.052,1.1
			c0.034,0.793,0.087,1.706,0.03,2.728c-0.004,2.048-0.336,4.532-1.041,7.309c-0.737,2.765-1.963,5.834-4.059,8.774
			c-1.019,1.491-2.338,2.865-3.827,4.173c-0.809,0.567-1.566,1.268-2.49,1.742c-0.451,0.254-0.896,0.538-1.37,0.772
			c-0.488,0.209-0.98,0.42-1.476,0.632c-0.49,0.238-1.021,0.361-1.548,0.518l-0.798,0.228l-0.403,0.114l-0.475,0.078
			c-0.51,0.083-1.021,0.166-1.537,0.249c-0.511,0.087-1.163,0.067-1.751,0.099l-0.913,0.023c-0.297-0.011-0.582-0.045-0.876-0.068
			c-0.582-0.062-1.18-0.083-1.764-0.188c-0.583-0.122-1.168-0.245-1.756-0.368c-0.594-0.116-1.146-0.358-1.727-0.537
			c-2.286-0.8-4.501-1.971-6.453-3.509c-1.971-1.512-3.778-3.303-5.259-5.347c-0.796-0.988-1.414-2.092-2.098-3.167
			c-0.303-0.557-0.575-1.13-0.862-1.698l-0.426-0.855l-0.356-0.885l-0.704-1.778l-0.543-1.833c-0.196-0.608-0.342-1.229-0.46-1.854
			l-0.193-0.936l-0.097-0.468l-0.048-0.234l-0.023-0.117l-0.013-0.059c-0.011-0.074,0.009,0.083-0.028-0.181l-0.196-1.74
			l-0.097-0.87l-0.04-0.99l-0.059-1.993c0.021-0.642,0.075-1.275,0.113-1.911l0.064-0.952l0.139-0.945
			c0.097-0.629,0.179-1.259,0.292-1.883c0.31-1.235,0.56-2.476,1.009-3.664c0.765-2.407,1.937-4.667,3.335-6.721
			c1.382-2.067,3.121-3.873,5.048-5.343c1.898-1.512,4.092-2.578,6.301-3.254c2.187-0.729,4.532-0.903,6.573-0.809
			c0.556,0.048,1.108,0.095,1.657,0.142c0.533,0.078,1.037,0.208,1.548,0.311l0.756,0.163c0.247,0.066,0.487,0.159,0.729,0.237
			c0.479,0.164,0.953,0.325,1.425,0.486c1.822,0.784,3.504,1.679,4.934,2.784c2.906,2.146,5.021,4.685,6.58,7.085
			c1.532,2.422,2.617,4.681,3.257,6.626c0.371,0.955,0.603,1.838,0.817,2.603c0.104,0.383,0.214,0.734,0.291,1.061
			c0.064,0.331,0.123,0.63,0.176,0.899C431.11,289.856,431.222,290.429,431.222,290.429z M431.222,290.429
			c0,0-0.119-0.571-0.342-1.643c-0.056-0.268-0.118-0.567-0.187-0.896c-0.081-0.326-0.195-0.675-0.305-1.056
			c-0.226-0.76-0.455-1.644-0.871-2.578c-0.704-1.912-1.862-4.129-3.533-6.402c-1.671-2.263-3.963-4.556-6.908-6.28
			c-1.443-0.909-3.114-1.524-4.827-2.046c-0.439-0.087-0.883-0.176-1.33-0.265c-0.223-0.041-0.443-0.097-0.669-0.126l-0.685-0.053
			c-0.455-0.029-0.918-0.089-1.369-0.095c-0.44,0.019-0.884,0.039-1.33,0.058c-1.952,0.17-3.764,0.559-5.498,1.4l-0.653,0.286
			c-0.211,0.111-0.413,0.244-0.62,0.365c-0.406,0.255-0.835,0.469-1.226,0.752c-0.382,0.293-0.766,0.588-1.151,0.884
			c-0.393,0.281-0.718,0.662-1.081,0.984c-1.392,1.369-2.639,2.944-3.582,4.738l-0.377,0.655l-0.319,0.695
			c-0.204,0.467-0.444,0.915-0.624,1.395c-0.338,0.972-0.715,1.925-0.954,2.938c-0.317,0.985-0.438,2.031-0.65,3.049
			c-0.072,0.518-0.117,1.041-0.179,1.561l-0.089,0.781l-0.021,0.79l-0.047,1.576l0.062,1.502l0.028,0.758l0.107,0.869l0.212,1.738
			c-0.03-0.228-0.003-0.035-0.007-0.073l0.01,0.049l0.02,0.097l0.038,0.195l0.076,0.39l0.152,0.78
			c0.089,0.524,0.202,1.041,0.362,1.545l0.427,1.526l0.53,1.488l0.264,0.745l0.327,0.715l0.653,1.429
			c0.513,0.905,0.957,1.86,1.563,2.699c0.542,0.889,1.19,1.684,1.817,2.5c0.32,0.401,0.688,0.752,1.027,1.133l0.519,0.562
			l0.561,0.508c1.457,1.411,3.131,2.525,4.881,3.395c0.446,0.195,0.875,0.452,1.334,0.602c0.459,0.161,0.916,0.322,1.371,0.482
			c0.46,0.149,0.934,0.218,1.4,0.335c0.232,0.05,0.471,0.114,0.7,0.154l0.671,0.067c0.464,0.031,0.861,0.138,1.388,0.119
			c0.521-0.016,1.04-0.032,1.556-0.048l0.193-0.006l0.097-0.003l0.048-0.001c0.037-0.002-0.144,0.019-0.047,0.006l0.348-0.054
			l0.694-0.105c0.462-0.074,0.934-0.113,1.373-0.266c0.449-0.126,0.896-0.251,1.339-0.375c0.437-0.149,0.851-0.348,1.276-0.518
			c0.429-0.166,0.847-0.351,1.231-0.592c0.397-0.224,0.792-0.446,1.183-0.666c1.467-1.029,2.865-2.132,3.953-3.447
			c2.265-2.555,3.73-5.447,4.614-8.118c0.883-2.68,1.294-5.148,1.37-7.184c0.105-1.018,0.049-1.928,0.027-2.721
			c-0.014-0.396-0.015-0.764-0.038-1.099c-0.037-0.334-0.07-0.638-0.101-0.91C431.286,291.009,431.222,290.429,431.222,290.429z"/>
	</g>
</g>
<ellipse transform="matrix(0.9999 -0.0169 0.0169 0.9999 -4.9188 7.1168)" fill-rule="evenodd" clip-rule="evenodd" cx="419.781" cy="295.389" rx="6.316" ry="9.729"/>
<g>
	<path fill-rule="evenodd" clip-rule="evenodd" fill="#FFFFFF" d="M233.04,345.341c-13.312-17.396-20.868-89.416-63.839-116.044
		c-19.184-11.889-50.135-11.979-82.369,6.246c-81.204,45.915,123.521,107.51,130.384,109.798
		C223.792,345.341,233.04,345.341,233.04,345.341z"/>
	<g>
		<path d="M233.04,345.341c-2.755-3.562-4.693-7.712-6.466-11.842c-1.753-4.156-3.304-8.388-4.84-12.617
			c-3.065-8.462-5.969-16.96-9.226-25.304c-3.254-8.339-6.729-16.582-10.851-24.463c-2.051-3.943-4.244-7.803-6.623-11.528
			c-2.34-3.752-4.937-7.323-7.702-10.732c-2.737-3.439-5.82-6.555-9.014-9.51l-2.479-2.121c-0.807-0.73-1.72-1.322-2.571-1.993
			c-1.688-1.368-3.553-2.471-5.344-3.681l-2.848-1.571c-1-0.601-1.929-0.916-2.883-1.36c-0.945-0.422-1.882-0.854-2.92-1.175
			c-1.014-0.343-2.016-0.717-3.037-1.037c-4.126-1.176-8.372-1.956-12.676-2.318c-4.308-0.286-8.649-0.318-12.972,0.127
			c-1.08,0.111-2.165,0.159-3.241,0.321l-3.226,0.494l-1.613,0.246l-1.598,0.345l-3.196,0.688
			c-8.498,1.99-16.707,5.235-24.518,9.222c-7.664,3.964-15.553,8.615-19.838,15.323l-0.741,1.262
			c-0.273,0.412-0.395,0.873-0.605,1.304c-0.442,0.862-0.627,1.782-0.906,2.68c-0.345,1.832-0.477,3.705-0.148,5.59
			c0.626,3.769,2.569,7.47,5.083,10.817c5.151,6.694,12.071,12.314,19.28,17.358c7.275,5.019,14.978,9.503,22.845,13.697
			c7.857,4.22,15.91,8.122,24.06,11.822c8.156,3.687,16.382,7.248,24.69,10.622c8.311,3.368,16.673,6.624,25.083,9.768
			c8.42,3.125,16.86,6.156,25.376,9.087l-0.16-0.026L233.04,345.341z M233.04,345.341l-15.824,0.505l-0.062,0.002l-0.099-0.028
			c-8.633-2.457-17.276-5.028-25.832-7.813c-4.284-1.383-8.557-2.801-12.82-4.254c-4.257-1.468-8.498-2.987-12.729-4.537
			c-8.455-3.115-16.878-6.343-25.178-9.892c-8.309-3.524-16.542-7.259-24.628-11.343c-8.085-4.082-15.994-8.574-23.604-13.638
			c-3.79-2.558-7.495-5.279-11.026-8.277c-3.526-2.999-6.894-6.277-9.801-10.08c-0.708-0.968-1.407-1.951-2.064-2.968
			c-0.609-1.062-1.289-2.067-1.792-3.213c-1.146-2.186-1.913-4.648-2.385-7.177c-0.454-2.556-0.325-5.232,0.178-7.803
			c0.352-1.257,0.653-2.543,1.216-3.705c0.271-0.582,0.472-1.214,0.808-1.751l0.954-1.65c0.3-0.568,0.696-1.046,1.06-1.554
			l1.116-1.503c0.827-0.901,1.625-1.849,2.488-2.702c0.892-0.809,1.752-1.674,2.676-2.43c0.938-0.736,1.854-1.495,2.814-2.207
			l2.974-2.042c0.974-0.624,1.928-1.171,2.896-1.756l0.723-0.433l0.181-0.108l0.262-0.143l0.381-0.202l1.524-0.806l3.048-1.611
			c8.207-4.136,16.859-7.51,25.884-9.58c9.008-2.064,18.368-2.999,27.676-2.108c4.65,0.461,9.262,1.375,13.761,2.736
			c1.117,0.367,2.217,0.793,3.325,1.189c1.107,0.364,2.208,0.88,3.307,1.394c1.075,0.516,2.261,0.994,3.182,1.57l3.025,1.736
			c3.912,2.544,7.615,5.388,10.984,8.577c3.321,3.225,6.489,6.605,9.265,10.272c2.806,3.64,5.409,7.422,7.729,11.355
			c1.208,1.94,2.28,3.953,3.382,5.947c1.026,2.032,2.108,4.037,3.054,6.102c3.917,8.203,7.188,16.654,10.112,25.191
			c2.886,8.552,5.488,17.169,8.073,25.771c1.301,4.298,2.635,8.583,4.131,12.807C228.884,337.403,230.518,341.601,233.04,345.341z"
			/>
	</g>
</g>
<path fill-rule="evenodd" clip-rule="evenodd" fill="none" stroke="#000000" stroke-width="3.4311" stroke-miterlimit="10" d="
	M397.466,248.991c10.98-16.065,26.815-17.103,35.375-11.071"/>
<ellipse transform="matrix(0.9308 0.3655 -0.3655 0.9308 119.4367 -144.2767)" fill-rule="evenodd" clip-rule="evenodd" cx="440.804" cy="243.336" rx="8.953" ry="9.292"/>
<path fill-rule="evenodd" clip-rule="evenodd" fill="none" stroke="#000000" stroke-width="3.4311" stroke-miterlimit="10" d="
	M350.922,250.961c2.288-41.473,30.881-56.342,50.324-51.766"/>
<circle fill-rule="evenodd" clip-rule="evenodd" cx="416.955" cy="202.626" r="14.976"/>
<g>
	
		<ellipse transform="matrix(0.9876 -0.1572 0.1572 0.9876 -39.1819 62.6834)" fill-rule="evenodd" clip-rule="evenodd" fill="#FFFFFF" cx="376.799" cy="279.116" rx="33.208" ry="40.898"/>
	<g>
		<path d="M409.595,273.897c0,0,0.11,0.905,0.315,2.602c0.052,0.424,0.109,0.898,0.173,1.419c0.042,0.523,0.048,1.098,0.077,1.717
			c0.05,1.239,0.134,2.664,0.031,4.259c-0.039,0.797-0.037,1.641-0.113,2.52c-0.105,0.877-0.215,1.794-0.33,2.751
			c-0.079,0.963-0.334,1.937-0.521,2.962c-0.102,0.511-0.205,1.032-0.31,1.562c-0.126,0.524-0.296,1.047-0.445,1.585
			c-1.191,4.294-3.179,9.031-6.486,13.526c-1.601,2.29-3.701,4.345-6.021,6.308c-0.62,0.443-1.245,0.891-1.875,1.342
			c-0.318,0.221-0.628,0.463-0.96,0.67l-1.033,0.572c-0.698,0.373-1.385,0.792-2.114,1.135c-0.749,0.303-1.505,0.608-2.265,0.915
			c-0.752,0.347-1.563,0.517-2.369,0.739l-1.218,0.322l-0.613,0.161l-0.69,0.101c-0.797,0.11-1.599,0.221-2.405,0.333
			c-0.387,0.076-0.846,0.064-1.289,0.075l-1.344,0.019l-1.358,0.011c-0.444-0.025-0.877-0.087-1.318-0.131
			c-0.877-0.112-1.776-0.159-2.653-0.334c-0.874-0.202-1.752-0.404-2.634-0.607c-0.89-0.19-1.716-0.576-2.585-0.861
			c-3.412-1.281-6.72-3.089-9.637-5.447c-2.945-2.317-5.632-5.057-7.841-8.167c-1.19-1.501-2.106-3.184-3.126-4.814
			c-0.452-0.845-0.858-1.716-1.289-2.577l-0.637-1.296l-0.53-1.342l-1.051-2.695l-0.815-2.777c-0.133-0.464-0.277-0.925-0.398-1.392
			l-0.293-1.417l-0.598-2.959l-0.311-2.717l-0.154-1.358l-0.06-1.48l-0.092-2.975c0.031-0.969,0.104-1.929,0.157-2.891l0.088-1.441
			l0.203-1.43c0.142-0.952,0.259-1.906,0.425-2.85c0.455-1.869,0.81-3.751,1.474-5.549c1.125-3.647,2.842-7.081,4.914-10.204
			c2.043-3.147,4.627-5.894,7.475-8.171c0.738-0.542,1.406-1.162,2.19-1.624c0.775-0.467,1.548-0.932,2.317-1.395
			c0.779-0.439,1.62-0.763,2.419-1.142c0.406-0.178,0.802-0.373,1.211-0.532l1.258-0.398c3.288-1.17,6.802-1.503,9.965-1.431
			c0.838,0.056,1.67,0.11,2.496,0.165c0.81,0.101,1.586,0.286,2.367,0.424l1.161,0.224c0.38,0.093,0.749,0.228,1.121,0.339
			c0.738,0.234,1.472,0.466,2.198,0.696c2.816,1.146,5.451,2.45,7.684,4.13c4.54,3.249,7.897,7.138,10.362,10.851
			c0.31,0.465,0.633,0.91,0.915,1.369c0.265,0.471,0.524,0.934,0.779,1.389c0.496,0.916,1.038,1.764,1.413,2.654
			c0.406,0.874,0.795,1.712,1.167,2.513c0.346,0.812,0.606,1.615,0.891,2.361c0.592,1.485,0.954,2.865,1.291,4.058
			c0.165,0.597,0.338,1.145,0.46,1.656c0.102,0.516,0.194,0.984,0.276,1.403C409.418,273.003,409.595,273.897,409.595,273.897z
			 M409.595,273.897c0,0-0.184-0.893-0.528-2.567c-0.086-0.418-0.182-0.885-0.287-1.4c-0.127-0.509-0.303-1.055-0.473-1.651
			c-0.35-1.188-0.709-2.568-1.346-4.034c-1.081-2.995-2.87-6.47-5.441-10.062c-2.579-3.572-6.105-7.229-10.704-10.024
			c-2.255-1.466-4.856-2.521-7.562-3.413c-0.696-0.157-1.397-0.315-2.104-0.475c-0.354-0.074-0.703-0.172-1.062-0.229l-1.09-0.113
			c-0.726-0.065-1.46-0.18-2.188-0.209c-0.718,0.011-1.441,0.023-2.17,0.034c-0.699-0.037-1.506,0.118-2.289,0.22l-1.185,0.164
			l-0.595,0.082c-0.107,0.015,0.062-0.009,0.02,0.001l-0.068,0.019l-0.138,0.038l-0.275,0.075c-0.732,0.198-1.468,0.396-2.209,0.597
			c-0.739,0.192-1.43,0.559-2.15,0.827l-1.072,0.435c-0.347,0.17-0.68,0.376-1.021,0.562c-0.671,0.395-1.377,0.726-2.024,1.168
			c-0.635,0.459-1.272,0.92-1.912,1.384c-0.652,0.442-1.197,1.04-1.804,1.55c-2.335,2.156-4.417,4.689-6.005,7.574l-0.633,1.056
			l-0.538,1.117c-0.347,0.752-0.749,1.477-1.055,2.25c-0.581,1.563-1.216,3.107-1.623,4.745c-0.533,1.596-0.758,3.283-1.117,4.935
			c-0.124,0.838-0.204,1.686-0.312,2.528l-0.152,1.266l-0.044,1.279l-0.091,2.556l0.096,2.483c0.018,0.417,0.021,0.821,0.048,1.25
			l0.165,1.357l0.327,2.715c-0.029-0.218,0.001-0.015-0.002-0.043l0.017,0.079l0.031,0.158l0.062,0.315l0.125,0.631l0.249,1.262
			l0.247,1.263c0.104,0.415,0.232,0.824,0.347,1.236l0.699,2.47l0.877,2.406l0.438,1.202l0.538,1.156
			c0.363,0.768,0.704,1.548,1.08,2.308c0.849,1.461,1.591,2.994,2.592,4.347c0.897,1.43,1.974,2.706,3.015,4.01
			c0.531,0.641,1.139,1.205,1.701,1.812l0.859,0.896l0.927,0.811c2.406,2.249,5.175,4.011,8.065,5.336
			c0.734,0.298,1.44,0.692,2.195,0.916c0.754,0.242,1.503,0.482,2.249,0.722c0.754,0.219,1.528,0.315,2.289,0.482
			c0.382,0.07,0.767,0.162,1.144,0.216l1.116,0.08l1.115,0.087c0.375,0.027,0.732,0.083,1.154,0.037
			c0.812-0.044,1.621-0.088,2.425-0.131l0.506-0.027l0.558-0.101l1.114-0.199c0.74-0.139,1.493-0.225,2.193-0.487
			c0.715-0.221,1.425-0.44,2.13-0.658c0.691-0.258,1.348-0.592,2.02-0.88l1.001-0.447c0.323-0.165,0.625-0.367,0.938-0.548
			c0.622-0.372,1.24-0.741,1.853-1.107c2.295-1.689,4.441-3.501,6.13-5.595c3.503-4.087,5.719-8.66,7.061-12.856
			c1.328-4.213,1.948-8.072,2.047-11.255c0.15-1.591,0.063-3.014,0.026-4.251c-0.023-0.619-0.025-1.193-0.063-1.716
			c-0.059-0.522-0.112-0.996-0.161-1.42C409.697,274.803,409.595,273.897,409.595,273.897z"/>
	</g>
</g>
<ellipse transform="matrix(0.9876 -0.1572 0.1572 0.9876 -39.4164 64.5356)" fill-rule="evenodd" clip-rule="evenodd" cx="388.286" cy="281.458" rx="11.294" ry="17.395"/>
<g>
	<path d="M322.438,322.123c0,0,0.601,1.481,1.652,4.075c0.533,1.286,1.18,2.847,1.921,4.637c0.762,1.776,1.664,3.756,2.667,5.893
		c1.042,2.121,2.191,4.4,3.509,6.741c1.328,2.335,2.805,4.746,4.449,7.145c1.642,2.401,3.472,4.78,5.471,7.062
		c1.994,2.283,4.127,4.506,6.454,6.506c1.123,1.048,2.347,1.973,3.537,2.928c0.601,0.473,1.241,0.887,1.851,1.34
		c0.619,0.441,1.224,0.9,1.872,1.287c1.276,0.807,2.532,1.625,3.839,2.329c1.272,0.765,2.597,1.396,3.898,2.023
		c2.614,1.229,5.224,2.261,7.748,3.133c2.543,0.804,4.977,1.529,7.27,2.049c1.137,0.31,2.248,0.496,3.305,0.699
		c1.057,0.199,2.057,0.438,3.009,0.574c1.905,0.239,3.57,0.564,4.954,0.705c2.766,0.281,4.365,0.496,4.365,0.496
		s-1.585,0.185-4.393,0.413c-1.403,0.108-3.111,0.108-5.08,0.13c-0.984,0.006-2.027-0.083-3.134-0.125
		c-1.107-0.049-2.27-0.132-3.474-0.305c-1.204-0.17-2.479-0.261-3.77-0.518c-1.291-0.258-2.636-0.497-3.998-0.837
		c-1.351-0.38-2.765-0.699-4.17-1.163c-0.703-0.231-1.411-0.476-2.122-0.732c-0.356-0.127-0.715-0.254-1.075-0.382l-1.059-0.45
		c-1.422-0.599-2.871-1.204-4.277-1.951c-0.705-0.367-1.439-0.692-2.134-1.102c-0.691-0.413-1.387-0.827-2.084-1.243
		c-0.709-0.4-1.374-0.875-2.052-1.333c-0.673-0.466-1.366-0.91-2.017-1.413c-1.293-1.018-2.621-2.004-3.837-3.123
		c-1.258-1.072-2.407-2.257-3.575-3.411c-0.575-0.586-1.109-1.208-1.657-1.812c-0.555-0.6-1.08-1.22-1.582-1.854
		c-2.091-2.476-3.842-5.141-5.459-7.738c-1.64-2.592-2.933-5.258-4.109-7.787c-1.191-2.525-2.093-5.004-2.895-7.289
		c-1.57-4.588-2.479-8.51-3.033-11.258c-0.292-1.372-0.462-2.463-0.599-3.2C322.503,322.519,322.438,322.123,322.438,322.123z"/>
</g>
<g>
	<path fill-rule="evenodd" clip-rule="evenodd" fill="#FFFFFF" d="M141.914,292.122c10.178,1.991,54.123,28.088,54.123,28.088"/>
	<path d="M141.914,292.122c0,0,0.242,0.017,0.697,0.048c0.45,0.056,1.123,0.06,1.955,0.209c0.829,0.175,1.867,0.372,3.044,0.68
		c1.135,0.327,2.426,0.692,3.812,1.147c1.365,0.484,2.849,1.017,4.394,1.625c1.529,0.631,3.148,1.295,4.789,2.044
		c1.635,0.753,3.33,1.532,5.012,2.39c1.687,0.848,3.391,1.732,5.072,2.647c3.362,1.841,6.666,3.781,9.697,5.707
		c3.039,1.917,5.805,3.821,8.133,5.524c2.322,1.711,4.211,3.213,5.508,4.305c1.301,1.086,2.01,1.762,2.01,1.762
		s-0.932-0.3-2.513-0.903c-1.585-0.597-3.817-1.503-6.454-2.653c-2.633-1.156-5.66-2.58-8.861-4.172
		c-1.598-0.804-3.248-1.629-4.903-2.508c-1.651-0.881-3.33-1.777-5.009-2.673c-1.66-0.925-3.32-1.85-4.955-2.761
		c-1.627-0.924-3.229-1.823-4.762-2.734c-1.539-0.896-3.023-1.76-4.422-2.611c-1.402-0.83-2.729-1.615-3.944-2.369
		c-1.226-0.715-2.343-1.396-3.335-2.01c-0.989-0.541-1.85-1.058-2.578-1.483c-0.76-0.382-1.356-0.682-1.764-0.886
		C142.131,292.235,141.914,292.122,141.914,292.122z"/>
</g>
<g>
	<line fill-rule="evenodd" clip-rule="evenodd" fill="#FFFFFF" x1="173.109" y1="277.249" x2="203.401" y2="316.862"/>
	<path d="M173.109,277.249c0,0,0.646,0.488,1.694,1.402c1.055,0.91,2.51,2.25,4.185,3.912c1.668,1.667,3.541,3.667,5.461,5.877
		c0.963,1.104,1.939,2.258,2.904,3.45c0.977,1.185,1.93,2.418,2.887,3.647c0.937,1.246,1.879,2.486,2.767,3.739
		c0.903,1.241,1.755,2.489,2.571,3.704c1.631,2.432,3.07,4.764,4.241,6.811c1.174,2.046,2.077,3.807,2.675,5.066
		c0.607,1.252,0.907,2.004,0.907,2.004s-0.646-0.486-1.696-1.4c-1.059-0.906-2.521-2.24-4.188-3.908
		c-1.669-1.668-3.543-3.668-5.462-5.879c-0.958-1.105-1.94-2.255-2.901-3.451c-0.977-1.185-1.927-2.42-2.885-3.649
		c-0.936-1.247-1.875-2.489-2.763-3.741c-0.898-1.244-1.756-2.489-2.569-3.707c-1.629-2.432-3.068-4.765-4.24-6.811
		c-1.166-2.052-2.076-3.808-2.68-5.063C173.41,278,173.109,277.249,173.109,277.249z"/>
</g>
<path fill-rule="evenodd" clip-rule="evenodd" fill="#FFFFFF" stroke="#000000" stroke-width="6" stroke-miterlimit="10" d="
	M269.199,442.29c6.667,7.333,28.667,29.101,44.667,28.884"/>
<text transform="matrix(1 0 0 1 291.5332 563.29)" font-family="'OpenDyslexicAlta-Regular'" font-size="173">02</text>
</svg>
