<?xml version="1.0" encoding="utf-8"?>
<!-- Generator: Adobe Illustrator 16.0.0, SVG Export Plug-In . SVG Version: 6.00 Build 0)  -->
<!DOCTYPE svg PUBLIC "-//W3C//DTD SVG 1.1//EN" "http://www.w3.org/Graphics/SVG/1.1/DTD/svg11.dtd">
<svg version="1.1" id="Calque_1" xmlns="http://www.w3.org/2000/svg" xmlns:xlink="http://www.w3.org/1999/xlink" x="0px" y="0px"
	 width="419.527px" height="334.488px" viewBox="0 0 419.527 334.488" enable-background="new 0 0 419.527 334.488"
	 xml:space="preserve">
<g>
	<path fill="#FFFFFF" d="M149.935,142.629c4.499-13.124-25.916-92.141-5.46-116.771c9.132-10.998,27.703-17.274,50.728-12.808
		c58.002,11.253-32.103,123.645-35.763,126.398C155.49,140.771,149.935,142.629,149.935,142.629z"/>
	<g>
		<path d="M149.935,142.629c0.447-1.649,0.358-3.364,0.24-5.045c-0.138-1.686-0.388-3.361-0.677-5.03
			c-0.57-3.339-1.283-6.655-2.037-9.964l-4.678-19.847c-1.545-6.629-2.975-13.295-4.23-20.011
			c-1.265-6.714-2.256-13.499-2.841-20.359c-0.286-3.431-0.472-6.881-0.461-10.354c0.004-3.473,0.181-6.967,0.705-10.461
			c0.505-3.489,1.324-6.994,2.718-10.374c0.684-1.691,1.543-3.341,2.583-4.898c0.25-0.396,0.519-0.78,0.812-1.149l0.43-0.562
			c0.085-0.108,0.11-0.156,0.247-0.312l0.207-0.243c0.514-0.62,1.182-1.349,1.832-2.012c5.154-5.215,11.77-8.591,18.588-10.571
			c6.85-1.982,13.983-2.619,21.003-2.275c3.514,0.159,7.005,0.589,10.446,1.231l0.646,0.119l0.674,0.137
			c0.428,0.097,0.803,0.162,1.277,0.287c0.921,0.222,1.794,0.468,2.667,0.749c1.746,0.563,3.47,1.278,5.122,2.184
			c3.304,1.781,6.299,4.468,8.288,7.778c2.021,3.298,3.03,7.039,3.395,10.681c0.37,3.66,0.116,7.269-0.428,10.768
			c-0.549,3.503-1.399,6.909-2.419,10.24c-2.057,6.658-4.743,13.032-7.765,19.206c-3.037,6.168-6.385,12.151-9.921,18.006
			c-3.521,5.863-7.306,11.556-11.196,17.16c-3.888,5.608-7.946,11.091-12.149,16.458c-2.103,2.683-4.221,5.353-6.414,7.962
			c-1.096,1.307-2.201,2.604-3.326,3.887l-1.708,1.909c-0.602,0.638-1.112,1.241-1.863,1.874l-0.053,0.044l-0.069,0.021
			L149.935,142.629z M149.935,142.629l9.368-3.591l-0.122,0.064c0.52-0.498,1.09-1.214,1.612-1.85l1.575-1.99
			c1.037-1.34,2.057-2.694,3.065-4.058c2.011-2.73,4.011-5.47,5.958-8.246c3.895-5.553,7.669-11.186,11.327-16.885
			c3.654-5.703,7.126-11.514,10.47-17.384c3.327-5.879,6.454-11.863,9.251-17.976c2.799-6.104,5.333-12.327,7.167-18.7
			c1.819-6.344,2.999-12.938,2.383-19.185c-0.327-3.103-1.185-6.078-2.742-8.583c-1.539-2.515-3.781-4.529-6.456-5.959
			c-1.333-0.721-2.766-1.309-4.254-1.781c-0.746-0.235-1.512-0.443-2.242-0.617c-0.348-0.096-0.811-0.177-1.211-0.266l-0.575-0.114
			l-0.608-0.107c-3.243-0.57-6.511-1.006-9.787-1.17c-6.544-0.359-13.139,0.207-19.368,1.973
			c-6.205,1.771-12.081,4.776-16.608,9.172c-0.547,0.542-1.045,1.053-1.629,1.729l-0.211,0.239
			c-0.007,0.001-0.103,0.129-0.149,0.187l-0.351,0.446c-0.242,0.291-0.465,0.598-0.673,0.919c-0.869,1.253-1.617,2.619-2.23,4.068
			c-1.25,2.888-2.061,6.038-2.581,9.261c-1.021,6.462-1.092,13.181-0.716,19.872c0.369,6.701,1.206,13.404,2.163,20.1
			c0.97,6.695,2.173,13.37,3.397,20.049c1.202,6.685,2.531,13.355,3.644,20.077c0.551,3.361,1.08,6.73,1.432,10.127
			c0.167,1.699,0.297,3.404,0.312,5.114C150.542,139.267,150.502,141.015,149.935,142.629z"/>
	</g>
</g>
<ellipse transform="matrix(-0.2699 -0.9629 0.9629 -0.2699 4.0747 372.4065)" fill="#FFBF0F" stroke="#000000" stroke-width="5.1182" stroke-miterlimit="10" cx="143.224" cy="184.658" rx="60.488" ry="109.546"/>
<g>
	<circle fill="#FFBF0F" cx="272.897" cy="123.508" r="58.281"/>
	<g>
		<path d="M331.178,123.508c0,0-0.008,0.357-0.022,1.051c-0.027,0.691,0.003,1.722-0.119,3.059
			c-0.163,2.673-0.58,6.614-1.906,11.453c-0.621,2.429-1.563,5.048-2.739,7.831c-1.188,2.778-2.68,5.702-4.57,8.647
			c-3.754,5.896-9.14,11.887-16.229,16.888c-3.557,2.476-7.544,4.67-11.9,6.423c-4.353,1.762-9.098,2.992-14.062,3.678
			c-1.24,0.185-2.501,0.267-3.768,0.393c-1.275,0.038-2.534,0.159-3.853,0.131c-0.631-0.003-1.264-0.006-1.897-0.01
			c-0.64-0.011-1.308-0.063-1.964-0.096c-1.329-0.046-2.625-0.218-3.942-0.353c-2.62-0.357-5.269-0.816-7.878-1.542
			c-1.318-0.315-2.604-0.768-3.912-1.17c-1.279-0.482-2.594-0.906-3.854-1.479c-5.104-2.128-9.992-5.043-14.454-8.623
			c-4.447-3.6-8.4-7.926-11.714-12.757c-1.662-2.414-3.113-4.983-4.428-7.628c-1.291-2.661-2.33-5.446-3.229-8.278
			c-0.886-2.839-1.508-5.759-1.982-8.702c-0.198-1.478-0.405-2.956-0.495-4.445c-0.062-0.744-0.126-1.487-0.133-2.233l-0.064-2.302
			c0.033-11.804,3.647-23.842,10.321-33.466c3.312-4.835,7.272-9.153,11.713-12.765c4.464-3.581,9.354-6.496,14.459-8.624
			c1.26-0.57,2.574-0.996,3.854-1.477c1.309-0.404,2.595-0.855,3.914-1.17c2.61-0.727,5.259-1.185,7.879-1.541
			c1.316-0.135,2.622-0.307,3.93-0.352c1.304-0.097,2.602-0.109,3.892-0.104h0.996l0.94,0.043c0.627,0.029,1.251,0.058,1.873,0.086
			c1.271,0.125,2.559,0.209,3.797,0.393c4.966,0.688,9.712,1.917,14.064,3.681c4.356,1.754,8.346,3.949,11.9,6.425
			c7.092,5.002,12.474,10.997,16.229,16.892c1.89,2.946,3.383,5.87,4.567,8.649c1.176,2.783,2.118,5.402,2.739,7.831
			c1.325,4.839,1.743,8.78,1.905,11.452c0.122,1.337,0.092,2.368,0.119,3.06C331.17,123.151,331.178,123.508,331.178,123.508z
			 M331.178,123.508c0,0-0.011-0.356-0.031-1.05c-0.034-0.691-0.013-1.722-0.146-3.057c-0.186-2.669-0.636-6.604-2-11.419
			c-1.35-4.801-3.604-10.534-7.528-16.286c-3.881-5.741-9.316-11.607-16.513-16.174c-3.586-2.281-7.567-4.258-11.864-5.783
			c-4.294-1.535-8.929-2.528-13.725-2.989c-1.201-0.128-2.392-0.151-3.603-0.225c-0.623-0.003-1.248-0.006-1.875-0.009l-0.941-0.004
			l-0.894,0.04c-1.232,0.047-2.473,0.109-3.712,0.255c-1.243,0.093-2.479,0.311-3.725,0.488c-2.478,0.445-4.965,0.981-7.403,1.771
			c-1.233,0.348-2.429,0.828-3.646,1.257c-1.187,0.507-2.403,0.953-3.564,1.541c-4.713,2.198-9.164,5.117-13.172,8.615
			c-2.012,1.742-3.896,3.645-5.677,5.651c-1.774,2.017-3.374,4.193-4.86,6.449c-2.917,4.551-5.234,9.523-6.804,14.748
			c-0.792,2.611-1.336,5.295-1.752,7.996c-0.39,2.75-0.532,5.295-0.572,8.248l0.044,1.988c0,0.685,0.055,1.367,0.104,2.05
			c0.069,1.368,0.25,2.724,0.419,4.081c0.415,2.701,0.961,5.385,1.752,7.997c1.574,5.222,3.878,10.202,6.798,14.753
			c5.888,9.076,14.296,16.312,23.713,20.724c1.161,0.588,2.38,1.034,3.566,1.541c1.217,0.43,2.413,0.909,3.646,1.256
			c2.438,0.79,4.929,1.327,7.406,1.771c1.243,0.179,2.486,0.396,3.71,0.487c0.616,0.055,1.217,0.133,1.846,0.17
			c0.634,0.027,1.266,0.058,1.896,0.087c1.206,0.08,2.453,0.013,3.669,0.026c1.217-0.071,2.433-0.099,3.631-0.227
			c4.798-0.462,9.433-1.456,13.728-2.991c4.298-1.525,8.278-3.504,11.865-5.785c7.196-4.567,12.629-10.438,16.511-16.179
			c3.926-5.753,6.178-11.487,7.527-16.288c1.363-4.815,1.813-8.75,1.999-11.419c0.134-1.335,0.111-2.366,0.146-3.057
			C331.167,123.866,331.178,123.508,331.178,123.508z"/>
	</g>
</g>
<path d="M58.299,162.436c0,0-7.437,59.543,31.408,87.546c17.759,1.148,23.244,0.021,26.171-0.109
	c-19.774-22.945-42.458-59.046-32.228-105.41C76.739,148.727,58.299,162.436,58.299,162.436z"/>
<path d="M101.422,133.48c-6.293,30.761,4.194,83.202,38.505,112.978c16.188-2.297,22.685-5.216,25.612-5.347
	c-17.093-21.483-45.776-67.114-34.822-115.734C122.685,127.639,111.142,129.642,101.422,133.48z"/>
<path d="M149.919,123.508c-4.465,23.415,5.941,80.491,38.395,108.038c14.385-3.946,21.982-10.8,24.912-10.929
	c-19.64-21.334-39.152-57.108-30.874-101.304C171.435,119.543,160.74,120.906,149.919,123.508z"/>
<g>
	
		<ellipse transform="matrix(-0.1572 -0.9876 0.9876 -0.1572 278.0892 427.5701)" fill="#FFFFFF" cx="321.492" cy="95.122" rx="22.337" ry="18.137"/>
	<g>
		<path d="M339.391,92.278c0,0,0.062,0.494,0.176,1.421c0.066,0.462,0.13,1.034,0.141,1.712c0.028,0.677,0.073,1.455,0.025,2.328
			c-0.004,1.747-0.287,3.865-0.889,6.234c-0.628,2.359-1.678,4.973-3.454,7.49c-0.861,1.28-2.001,2.44-3.271,3.555
			c-1.331,1.031-2.813,2.047-4.553,2.683c-0.418,0.203-0.87,0.308-1.319,0.442l-0.682,0.194l-0.344,0.098l-0.405,0.065
			c-0.435,0.07-0.871,0.142-1.311,0.212c-0.437,0.074-0.993,0.059-1.494,0.084c-2.04,0.032-4.049-0.246-6-0.975
			c-3.912-1.364-7.442-4.087-9.991-7.551c-0.68-0.843-1.207-1.785-1.789-2.701c-0.259-0.475-0.491-0.964-0.735-1.449l-0.363-0.729
			l-0.304-0.755l-0.602-1.518l-0.463-1.562c-0.168-0.52-0.292-1.047-0.393-1.582l-0.345-1.702l-0.167-1.484l-0.082-0.742
			l-0.034-0.844l-0.051-1.7c0.02-0.548,0.064-1.088,0.098-1.63c0.021-0.543,0.08-1.082,0.174-1.619
			c0.082-0.537,0.152-1.073,0.249-1.604c0.264-1.054,0.477-2.112,0.859-3.125c1.344-4.086,3.854-7.776,7.154-10.287
			c1.612-1.298,3.488-2.201,5.371-2.78c1.865-0.622,3.866-0.771,5.607-0.689c3.812,0.22,6.955,1.666,9.43,3.507
			c2.471,1.844,4.278,4.003,5.606,6.053c1.308,2.065,2.231,3.993,2.777,5.652c0.317,0.813,0.516,1.567,0.697,2.22
			c0.201,0.648,0.319,1.211,0.397,1.672C339.295,91.789,339.391,92.278,339.391,92.278z M339.391,92.278
			c0,0-0.102-0.487-0.291-1.401c-0.086-0.459-0.21-1.021-0.419-1.665c-0.192-0.647-0.389-1.401-0.743-2.198
			c-0.601-1.632-1.589-3.522-3.015-5.461c-1.426-1.93-3.378-3.892-5.898-5.35c-1.233-0.768-2.649-1.306-4.11-1.754
			c-0.761-0.123-1.502-0.364-2.29-0.379c-0.389-0.024-0.782-0.076-1.167-0.081c-0.376,0.016-0.754,0.033-1.136,0.049
			c-1.666,0.146-3.211,0.479-4.689,1.195l-0.559,0.244c-0.18,0.094-0.352,0.208-0.527,0.311c-0.349,0.218-0.712,0.4-1.046,0.643
			c-0.656,0.503-1.32,0.986-1.907,1.589c-1.196,1.159-2.257,2.51-3.055,4.045l-0.32,0.56l-0.271,0.592
			c-0.174,0.398-0.379,0.781-0.531,1.19c-0.288,0.829-0.61,1.642-0.814,2.506c-0.472,1.701-0.728,3.48-0.8,5.272l-0.04,1.345
			l0.053,1.281l0.024,0.646l0.092,0.741l0.181,1.482c-0.025-0.194-0.002-0.03-0.006-0.062l0.008,0.042l0.018,0.083l0.033,0.166
			l0.064,0.333l0.129,0.666c0.076,0.447,0.173,0.888,0.311,1.318l0.363,1.302l0.451,1.27c0.628,1.681,1.417,3.297,2.396,4.767
			c0.463,0.758,1.016,1.437,1.551,2.133c0.271,0.342,0.586,0.642,0.876,0.967c0.287,0.33,0.595,0.633,0.919,0.915
			c1.236,1.211,2.665,2.167,4.163,2.897c0.746,0.389,1.527,0.647,2.31,0.92c0.394,0.126,0.796,0.186,1.194,0.286
			c0.198,0.042,0.401,0.097,0.598,0.131l0.572,0.058c0.396,0.026,0.734,0.118,1.184,0.103c0.445-0.015,0.889-0.028,1.327-0.042
			l0.165-0.005l0.082-0.003l0.041-0.001c0.031-0.002-0.123,0.017-0.04,0.006l0.296-0.047l0.594-0.09
			c0.395-0.062,0.797-0.097,1.171-0.227c0.384-0.107,0.765-0.214,1.143-0.32c0.372-0.127,0.727-0.297,1.089-0.441
			c0.744-0.261,1.377-0.719,2.06-1.074c1.251-0.88,2.43-1.833,3.364-2.946c1.943-2.169,3.188-4.642,3.944-6.918
			c0.753-2.286,1.104-4.391,1.169-6.127c0.089-0.868,0.041-1.645,0.022-2.321c-0.001-0.677-0.058-1.25-0.118-1.713
			C339.446,92.772,339.391,92.278,339.391,92.278z"/>
	</g>
</g>
<ellipse transform="matrix(-0.0169 -0.9999 0.9999 -0.0169 238.7316 427.7314)" cx="329.65" cy="96.499" rx="8.299" ry="5.388"/>
<g>
	<path fill="#FFFFFF" d="M170.336,139.12c-11.356-14.839-17.801-76.273-54.457-98.989c-16.364-10.142-42.767-10.219-70.263,5.328
		c-69.271,39.167,105.367,91.709,111.221,93.661C162.447,139.12,170.336,139.12,170.336,139.12z"/>
	<g>
		<path d="M170.336,139.12c-2.351-3.039-4.004-6.579-5.517-10.101c-1.494-3.546-2.818-7.156-4.129-10.764
			c-2.614-7.218-5.092-14.468-7.87-21.585c-2.775-7.112-5.739-14.145-9.256-20.866c-1.75-3.364-3.62-6.657-5.649-9.834
			c-1.997-3.201-4.211-6.247-6.57-9.155c-2.335-2.935-4.965-5.592-7.689-8.113c-2.77-2.477-5.753-4.673-8.865-6.648l-2.43-1.341
			c-0.853-0.513-1.645-0.781-2.459-1.159c-0.806-0.36-1.605-0.729-2.49-1.002c-0.865-0.292-1.721-0.612-2.592-0.886
			c-3.52-1.003-7.142-1.668-10.812-1.978c-3.675-0.244-7.378-0.271-11.066,0.107c-0.921,0.096-1.847,0.136-2.764,0.274l-2.751,0.421
			L76.051,36.7l-1.363,0.294l-2.726,0.587c-7.25,1.698-14.251,4.465-20.915,7.866c-6.538,3.382-13.268,7.35-16.923,13.071
			c-0.421,0.719-0.87,1.427-1.148,2.188c-0.376,0.735-0.535,1.521-0.772,2.286c-0.294,1.562-0.406,3.16-0.125,4.77
			c0.533,3.215,2.19,6.372,4.335,9.228c4.394,5.71,10.297,10.504,16.445,14.807c6.206,4.281,12.776,8.106,19.488,11.686
			c6.703,3.6,13.572,6.928,20.523,10.084c6.957,3.145,13.974,6.183,21.061,9.062c14.18,5.754,28.531,11.09,43.043,16.083
			l-0.136-0.021L170.336,139.12z M170.336,139.12l-13.499,0.431l-0.053,0.003l-0.084-0.024c-7.364-2.096-14.737-4.289-22.036-6.666
			c-7.312-2.35-14.582-4.837-21.793-7.499c-7.212-2.657-14.398-5.411-21.479-8.438c-7.088-3.006-14.11-6.191-21.008-9.676
			c-6.897-3.48-13.643-7.313-20.135-11.633c-3.233-2.182-6.395-4.503-9.406-7.06c-3.008-2.56-5.881-5.354-8.361-8.6
			c-0.604-0.826-1.199-1.664-1.761-2.531c-0.52-0.906-1.099-1.764-1.528-2.741c-0.978-1.864-1.631-3.965-2.034-6.122
			c-0.388-2.182-0.277-4.464,0.151-6.657c0.3-1.072,0.558-2.169,1.038-3.16c0.394-1.042,0.953-1.967,1.503-2.901
			c0.548-0.936,1.235-1.74,1.856-2.608c0.706-0.77,1.386-1.577,2.123-2.305c0.76-0.69,1.495-1.429,2.283-2.073
			c0.8-0.627,1.581-1.274,2.4-1.882l2.537-1.742c0.831-0.532,1.646-0.999,2.47-1.498l0.617-0.369l0.154-0.092l0.223-0.122
			l0.325-0.172l1.3-0.688l2.601-1.374c7-3.527,14.381-6.405,22.079-8.171c7.685-1.761,15.669-2.559,23.608-1.798
			c3.966,0.395,7.9,1.173,11.739,2.334c0.952,0.313,1.891,0.677,2.836,1.014c0.944,0.312,1.883,0.75,2.821,1.189
			c0.917,0.44,1.928,0.848,2.714,1.34l2.581,1.48c3.337,2.17,6.496,4.596,9.37,7.315c2.833,2.75,5.535,5.634,7.902,8.764
			c2.394,3.104,4.614,6.33,6.593,9.687c1.03,1.655,1.945,3.372,2.886,5.073c0.875,1.732,1.799,3.442,2.604,5.205
			c3.342,6.997,6.132,14.207,8.626,21.488c2.461,7.296,4.683,14.646,6.888,21.984c1.109,3.667,2.247,7.321,3.523,10.925
			C166.791,132.348,168.185,135.929,170.336,139.12z"/>
	</g>
</g>
<path fill="none" stroke="#000000" stroke-width="2.9269" stroke-miterlimit="10" d="M310.596,56.93
	c9.367-13.704,22.874-14.59,30.176-9.444"/>
<ellipse transform="matrix(0.3655 -0.9308 0.9308 0.3655 172.0263 356.5703)" cx="347.564" cy="52.101" rx="7.927" ry="7.638"/>
<path fill="none" stroke="#000000" stroke-width="2.9269" stroke-miterlimit="10" d="M270.893,58.61
	c1.952-35.377,26.342-48.062,42.928-44.158"/>
<circle cx="327.221" cy="17.379" r="12.775"/>
<g>
	
		<ellipse transform="matrix(-0.1572 -0.9876 0.9876 -0.1572 257.4396 384.9406)" fill="#FFFFFF" cx="292.978" cy="82.618" rx="34.888" ry="28.329"/>
	<g>
		<path d="M320.943,78.177c0,0,0.095,0.771,0.271,2.219c0.044,0.361,0.093,0.766,0.146,1.211c0.036,0.446,0.042,0.936,0.066,1.464
			c0.042,1.057,0.114,2.271,0.026,3.633c-0.033,0.68-0.031,1.4-0.098,2.15c-0.09,0.748-0.184,1.531-0.281,2.347
			c-0.068,0.822-0.282,1.652-0.438,2.528c-0.086,0.437-0.172,0.881-0.261,1.333c-0.105,0.447-0.249,0.895-0.375,1.354
			c-0.998,3.673-2.739,7.694-5.547,11.535c-1.365,1.953-3.157,3.707-5.138,5.381c-0.527,0.378-1.062,0.76-1.599,1.146
			c-0.272,0.188-0.536,0.395-0.819,0.57l-0.882,0.488c-0.595,0.318-1.181,0.676-1.803,0.968c-0.641,0.259-1.283,0.52-1.934,0.78
			c-0.641,0.296-1.333,0.441-2.021,0.63l-1.038,0.274l-0.523,0.137l-0.589,0.087c-0.681,0.094-1.363,0.188-2.053,0.283
			c-0.684,0.1-1.492,0.053-2.246,0.08l-1.158,0.009c-0.379-0.021-0.748-0.075-1.125-0.111c-0.747-0.096-1.515-0.136-2.263-0.285
			c-0.745-0.173-1.494-0.345-2.247-0.519c-0.759-0.162-1.464-0.491-2.205-0.734c-2.911-1.093-5.73-2.636-8.221-4.646
			c-2.515-1.976-4.78-4.334-6.675-6.977c-1.021-1.277-1.807-2.709-2.68-4.099c-0.388-0.72-0.732-1.463-1.101-2.197l-0.543-1.105
			l-0.453-1.146l-0.896-2.299l-0.695-2.369l-0.34-1.188l-0.25-1.209l-0.495-2.42l-0.279-2.422l-0.131-1.159l-0.052-1.263
			l-0.079-2.537c0.027-0.827,0.09-1.646,0.135-2.467l0.075-1.229l0.173-1.22c0.121-0.812,0.222-1.625,0.362-2.432
			c0.392-1.593,0.7-3.196,1.271-4.729c0.462-1.562,1.143-3.042,1.788-4.521c0.335-0.733,0.757-1.428,1.132-2.138l0.579-1.054
			l0.68-0.996c1.741-2.686,3.946-5.027,6.376-6.971c0.629-0.463,1.198-0.991,1.867-1.386c0.662-0.397,1.321-0.795,1.978-1.189
			c0.665-0.375,1.383-0.651,2.063-0.975c0.347-0.15,0.685-0.317,1.033-0.454l1.072-0.34c2.805-0.999,5.803-1.281,8.5-1.22
			c0.715,0.047,1.425,0.094,2.13,0.141c0.69,0.085,1.353,0.243,2.02,0.361l0.989,0.191c0.325,0.08,0.641,0.193,0.957,0.29
			c0.63,0.198,1.255,0.396,1.875,0.594c2.402,0.978,4.65,2.089,6.556,3.522c3.861,2.78,6.762,6.066,8.852,9.247
			c0.263,0.397,0.537,0.778,0.777,1.171c0.224,0.403,0.443,0.799,0.659,1.188c0.422,0.783,0.882,1.508,1.201,2.268
			c0.348,0.745,0.68,1.46,0.996,2.145c0.294,0.691,0.518,1.377,0.759,2.014c0.507,1.268,0.814,2.444,1.103,3.462
			c0.141,0.509,0.288,0.978,0.393,1.412c0.087,0.44,0.165,0.839,0.236,1.197C320.792,77.413,320.943,78.177,320.943,78.177z
			 M320.943,78.177c0,0-0.155-0.763-0.449-2.19c-0.073-0.357-0.155-0.755-0.246-1.194c-0.107-0.434-0.259-0.899-0.402-1.407
			c-0.298-1.015-0.604-2.191-1.148-3.441c-0.921-2.555-2.445-5.521-4.652-8.575c-2.213-3.033-5.188-6.184-9.119-8.56
			c-1.924-1.25-4.145-2.15-6.451-2.911c-0.594-0.134-1.192-0.27-1.796-0.405c-0.301-0.062-0.6-0.146-0.905-0.195l-0.929-0.097
			c-0.62-0.056-1.246-0.153-1.866-0.178c-0.613,0.01-1.229,0.02-1.852,0.029c-2.622,0.163-5.164,0.631-7.583,1.726l-0.914,0.371
			c-0.297,0.146-0.581,0.321-0.872,0.479c-0.572,0.337-1.175,0.619-1.728,0.997c-0.542,0.393-1.086,0.785-1.632,1.181
			c-0.556,0.377-1.021,0.887-1.538,1.321c-1.99,1.839-3.769,4-5.123,6.46l-0.541,0.9l-0.463,0.952
			c-0.297,0.64-0.643,1.257-0.905,1.917c-0.504,1.331-1.048,2.647-1.388,4.049c-0.448,1.363-0.635,2.805-0.938,4.214
			c-0.105,0.715-0.174,1.438-0.267,2.156l-0.13,1.08l-0.037,1.091l-0.077,2.18l0.082,2.119l0.041,1.066l0.141,1.158l0.265,2.212
			c0.984,5.761,3.004,11.385,6.229,16.142c0.759,1.226,1.684,2.311,2.576,3.419c0.454,0.545,0.976,1.024,1.458,1.541l0.734,0.761
			l0.791,0.692c2.053,1.918,4.414,3.421,6.879,4.552c0.628,0.254,1.229,0.59,1.874,0.781c0.644,0.206,1.282,0.411,1.918,0.616
			c0.644,0.187,1.305,0.269,1.953,0.411c0.325,0.06,0.653,0.139,0.977,0.184l0.95,0.068c0.648,0.025,1.238,0.147,1.938,0.105
			c0.693-0.038,1.383-0.075,2.068-0.112l0.432-0.022l0.476-0.086l0.95-0.17c0.632-0.119,1.274-0.192,1.871-0.416
			c0.61-0.188,1.216-0.375,1.817-0.562c0.589-0.22,1.148-0.505,1.723-0.751l0.854-0.381c0.275-0.141,0.533-0.312,0.802-0.467
			c0.529-0.317,1.058-0.632,1.58-0.944c1.958-1.44,3.789-2.985,5.229-4.772c3.002-3.481,4.847-7.401,6.009-10.972
			c1.15-3.588,1.678-6.882,1.762-9.597c0.128-1.356,0.054-2.571,0.021-3.626c-0.021-0.528-0.021-1.018-0.054-1.464
			c-0.051-0.445-0.097-0.85-0.138-1.212C321.031,78.949,320.943,78.177,320.943,78.177z"/>
	</g>
</g>
<ellipse transform="matrix(-0.1572 -0.9876 0.9876 -0.1572 266.7955 396.9464)" cx="302.775" cy="84.632" rx="14.84" ry="9.634"/>
<g>
	<path d="M246.594,119.314c0,0,0.513,1.264,1.41,3.477c0.454,1.097,1.006,2.429,1.639,3.955c0.649,1.516,1.419,3.203,2.274,5.026
		c0.889,1.809,1.869,3.753,2.993,5.75c1.133,1.992,2.393,4.048,3.795,6.095c1.397,2.05,2.968,4.073,4.661,6.028
		c1.686,1.962,3.519,3.85,5.511,5.546c0.956,0.896,1.995,1.69,3.009,2.511c1.051,0.768,2.09,1.55,3.181,2.234
		c1.094,0.682,2.165,1.377,3.278,1.979c1.086,0.652,2.216,1.19,3.325,1.727c2.23,1.048,4.456,1.929,6.609,2.673
		c2.17,0.686,4.244,1.304,6.201,1.747c0.971,0.265,1.918,0.424,2.818,0.597c0.901,0.17,1.755,0.374,2.566,0.49
		c1.626,0.204,3.046,0.48,4.227,0.602c2.359,0.239,3.724,0.423,3.724,0.423s-1.353,0.157-3.747,0.354
		c-1.196,0.092-2.653,0.092-4.334,0.11c-0.84,0.005-1.729-0.07-2.673-0.106c-0.943-0.042-1.936-0.112-2.963-0.26
		c-1.027-0.146-2.114-0.224-3.216-0.441c-1.102-0.22-2.248-0.425-3.41-0.714c-1.152-0.325-2.358-0.598-3.558-0.992
		c-0.601-0.197-1.203-0.405-1.811-0.625c-0.613-0.204-1.221-0.438-1.819-0.709c-1.214-0.511-2.449-1.026-3.648-1.664
		c-0.602-0.312-1.229-0.591-1.82-0.939c-0.588-0.354-1.18-0.71-1.772-1.068c-2.345-1.477-4.642-3.13-6.747-5
		c-2.113-1.863-4.045-3.919-5.809-6.042c-1.795-2.102-3.279-4.381-4.663-6.596c-1.397-2.211-2.501-4.485-3.505-6.643
		c-1.017-2.153-1.785-4.27-2.469-6.219c-1.341-3.913-2.114-7.259-2.588-9.603C246.792,120.667,246.594,119.314,246.594,119.314z"/>
</g>
<g>
	<path fill="#FFFFFF" d="M92.603,93.722c8.683,1.698,46.168,23.96,46.168,23.96"/>
	<path d="M92.603,93.722c0,0,0.207,0.014,0.595,0.041c0.385,0.047,0.958,0.05,1.668,0.178c0.707,0.148,1.593,0.316,2.597,0.58
		c0.968,0.279,2.068,0.591,3.252,0.979c1.165,0.413,2.43,0.867,3.748,1.387c1.305,0.537,2.687,1.104,4.085,1.742
		c1.395,0.644,2.841,1.308,4.274,2.039c1.439,0.723,2.894,1.479,4.328,2.258c2.868,1.57,5.687,3.226,8.272,4.868
		c2.592,1.637,4.951,3.261,6.937,4.713c1.982,1.459,3.594,2.741,4.699,3.673c1.109,0.927,1.714,1.502,1.714,1.502
		s-0.795-0.256-2.144-0.771c-1.353-0.509-3.255-1.282-5.505-2.263c-4.499-1.965-10.319-4.871-16.015-7.979
		c-1.417-0.789-2.833-1.578-4.227-2.354c-1.388-0.789-2.754-1.557-4.062-2.333c-2.625-1.53-5.057-2.979-7.137-4.249
		c-1.046-0.609-1.998-1.191-2.845-1.714c-0.843-0.461-1.578-0.902-2.199-1.267c-0.647-0.326-1.157-0.582-1.504-0.756
		C92.788,93.818,92.603,93.722,92.603,93.722z"/>
</g>
<g>
	<line fill="none" x1="119.213" y1="81.035" x2="145.053" y2="114.827"/>
	<path d="M119.213,81.035c0,0,0.551,0.416,1.445,1.196c0.898,0.775,2.141,1.919,3.568,3.337c2.855,2.837,6.367,6.845,9.6,11.068
		c3.231,4.223,6.183,8.659,8.171,12.159c0.994,1.75,1.77,3.249,2.281,4.321c0.519,1.068,0.773,1.709,0.773,1.709
		s-0.552-0.415-1.447-1.194c-0.899-0.775-2.144-1.917-3.571-3.335c-2.856-2.836-6.366-6.846-9.595-11.07
		c-3.228-4.226-6.176-8.665-8.166-12.164c-0.995-1.75-1.771-3.248-2.285-4.319C119.47,81.675,119.213,81.035,119.213,81.035z"/>
</g>
<path fill="none" stroke="#000000" stroke-width="5.1182" stroke-miterlimit="10" d="M201.181,221.82
	c5.688,6.257,24.454,24.824,38.103,24.639"/>
<text transform="matrix(1 0 0 1 220.2317 325.0378)" font-family="'KomikaTitle-Axis'" font-size="147.5747">02</text>
</svg>
