<?xml version="1.0" encoding="utf-8"?>
<!-- Generator: Adobe Illustrator 16.0.0, SVG Export Plug-In . SVG Version: 6.00 Build 0)  -->
<!DOCTYPE svg PUBLIC "-//W3C//DTD SVG 1.1//EN" "http://www.w3.org/Graphics/SVG/1.1/DTD/svg11.dtd">
<svg version="1.1" id="Calque_1" xmlns="http://www.w3.org/2000/svg" xmlns:xlink="http://www.w3.org/1999/xlink" x="0px" y="0px"
	 width="419.527px" height="334.484px" viewBox="0 0 419.527 334.484" enable-background="new 0 0 419.527 334.484"
	 xml:space="preserve">
<g>
	<path fill="#FFFFFF" d="M160.865,182.758c5.484-16-31.597-112.338-6.658-142.368c11.134-13.408,33.775-21.062,61.848-15.614
		c70.717,13.718-39.139,150.747-43.602,154.104C167.638,180.493,160.865,182.758,160.865,182.758z"/>
	<path d="M160.865,182.758c0.556-2.008,0.459-4.103,0.327-6.152c-0.157-2.059-0.451-4.104-0.792-6.142
		c-0.675-4.075-1.528-8.124-2.428-12.163l-5.608-24.219c-1.853-8.087-3.576-16.214-5.081-24.4
		c-1.513-8.185-2.708-16.448-3.401-24.799c-0.339-4.175-0.556-8.372-0.534-12.594c0.015-4.219,0.236-8.463,0.875-12.698
		c0.617-4.229,1.615-8.471,3.301-12.545c0.828-2.04,1.864-4.024,3.116-5.896c0.3-0.476,0.625-0.938,0.978-1.38l0.515-0.675
		c0.102-0.126,0.139-0.193,0.292-0.369l0.252-0.295c0.634-0.762,1.433-1.629,2.216-2.427c6.227-6.282,14.225-10.363,22.48-12.76
		c8.294-2.396,16.943-3.166,25.457-2.746c4.263,0.194,8.498,0.721,12.676,1.496l0.784,0.145l0.812,0.165
		c0.519,0.116,0.983,0.197,1.551,0.348c1.105,0.266,2.161,0.562,3.213,0.9c2.105,0.68,4.18,1.538,6.165,2.625
		c3.97,2.139,7.553,5.354,9.936,9.314c2.423,3.948,3.64,8.439,4.079,12.83c0.447,4.411,0.146,8.775-0.508,13.016
		c-0.66,4.245-1.687,8.382-2.92,12.43c-2.486,8.092-5.749,15.849-9.411,23.37c-3.682,7.514-7.743,14.809-12.034,21.949
		c-4.277,7.149-8.861,14.101-13.584,20.941c-4.718,6.846-9.641,13.544-14.735,20.104c-2.551,3.279-5.121,6.54-7.778,9.733
		c-1.328,1.597-2.667,3.185-4.031,4.753l-2.069,2.335c-0.727,0.776-1.355,1.523-2.25,2.282l-0.054,0.045l-0.073,0.022
		L160.865,182.758z M160.865,182.758l11.446-4.302l-0.126,0.066c0.652-0.62,1.345-1.482,1.988-2.257l1.933-2.419
		c1.273-1.627,2.523-3.274,3.763-4.931c2.469-3.317,4.918-6.65,7.306-10.026c4.776-6.753,9.404-13.607,13.886-20.548
		c4.477-6.943,8.738-14.018,12.832-21.174c4.074-7.165,7.907-14.461,11.341-21.917c3.433-7.448,6.536-15.051,8.793-22.848
		c2.234-7.762,3.705-15.839,2.948-23.557c-0.403-3.833-1.461-7.53-3.404-10.657c-1.917-3.14-4.721-5.656-8.039-7.433
		c-1.655-0.896-3.427-1.625-5.267-2.208c-0.922-0.292-1.864-0.55-2.773-0.765c-0.435-0.119-0.99-0.216-1.482-0.325l-0.38-0.08
		l-0.331-0.062l-0.744-0.132c-3.975-0.702-7.978-1.233-11.993-1.434c-8.022-0.436-16.112,0.261-23.766,2.434
		c-7.621,2.177-14.853,5.876-20.431,11.311c-0.677,0.672-1.299,1.313-2.004,2.134l-0.257,0.292c-0.021,0.017-0.13,0.164-0.19,0.24
		l-0.435,0.555c-0.3,0.361-0.576,0.743-0.834,1.143c-1.075,1.556-1.997,3.248-2.752,5.037c-1.537,3.564-2.526,7.439-3.159,11.393
		c-1.245,7.927-1.304,16.143-0.83,24.314c0.47,8.186,1.503,16.366,2.699,24.528c1.209,8.165,2.696,16.302,4.219,24.44
		c1.499,8.144,3.144,16.271,4.537,24.457c0.689,4.093,1.353,8.196,1.801,12.332c0.215,2.068,0.384,4.145,0.415,6.227
		C161.583,178.658,161.545,180.787,160.865,182.758z"/>
</g>
<ellipse transform="matrix(-0.2699 -0.9629 0.9629 -0.2699 -31.4246 444.1741)" fill="#FFBF0F" stroke="#000000" stroke-width="5.9474" stroke-miterlimit="10" cx="152.683" cy="234.001" rx="73.749" ry="133.56"/>
<g>
	<circle fill="#FFBF0F" cx="310.78" cy="159.446" r="71.057"/>
	<path d="M381.837,159.446c0,0-0.01,0.436-0.028,1.28c-0.036,0.844-0.002,2.1-0.153,3.729c-0.198,3.26-0.735,8.058-2.334,13.958
		c-0.748,2.963-1.887,6.16-3.312,9.558c-1.436,3.394-3.254,6.961-5.553,10.559c-4.566,7.2-11.123,14.525-19.774,20.634
		c-8.656,6.047-19.511,10.751-31.679,12.429c-1.516,0.232-3.057,0.341-4.604,0.503c-1.562,0.055-3.097,0.211-4.712,0.183
		c-0.771,0-1.541,0.001-2.314,0.001c-0.78-0.009-1.602-0.071-2.405-0.105c-1.63-0.048-3.216-0.25-4.829-0.407
		c-3.209-0.421-6.453-0.969-9.654-1.842c-1.617-0.378-3.194-0.923-4.8-1.409c-0.794-0.271-1.578-0.574-2.369-0.863
		c-0.796-0.28-1.58-0.595-2.354-0.939c-6.256-2.603-12.248-6.169-17.719-10.552c-5.456-4.406-10.312-9.697-14.382-15.614
		c-2.042-2.957-3.827-6.104-5.445-9.345c-1.592-3.258-2.877-6.67-3.988-10.142c-1.103-3.479-1.869-7.062-2.44-10.674
		c-0.24-1.813-0.49-3.628-0.597-5.456c-0.074-0.912-0.151-1.824-0.159-2.74l-0.074-2.834c0.06-1.769,0.042-3.416,0.226-5.343
		c0.11-1.89,0.361-3.694,0.602-5.507c0.576-3.61,1.331-7.197,2.435-10.677c1.11-3.472,2.4-6.883,3.987-10.144
		c1.608-3.248,3.401-6.392,5.441-9.35c4.068-5.921,8.934-11.204,14.381-15.623c5.474-4.383,11.468-7.949,17.726-10.553
		c0.774-0.344,1.56-0.659,2.354-0.938c0.791-0.29,1.58-0.578,2.368-0.866c1.605-0.487,3.184-1.032,4.802-1.41
		c3.202-0.873,6.448-1.419,9.657-1.84c1.612-0.157,3.21-0.359,4.811-0.406c0.799-0.034,1.594-0.096,2.388-0.104
		c0.794,0,1.585,0,2.374,0l1.225,0.006l1.146,0.059c0.765,0.039,1.524,0.078,2.283,0.117c1.555,0.161,3.132,0.271,4.645,0.504
		c12.173,1.68,23.024,6.391,31.683,12.438c8.652,6.109,15.204,13.44,19.772,20.64c2.297,3.599,4.117,7.166,5.552,10.561
		c1.423,3.397,2.562,6.595,3.31,9.559c1.598,5.9,2.136,10.699,2.333,13.958c0.151,1.629,0.117,2.886,0.153,3.729
		C381.827,159.01,381.837,159.446,381.837,159.446z M381.837,159.446c0,0-0.012-0.436-0.034-1.28
		c-0.041-0.844-0.014-2.1-0.174-3.728c-0.226-3.253-0.746-8.058-2.428-13.927c-1.664-5.851-4.437-12.828-9.229-19.831
		c-4.74-6.988-11.38-14.118-20.146-19.675c-4.37-2.772-9.22-5.176-14.454-7.027c-5.239-1.841-10.885-3.021-16.721-3.549
		c-1.461-0.147-2.903-0.169-4.376-0.25c-0.76,0-1.521,0.001-2.286,0.001l-1.148,0.001l-1.08,0.054
		c-0.747,0.039-1.498,0.078-2.252,0.117c-0.752,0.047-1.502,0.146-2.256,0.218c-1.51,0.121-3.011,0.394-4.521,0.619
		c-3.005,0.556-6.021,1.224-8.977,2.199c-2.968,0.922-5.887,2.077-8.736,3.423c-5.713,2.672-11.107,6.217-15.962,10.464
		c-2.438,2.115-4.718,4.428-6.871,6.866c-2.146,2.447-4.079,5.091-5.875,7.828c-3.527,5.521-6.316,11.554-8.194,17.887
		c-0.94,3.167-1.609,6.412-2.119,9.682c-0.207,1.646-0.429,3.294-0.512,4.891c-0.162,1.546-0.135,3.392-0.198,5.108l0.06,2.396
		c0,0.83,0.067,1.655,0.132,2.481c0.086,1.656,0.309,3.298,0.515,4.941c0.515,3.269,1.17,6.517,2.113,9.684
		c1.883,6.331,4.658,12.373,8.188,17.894c1.798,2.736,3.731,5.381,5.878,7.829c2.153,2.439,4.439,4.746,6.868,6.872
		c4.857,4.247,10.254,7.794,15.968,10.466c0.706,0.353,1.425,0.677,2.153,0.969l2.171,0.909c1.474,0.527,2.921,1.119,4.415,1.548
		c2.955,0.975,5.975,1.643,8.979,2.198c1.509,0.225,3.021,0.498,4.501,0.615c0.749,0.071,1.473,0.169,2.237,0.219
		c0.773,0.04,1.544,0.079,2.312,0.118c1.459,0.105,2.979,0.031,4.455,0.058c1.479-0.08,2.959-0.104,4.417-0.252
		c5.837-0.532,11.484-1.708,16.724-3.555c5.234-1.854,10.085-4.258,14.455-7.031c8.769-5.559,15.401-12.693,20.145-19.681
		c4.793-7.003,7.562-13.982,9.228-19.832c1.681-5.87,2.201-10.674,2.427-13.927c0.16-1.628,0.132-2.884,0.173-3.728
		C381.825,159.882,381.837,159.446,381.837,159.446z"/>
</g>
<path d="M49.143,206.908c0,0-9.066,72.595,38.292,106.735c21.651,1.4,28.339,0.026,31.907-0.132
	c-24.108-27.979-51.765-71.989-39.29-128.518C71.624,190.192,49.143,206.908,49.143,206.908z"/>
<path d="M101.717,171.605c-7.673,37.503,5.114,101.438,46.946,137.743c19.736-2.803,27.658-6.359,31.228-6.52
	c-20.84-26.192-55.812-81.826-42.456-141.104C127.642,164.482,113.569,166.925,101.717,171.605z"/>
<path d="M160.846,159.446c-5.444,28.548,7.244,98.133,46.812,131.721c17.537-4.812,26.801-13.168,30.372-13.326
	c-23.945-26.01-47.735-69.625-37.641-123.508C187.077,154.612,174.038,156.273,160.846,159.446z"/>
<g>
	
		<ellipse transform="matrix(-0.1572 -0.9876 0.9876 -0.1572 304.9024 509.8908)" fill="#FFFFFF" cx="370.027" cy="124.841" rx="27.233" ry="22.114"/>
	<path d="M391.851,121.37c0,0,0.073,0.604,0.212,1.732c0.035,0.281,0.073,0.598,0.116,0.944c0.027,0.35,0.031,0.731,0.053,1.144
		c0.034,0.825,0.089,1.773,0.024,2.837c-0.012,2.129-0.366,4.708-1.102,7.593c-0.762,2.878-2.109,6.028-4.281,9.063
		c-1.059,1.542-2.453,2.933-4,4.264c-0.414,0.302-0.83,0.607-1.251,0.915c-0.213,0.151-0.419,0.316-0.642,0.457l-0.69,0.392
		c-0.467,0.256-0.927,0.543-1.416,0.779c-0.503,0.209-1.01,0.42-1.521,0.632c-0.505,0.239-1.051,0.359-1.594,0.516l-0.819,0.225
		l-0.414,0.113l-0.476,0.073c-0.53,0.079-1.063,0.159-1.602,0.239c-0.532,0.084-1.187,0.056-1.786,0.082
		c-2.43,0.017-4.838-0.345-7.163-1.236c-4.673-1.665-8.856-4.977-11.886-9.143c-0.812-1.01-1.443-2.141-2.142-3.239
		c-0.31-0.569-0.585-1.157-0.878-1.739l-0.434-0.876l-0.36-0.906l-0.717-1.821l-0.553-1.876c-0.201-0.623-0.349-1.257-0.469-1.897
		l-0.408-2.021l-0.205-1.809l-0.102-0.905l-0.041-1.007l-0.062-2.024c0.021-0.656,0.073-1.304,0.11-1.955l0.062-0.974l0.141-0.967
		c0.098-0.645,0.179-1.289,0.293-1.928c0.313-1.263,0.568-2.532,1.026-3.746c1.588-4.899,4.53-9.354,8.463-12.387
		c1.917-1.567,4.146-2.674,6.396-3.39c2.23-0.771,4.618-0.972,6.731-0.899c0.567,0.043,1.132,0.085,1.691,0.128
		c0.546,0.074,1.066,0.203,1.592,0.303l0.779,0.158c0.255,0.066,0.503,0.159,0.752,0.236c0.495,0.162,0.985,0.323,1.473,0.483
		c1.886,0.786,3.644,1.676,5.128,2.813c3.007,2.213,5.263,4.792,6.881,7.291c1.594,2.516,2.729,4.858,3.401,6.878
		c0.392,0.991,0.631,1.909,0.855,2.704c0.108,0.398,0.224,0.763,0.305,1.104c0.067,0.343,0.129,0.654,0.185,0.935
		C391.733,120.774,391.851,121.37,391.851,121.37z M391.851,121.37c0,0-0.123-0.594-0.354-1.709
		c-0.058-0.278-0.122-0.589-0.191-0.932c-0.085-0.339-0.203-0.702-0.316-1.1c-0.233-0.791-0.473-1.71-0.9-2.684
		c-0.726-1.991-1.922-4.303-3.659-6.671c-1.74-2.354-4.068-4.797-7.146-6.61c-1.503-0.957-3.231-1.637-5.023-2.208
		c-0.462-0.098-0.926-0.196-1.395-0.297c-0.233-0.046-0.464-0.107-0.701-0.143l-0.719-0.066c-0.479-0.037-0.964-0.105-1.44-0.12
		c-0.469,0.014-0.939,0.027-1.416,0.041c-2.038,0.151-3.976,0.535-5.822,1.399l-0.697,0.293c-0.226,0.114-0.441,0.252-0.663,0.376
		c-0.436,0.264-0.894,0.486-1.312,0.78c-0.411,0.305-0.823,0.611-1.237,0.92c-0.422,0.292-0.774,0.688-1.166,1.024
		c-1.509,1.425-2.852,3.093-3.867,4.99l-0.407,0.692l-0.35,0.731c-0.224,0.493-0.485,0.966-0.684,1.474
		c-0.379,1.022-0.788,2.034-1.04,3.11c-0.34,1.046-0.471,2.154-0.698,3.235c-0.079,0.549-0.129,1.104-0.197,1.655l-0.097,0.827
		l-0.025,0.838l-0.055,1.672l0.062,1.609l0.031,0.812l0.11,0.902l0.219,1.809c-0.025-0.189-0.001-0.023-0.004-0.052l0.011,0.052
		l0.021,0.103l0.04,0.207l0.082,0.414l0.161,0.827c0.096,0.554,0.217,1.102,0.388,1.637l0.455,1.617l0.566,1.576
		c0.79,2.084,1.777,4.091,2.998,5.919c0.575,0.945,1.278,1.78,1.956,2.636c0.346,0.42,0.742,0.789,1.108,1.188l0.559,0.587
		l0.601,0.536c1.558,1.487,3.353,2.657,5.229,3.543c0.479,0.2,0.938,0.463,1.428,0.615c0.49,0.163,0.979,0.327,1.463,0.489
		c0.49,0.15,0.996,0.219,1.492,0.334c0.248,0.049,0.5,0.113,0.745,0.151l0.722,0.062c0.494,0.026,0.934,0.13,1.479,0.104
		c0.542-0.023,1.081-0.046,1.616-0.069l0.201-0.009l0.1-0.004l0.051-0.002c0.034-0.002-0.116,0.015-0.031,0.004l0.367-0.062
		l0.732-0.121c0.485-0.085,0.982-0.135,1.443-0.303c0.474-0.139,0.941-0.276,1.406-0.415c0.457-0.163,0.893-0.378,1.337-0.562
		l0.663-0.286c0.215-0.106,0.415-0.237,0.623-0.354c0.414-0.24,0.824-0.479,1.231-0.716c1.525-1.1,2.96-2.285,4.092-3.661
		c2.363-2.68,3.813-5.729,4.739-8.505c0.917-2.791,1.335-5.36,1.406-7.479c0.104-1.06,0.046-2.006,0.022-2.83
		c-0.016-0.412-0.016-0.794-0.041-1.144c-0.039-0.348-0.074-0.663-0.106-0.945C391.918,121.973,391.851,121.37,391.851,121.37z"/>
</g>
<ellipse transform="matrix(-0.0168 -0.9999 0.9999 -0.0168 259.8306 508.5881)" cx="379.962" cy="126.549" rx="10.119" ry="6.568"/>
<g>
	<path fill="#FFFFFF" d="M185.737,178.479c-13.845-18.091-21.704-92.994-66.395-120.688c-19.95-12.363-52.141-12.458-85.665,6.497
		C-50.776,112.04,162.143,176.1,169.28,178.479C176.119,178.479,185.737,178.479,185.737,178.479z"/>
	<path d="M185.737,178.479c-2.865-3.705-4.881-8.021-6.725-12.315c-1.823-4.323-3.438-8.724-5.034-13.122
		c-3.188-8.8-6.208-17.639-9.596-26.315c-3.384-8.673-6.998-17.246-11.285-25.442c-1.034-2.069-2.202-4.061-3.312-6.083
		c-1.193-1.971-2.306-3.991-3.577-5.907c-2.434-3.901-5.134-7.615-8.01-11.161l-2.196-2.625l-2.316-2.506
		c-0.391-0.413-0.766-0.842-1.167-1.241l-1.226-1.182c-0.827-0.775-1.609-1.6-2.469-2.337l-2.577-2.205
		c-0.84-0.759-1.79-1.375-2.675-2.072c-1.755-1.423-3.695-2.569-5.557-3.828l-2.962-1.635c-1.04-0.625-2.006-0.953-2.999-1.414
		c-0.983-0.438-1.958-0.889-3.037-1.222c-1.055-0.355-2.097-0.746-3.158-1.079c-2.165-0.546-4.301-1.191-6.523-1.518
		c-2.188-0.471-4.432-0.646-6.66-0.894c-4.479-0.297-8.994-0.331-13.49,0.132c-1.123,0.116-2.251,0.165-3.37,0.335l-3.355,0.513
		l-1.677,0.255l-1.662,0.359l-3.324,0.715c-8.838,2.069-17.375,5.443-25.5,9.591c-7.971,4.123-16.175,8.96-20.632,15.936
		l-0.771,1.313c-0.284,0.429-0.411,0.908-0.629,1.355c-0.459,0.896-0.652,1.854-0.942,2.788c-0.359,1.905-0.495,3.854-0.153,5.813
		c0.651,3.92,2.672,7.769,5.286,11.25c5.357,6.962,12.554,12.807,20.051,18.052c7.566,5.219,15.577,9.883,23.761,14.245
		c8.172,4.39,16.547,8.447,25.021,12.295c8.482,3.834,17.038,7.538,25.678,11.047c8.644,3.502,17.342,6.889,26.087,10.158
		c8.757,3.25,17.534,6.403,26.392,9.45l-0.166-0.027L185.737,178.479z M185.737,178.479l-16.458,0.525l-0.064,0.002l-0.102-0.028
		c-8.979-2.557-17.967-5.229-26.866-8.126c-4.456-1.438-8.899-2.913-13.333-4.424c-4.428-1.527-8.838-3.107-13.238-4.72
		c-8.793-3.238-17.554-6.597-26.186-10.287c-8.642-3.665-17.204-7.55-25.614-11.797c-8.409-4.245-16.633-8.917-24.549-14.183
		c-3.94-2.661-7.795-5.49-11.467-8.608c-3.667-3.119-7.17-6.527-10.194-10.482c-0.736-1.007-1.463-2.029-2.146-3.087
		c-0.633-1.104-1.34-2.15-1.863-3.343c-1.192-2.271-1.989-4.834-2.48-7.463c-0.472-2.659-0.338-5.441,0.186-8.115
		c0.366-1.308,0.679-2.646,1.265-3.854c0.281-0.605,0.491-1.263,0.84-1.822l0.993-1.716c0.312-0.591,0.724-1.088,1.104-1.617
		l1.161-1.562c0.859-0.938,1.688-1.923,2.587-2.811c0.927-0.842,1.821-1.74,2.782-2.527c0.977-0.766,1.929-1.555,2.928-2.295
		l3.093-2.124c1.012-0.648,2.005-1.219,3.011-1.826l0.752-0.45l0.188-0.112l0.271-0.147l0.396-0.21l1.584-0.838l3.17-1.676
		c8.535-4.302,17.533-7.811,26.919-9.963c9.369-2.146,19.104-3.119,28.784-2.192c2.413,0.3,4.832,0.534,7.214,1.077
		c2.404,0.396,4.744,1.127,7.098,1.769c1.161,0.382,2.307,0.825,3.458,1.236c0.575,0.224,1.151,0.389,1.724,0.661l1.716,0.788
		c1.119,0.536,2.352,1.033,3.309,1.634l3.146,1.805c4.068,2.646,7.92,5.604,11.423,8.92c0.895,0.809,1.705,1.7,2.56,2.546
		l1.267,1.285c0.415,0.435,0.799,0.895,1.2,1.341l2.375,2.703l2.233,2.809c2.917,3.786,5.625,7.72,8.039,11.811
		c1.256,2.019,2.371,4.111,3.519,6.186c1.066,2.113,2.192,4.198,3.175,6.347c4.075,8.53,7.477,17.319,10.517,26.198
		c3.001,8.895,5.708,17.856,8.396,26.803c1.353,4.471,2.739,8.927,4.297,13.319C181.415,170.224,183.114,174.59,185.737,178.479z"/>
</g>
<path fill="none" stroke="#000000" stroke-width="3.5685" stroke-miterlimit="10" d="M356.743,78.274
	c11.42-16.708,27.889-17.787,36.791-11.514"/>
<ellipse transform="matrix(0.3655 -0.9308 0.9308 0.3655 187.5645 419.9387)" cx="401.815" cy="72.387" rx="9.665" ry="9.312"/>
<path fill="none" stroke="#000000" stroke-width="3.5685" stroke-miterlimit="10" d="M308.337,80.323
	c2.38-43.132,32.117-58.597,52.338-53.837"/>
<circle cx="377.012" cy="30.053" r="15.576"/>
<g>
	
		<ellipse transform="matrix(-0.1572 -0.9876 0.9876 -0.1572 279.7362 457.9154)" fill="#FFFFFF" cx="335.263" cy="109.593" rx="42.536" ry="34.54"/>
	<path d="M369.358,104.177c0,0,0.114,0.94,0.328,2.705c0.054,0.441,0.112,0.935,0.179,1.477c0.044,0.544,0.05,1.142,0.08,1.786
		c0.051,1.289,0.139,2.77,0.03,4.429c-0.04,0.829-0.039,1.707-0.119,2.621c-0.109,0.912-0.226,1.866-0.345,2.861
		c-0.083,1.002-0.35,2.014-0.544,3.08c-0.105,0.531-0.214,1.072-0.323,1.624c-0.132,0.545-0.309,1.089-0.464,1.647
		c-1.243,4.463-3.316,9.386-6.762,14.052c-1.667,2.376-3.853,4.509-6.266,6.543c-0.645,0.459-1.294,0.922-1.949,1.391
		c-0.331,0.229-0.651,0.479-0.998,0.693l-1.073,0.593c-0.726,0.386-1.438,0.818-2.195,1.174c-0.778,0.312-1.562,0.628-2.354,0.944
		c-0.779,0.359-1.623,0.534-2.459,0.763l-1.265,0.332l-0.636,0.166c0.055-0.004-0.165,0.029-0.171,0.028l-0.077,0.012l-0.155,0.021
		l-0.311,0.042c-0.829,0.113-1.663,0.227-2.504,0.34c-0.401,0.079-0.878,0.065-1.337,0.075l-1.393,0.018l-1.406,0.009
		c-0.46-0.027-0.909-0.094-1.367-0.139c-0.907-0.117-1.841-0.168-2.75-0.352c-0.904-0.21-1.814-0.422-2.729-0.634
		c-0.466-0.088-0.904-0.255-1.347-0.417l-1.333-0.48c-3.536-1.334-6.963-3.213-9.983-5.662c-3.051-2.406-5.834-5.25-8.122-8.479
		c-1.233-1.56-2.183-3.304-3.238-4.996c-0.468-0.877-0.889-1.78-1.335-2.673l-0.66-1.346l-0.55-1.392l-1.089-2.796l-0.845-2.88
		c-0.138-0.481-0.287-0.96-0.413-1.444l-0.304-1.47l-0.618-3.064l-0.323-2.825l-0.161-1.413c-0.031-0.498-0.041-1.023-0.062-1.534
		l-0.097-3.082c0.033-1.004,0.107-2,0.162-2.999l0.091-1.495l0.209-1.483c0.146-0.986,0.27-1.977,0.439-2.956
		c0.471-1.938,0.837-3.892,1.524-5.756c0.335-0.933,0.562-1.896,0.986-2.793c0.396-0.903,0.789-1.807,1.184-2.707
		c0.408-0.892,0.925-1.733,1.382-2.597l0.708-1.281l0.824-1.21c2.113-3.267,4.789-6.118,7.738-8.483
		c0.765-0.563,1.455-1.207,2.269-1.688c0.804-0.486,1.604-0.97,2.399-1.451c0.809-0.457,1.68-0.793,2.508-1.188
		c0.42-0.186,0.829-0.39,1.255-0.555l1.304-0.414c3.408-1.221,7.05-1.571,10.337-1.503c0.868,0.057,1.731,0.112,2.588,0.167
		c0.84,0.104,1.646,0.294,2.458,0.437l1.205,0.229c0.396,0.097,0.778,0.235,1.165,0.351c0.768,0.242,1.529,0.48,2.284,0.719
		c2.926,1.188,5.665,2.536,7.987,4.278c4.723,3.368,8.22,7.407,10.785,11.265c0.321,0.483,0.658,0.945,0.952,1.423
		c0.275,0.489,0.546,0.971,0.812,1.443c0.517,0.952,1.082,1.833,1.472,2.759c0.423,0.909,0.828,1.78,1.216,2.613
		c0.359,0.844,0.631,1.679,0.927,2.454c0.617,1.544,0.993,2.979,1.346,4.22c0.172,0.621,0.352,1.191,0.479,1.722
		c0.105,0.536,0.202,1.023,0.288,1.459C369.175,103.247,369.358,104.177,369.358,104.177z M369.358,104.177
		c0,0-0.19-0.93-0.549-2.671c-0.089-0.435-0.188-0.921-0.3-1.456c-0.131-0.529-0.313-1.098-0.49-1.717
		c-0.362-1.235-0.736-2.671-1.397-4.195c-1.124-3.116-2.981-6.73-5.652-10.471c-2.68-3.718-6.344-7.526-11.124-10.445
		c-2.346-1.529-5.053-2.634-7.868-3.567c-0.726-0.165-1.455-0.332-2.191-0.5c-0.368-0.078-0.731-0.181-1.104-0.241l-1.136-0.121
		c-0.757-0.069-1.521-0.189-2.278-0.222c-0.75,0.01-1.505,0.021-2.266,0.031c-0.73-0.04-1.568,0.12-2.385,0.224l-1.232,0.168
		l-0.617,0.084c-0.108,0.016,0.059-0.009,0.016,0.001l-0.071,0.021l-0.144,0.039l-0.287,0.077c-0.764,0.205-1.532,0.411-2.305,0.618
		c-0.772,0.199-1.493,0.58-2.245,0.858l-1.12,0.452c-0.362,0.176-0.71,0.39-1.067,0.583c-0.7,0.411-1.438,0.755-2.114,1.214
		c-0.663,0.478-1.329,0.958-1.998,1.438c-0.683,0.46-1.251,1.082-1.887,1.614c-2.439,2.245-4.618,4.885-6.28,7.892l-0.662,1.101
		l-0.563,1.165c-0.361,0.784-0.782,1.539-1.103,2.347c-0.609,1.63-1.273,3.24-1.7,4.948c-0.558,1.664-0.795,3.424-1.17,5.146
		c-0.131,0.874-0.215,1.759-0.327,2.638l-0.16,1.319l-0.046,1.334l-0.098,2.667l0.101,2.596c0.02,0.436,0.021,0.858,0.05,1.306
		l0.171,1.411l0.341,2.824l0.505,2.512l0.258,1.317c0.109,0.433,0.242,0.858,0.362,1.29l0.729,2.576l0.915,2.51l0.459,1.254
		l0.562,1.206c0.379,0.801,0.734,1.613,1.128,2.405c0.887,1.524,1.663,3.122,2.708,4.532c0.512,0.709,0.94,1.486,1.515,2.144
		l1.636,2.037c0.557,0.668,1.19,1.256,1.778,1.889l0.897,0.933l0.969,0.846c2.516,2.342,5.407,4.175,8.426,5.553
		c0.769,0.31,1.505,0.72,2.294,0.952c0.786,0.25,1.569,0.5,2.349,0.748c0.786,0.227,1.596,0.324,2.391,0.498
		c0.396,0.071,0.799,0.167,1.192,0.223l1.166,0.081l1.166,0.089c0.393,0.027,0.767,0.083,1.203,0.036
		c0.847-0.047,1.688-0.095,2.521-0.143l0.529-0.029l0.582-0.106l1.161-0.21c0.771-0.146,1.558-0.238,2.285-0.513
		c0.745-0.231,1.484-0.462,2.219-0.69c0.721-0.27,1.403-0.62,2.104-0.922l1.041-0.468c0.337-0.172,0.649-0.384,0.977-0.572
		c0.647-0.389,1.29-0.774,1.928-1.157c2.389-1.764,4.618-3.653,6.372-5.836c3.64-4.26,5.938-9.02,7.329-13.387
		c1.378-4.384,2.021-8.397,2.122-11.708c0.155-1.654,0.064-3.134,0.026-4.422c-0.025-0.644-0.027-1.24-0.066-1.785
		c-0.062-0.543-0.117-1.036-0.168-1.478C369.466,105.119,369.358,104.177,369.358,104.177z"/>
</g>
<ellipse transform="matrix(-0.1572 -0.9876 0.9876 -0.1572 291.1346 472.5453)" cx="347.208" cy="112.042" rx="18.092" ry="11.747"/>
<g>
	<path d="M278.712,154.333c0,0,0.625,1.542,1.72,4.239c0.554,1.337,1.227,2.96,1.998,4.822c0.792,1.847,1.729,3.905,2.772,6.129
		c1.083,2.205,2.278,4.575,3.649,7.01c1.382,2.428,2.912,4.939,4.639,7.423s3.59,4.985,5.679,7.352
		c2.073,2.375,4.291,4.688,6.712,6.767c1.168,1.09,2.44,2.052,3.68,3.045c0.624,0.492,1.291,0.922,1.925,1.394
		c0.644,0.459,1.271,0.937,1.947,1.338c1.325,0.841,2.635,1.688,3.995,2.414c1.327,0.79,2.708,1.435,4.058,2.1
		c1.326,0.714,2.74,1.17,4.057,1.786c1.336,0.57,2.695,0.996,3.995,1.486c2.646,0.836,5.176,1.59,7.562,2.13
		c1.183,0.322,2.339,0.517,3.438,0.728c1.099,0.207,2.139,0.455,3.129,0.597c1.981,0.249,3.714,0.588,5.152,0.733
		c2.876,0.292,4.54,0.516,4.54,0.516s-1.648,0.192-4.568,0.431c-1.46,0.111-3.235,0.111-5.284,0.134
		c-1.022,0.006-2.106-0.086-3.259-0.13c-1.15-0.05-2.358-0.136-3.612-0.316c-1.252-0.177-2.576-0.271-3.921-0.539
		c-1.342-0.268-2.74-0.517-4.156-0.871c-1.404-0.396-2.876-0.728-4.338-1.209c-0.729-0.25-1.466-0.503-2.209-0.758
		c-0.371-0.13-0.744-0.261-1.119-0.393l-1.104-0.464c-0.739-0.313-1.484-0.629-2.234-0.948c-0.753-0.314-1.469-0.723-2.212-1.085
		c-0.731-0.385-1.495-0.728-2.215-1.154c-0.72-0.429-1.441-0.86-2.168-1.293c-0.737-0.416-1.429-0.91-2.134-1.387
		c-0.7-0.484-1.421-0.946-2.098-1.47c-1.346-1.059-2.727-2.084-3.989-3.248c-1.311-1.115-2.504-2.348-3.72-3.548
		c-0.599-0.608-1.153-1.256-1.724-1.885c-0.577-0.624-1.124-1.269-1.646-1.929c-2.165-2.581-4.026-5.324-5.69-8.041
		c-1.688-2.706-3.038-5.475-4.261-8.105c-1.24-2.627-2.177-5.206-3.011-7.582c-1.635-4.771-2.578-8.85-3.155-11.708
		c-0.304-1.426-0.48-2.561-0.622-3.327C278.779,154.744,278.712,154.333,278.712,154.333z"/>
</g>
<g>
	<path fill="#FFFFFF" d="M90.964,123.131c10.585,2.07,56.289,29.213,56.289,29.213"/>
	<path d="M90.964,123.131c0,0,0.252,0.018,0.726,0.051c0.468,0.058,1.167,0.061,2.033,0.217c0.862,0.182,1.941,0.387,3.167,0.707
		c1.18,0.341,2.522,0.72,3.965,1.193c1.42,0.505,2.962,1.058,4.568,1.69c1.592,0.656,3.275,1.347,4.981,2.125
		c1.701,0.784,3.463,1.594,5.212,2.486c1.754,0.88,3.526,1.802,5.276,2.753c1.74,0.97,3.489,1.925,5.171,2.936
		c1.694,0.985,3.338,1.998,4.915,3c3.16,1.994,6.037,3.976,8.457,5.746c2.417,1.778,4.38,3.342,5.729,4.478
		c1.354,1.13,2.09,1.832,2.09,1.832s-0.97-0.312-2.613-0.939c-1.648-0.621-3.97-1.562-6.712-2.759
		c-2.739-1.204-5.888-2.685-9.217-4.34c-1.661-0.835-3.377-1.694-5.099-2.607c-1.718-0.917-3.463-1.849-5.209-2.781
		c-1.725-0.971-3.469-1.895-5.154-2.87c-1.691-0.961-3.356-1.896-4.952-2.845c-1.601-0.932-3.145-1.83-4.599-2.715
		c-1.459-0.864-2.838-1.68-4.103-2.465c-1.275-0.743-2.438-1.452-3.47-2.089c-1.027-0.562-1.923-1.101-2.681-1.543
		c-0.79-0.396-1.41-0.708-1.833-0.921C91.19,123.249,90.964,123.131,90.964,123.131z"/>
</g>
<g>
	<line fill="none" x1="123.408" y1="107.663" x2="154.913" y2="148.861"/>
	<path d="M123.408,107.663c0,0,0.671,0.507,1.762,1.458c1.1,0.945,2.62,2.332,4.353,4.068c1.734,1.733,3.684,3.813,5.681,6.113
		c1,1.146,2.017,2.347,3.021,3.588c1.016,1.231,2.006,2.514,3.002,3.793c0.973,1.296,1.954,2.586,2.877,3.889
		c0.938,1.291,1.825,2.589,2.674,3.853c1.695,2.529,3.191,4.955,4.411,7.083c1.221,2.128,2.161,3.958,2.783,5.269
		c0.631,1.303,0.942,2.084,0.942,2.084s-0.672-0.506-1.765-1.456c-1.102-0.943-2.622-2.331-4.355-4.066
		c-1.734-1.732-3.684-3.812-5.68-6.112c-0.997-1.15-2.019-2.347-3.018-3.59c-1.017-1.232-2.005-2.518-3-3.796
		c-0.974-1.296-1.951-2.589-2.874-3.891c-0.936-1.294-1.826-2.589-2.672-3.854c-1.694-2.53-3.191-4.956-4.41-7.084
		c-1.223-2.127-2.163-3.958-2.786-5.267C123.722,108.443,123.408,107.663,123.408,107.663z"/>
</g>
<path fill="none" stroke="#000000" stroke-width="6.2401" stroke-miterlimit="10" d="M223.343,279.309
	c6.935,7.627,29.814,30.265,46.455,30.039"/>
<path fill="none" stroke="#000000" stroke-width="6.2401" stroke-miterlimit="10" d="M214.848,272.148
	c3.836,9.564,17.377,38.767,33.05,44.362"/>
</svg>
