<?xml version="1.0" encoding="utf-8"?>
<!-- Generator: Adobe Illustrator 16.0.0, SVG Export Plug-In . SVG Version: 6.00 Build 0)  -->
<!DOCTYPE svg PUBLIC "-//W3C//DTD SVG 1.1//EN" "http://www.w3.org/Graphics/SVG/1.1/DTD/svg11.dtd">
<svg version="1.1" id="Calque_1" xmlns="http://www.w3.org/2000/svg" xmlns:xlink="http://www.w3.org/1999/xlink" x="0px" y="0px"
	 width="462px" height="404px" viewBox="0 0 462 404" enable-background="new 0 0 462 404" xml:space="preserve">
<g>
	<path fill-rule="evenodd" clip-rule="evenodd" fill="#FFFFFF" d="M159.96,173.749c5.273-15.385-30.381-108.016-6.401-136.891
		c10.706-12.893,32.476-20.25,59.467-15.013c67.996,13.19-37.632,144.947-41.923,148.175
		C166.472,171.57,159.96,173.749,159.96,173.749z"/>
	<g>
		<path d="M159.96,173.749c0.514-1.937,0.399-3.945,0.25-5.914c-0.172-1.974-0.476-3.937-0.824-5.89
			c-0.688-3.909-1.539-7.792-2.439-11.667l-5.571-23.247c-1.836-7.767-3.532-15.581-5.029-23.455
			c-1.508-7.873-2.683-15.833-3.387-23.889c-0.344-4.029-0.57-8.083-0.566-12.167c-0.004-4.083,0.199-8.196,0.812-12.315
			c0.591-4.113,1.553-8.252,3.197-12.255c0.808-2.002,1.824-3.961,3.057-5.812c0.296-0.47,0.615-0.927,0.964-1.368l0.509-0.669
			c0.104-0.13,0.127-0.18,0.297-0.376l0.242-0.284c0.343-0.39,0.602-0.733,1.013-1.163c0.382-0.405,0.768-0.842,1.152-1.218
			c6.095-6.183,13.913-10.171,21.958-12.511c8.082-2.342,16.491-3.093,24.759-2.692c4.14,0.186,8.25,0.69,12.302,1.449l0.76,0.14
			l0.798,0.163c0.503,0.114,0.936,0.188,1.503,0.337c1.096,0.265,2.129,0.556,3.163,0.889c2.068,0.669,4.114,1.518,6.077,2.594
			c3.926,2.118,7.501,5.324,9.871,9.271c2.409,3.933,3.604,8.383,4.034,12.698c0.438,4.336,0.132,8.598-0.514,12.724
			c-0.652,4.129-1.659,8.14-2.862,12.057c-2.429,7.83-5.592,15.314-9.151,22.558c-3.582,7.235-7.524,14.25-11.687,21.111
			c-4.145,6.873-8.606,13.535-13.188,20.097c-4.576,6.567-9.359,12.981-14.312,19.257c-2.478,3.137-4.971,6.26-7.558,9.31
			c-1.292,1.526-2.594,3.042-3.921,4.541l-2.014,2.231l-1.038,1.098c-0.372,0.371-0.669,0.706-1.168,1.101l-0.079,0.062
			l-0.085,0.024L159.96,173.749z M159.96,173.749l10.959-4.278l-0.164,0.086c0.267-0.244,0.625-0.665,0.931-1.023l0.938-1.143
			l1.834-2.34c1.209-1.574,2.397-3.167,3.573-4.77c2.342-3.211,4.677-6.428,6.947-9.691c2.275-3.258,4.509-6.545,6.701-9.856
			c2.205-3.303,4.383-6.623,6.508-9.974c4.264-6.694,8.308-13.517,12.213-20.398c3.882-6.894,7.529-13.909,10.789-21.069
			c3.263-7.151,6.22-14.434,8.352-21.881c2.119-7.41,3.47-15.104,2.754-22.335c-0.382-3.592-1.373-7.015-3.161-9.884
			c-1.766-2.881-4.332-5.185-7.414-6.832c-1.537-0.83-3.189-1.508-4.914-2.054c-0.864-0.273-1.751-0.515-2.593-0.713
			c-0.396-0.108-0.945-0.205-1.415-0.308l-0.666-0.132l-0.71-0.125c-3.787-0.662-7.597-1.174-11.418-1.367
			c-7.632-0.422-15.317,0.235-22.568,2.287c-7.222,2.056-14.048,5.55-19.303,10.633c-0.334,0.313-0.611,0.623-0.921,0.933
			c-0.291,0.278-0.649,0.719-0.971,1.071l-0.248,0.279c0.003-0.011-0.115,0.145-0.166,0.209l-0.404,0.513
			c-0.279,0.333-0.537,0.688-0.778,1.059c-1.004,1.443-1.872,3.021-2.585,4.7c-1.454,3.343-2.402,7.007-3.014,10.762
			c-1.197,7.531-1.305,15.387-0.879,23.216c0.415,7.843,1.382,15.694,2.479,23.541c1.114,7.847,2.504,15.672,3.913,23.506
			c1.38,7.841,2.916,15.667,4.184,23.556c0.628,3.945,1.233,7.899,1.627,11.886c0.187,1.994,0.328,3.995,0.336,6.001
			C160.693,169.807,160.635,171.86,159.96,173.749z"/>
	</g>
</g>
<ellipse transform="matrix(0.9629 -0.2699 0.2699 0.9629 -54.5529 49.3365)" fill-rule="evenodd" clip-rule="evenodd" fill="#FFBF0F" stroke="#000000" stroke-width="6" stroke-miterlimit="10" cx="152.098" cy="223.008" rx="128.419" ry="70.909"/>
<g>
	<circle fill-rule="evenodd" clip-rule="evenodd" fill="#FFBF0F" cx="304.106" cy="151.333" r="68.323"/>
	<g>
		<path d="M372.429,151.333c0,0-0.009,0.419-0.026,1.231c-0.033,0.811,0.002,2.019-0.141,3.586
			c-0.191,3.134-0.68,7.753-2.234,13.426c-0.729,2.848-1.833,5.918-3.212,9.18c-1.392,3.257-3.142,6.685-5.357,10.138
			c-4.402,6.91-10.71,13.942-19.037,19.783c-8.326,5.786-18.756,10.269-30.429,11.839c-1.453,0.218-2.931,0.317-4.414,0.467
			c-1.496,0.048-2.972,0.193-4.516,0.162c-0.739-0.002-1.481-0.004-2.226-0.006c-0.749-0.011-1.532-0.073-2.302-0.108
			c-1.559-0.051-3.079-0.249-4.625-0.405c-3.073-0.413-6.179-0.946-9.242-1.792c-1.548-0.367-3.056-0.894-4.592-1.364
			c-0.759-0.261-1.509-0.554-2.266-0.833c-0.762-0.27-1.511-0.573-2.251-0.904c-5.982-2.507-11.708-5.935-16.932-10.141
			c-5.209-4.228-9.848-9.293-13.729-14.959c-7.835-11.308-12.06-25.312-12.112-39.3c0.041-13.99,4.277-27.992,12.101-39.308
			c3.88-5.668,8.527-10.728,13.729-14.965c5.226-4.206,10.952-7.635,16.937-10.141c0.74-0.332,1.49-0.635,2.251-0.905l2.266-0.835
			c1.536-0.471,3.046-0.998,4.594-1.364c3.064-0.846,6.171-1.378,9.244-1.791c1.545-0.155,3.075-0.354,4.608-0.403
			c0.766-0.035,1.526-0.096,2.287-0.108c0.762-0.002,1.52-0.004,2.276-0.007l1.167,0.002l1.103,0.053
			c0.734,0.035,1.467,0.07,2.196,0.105c1.489,0.149,2.998,0.25,4.449,0.469c11.676,1.572,22.104,6.062,30.432,11.847
			c8.327,5.842,14.631,12.878,19.035,19.788c2.215,3.454,3.967,6.881,5.355,10.14c1.378,3.262,2.482,6.332,3.211,9.18
			c1.555,5.672,2.044,10.292,2.234,13.425c0.143,1.567,0.107,2.775,0.141,3.586C372.42,150.915,372.429,151.333,372.429,151.333z
			 M372.429,151.333c0,0-0.013-0.419-0.036-1.231c-0.04-0.811-0.016-2.019-0.172-3.584c-0.217-3.129-0.745-7.74-2.345-13.387
			c-1.581-5.627-4.224-12.348-8.826-19.092c-4.548-6.732-10.926-13.599-19.349-18.976c-4.199-2.682-8.863-5.009-13.901-6.808
			c-5.041-1.791-10.479-2.945-16.104-3.475c-1.407-0.147-2.803-0.173-4.223-0.255c-0.73-0.002-1.464-0.004-2.198-0.006l-1.104-0.002
			l-1.047,0.048c-0.722,0.035-1.446,0.07-2.173,0.105c-0.726,0.043-1.45,0.137-2.177,0.203c-1.458,0.111-2.906,0.37-4.365,0.582
			c-2.901,0.526-5.816,1.161-8.672,2.093c-2.868,0.88-5.69,1.987-8.448,3.279c-5.525,2.565-10.749,5.976-15.454,10.067
			c-2.362,2.038-4.569,4.271-6.657,6.624c-2.079,2.363-3.954,4.916-5.697,7.56c-3.419,5.335-6.136,11.164-7.976,17.288
			c-0.928,3.062-1.566,6.208-2.053,9.374c-0.198,1.592-0.41,3.189-0.487,4.741c-0.155,1.477-0.123,3.349-0.183,4.851
			c0.029,3.209,0.211,6.418,0.665,9.593c0.487,3.167,1.126,6.312,2.053,9.374c1.847,6.121,4.546,11.959,7.97,17.294
			c6.895,10.647,16.771,19.116,27.813,24.259c1.361,0.688,2.792,1.203,4.182,1.801c1.424,0.505,2.824,1.071,4.269,1.48
			c2.856,0.931,5.772,1.566,8.675,2.092c1.457,0.212,2.915,0.47,4.348,0.58c0.724,0.065,1.426,0.158,2.162,0.202
			c0.743,0.036,1.484,0.071,2.224,0.106c1.412,0.097,2.875,0.021,4.3,0.041c1.427-0.082,2.853-0.11,4.258-0.258
			c5.626-0.532,11.065-1.684,16.106-3.479c5.038-1.799,9.702-4.127,13.902-6.811c8.423-5.377,14.797-12.249,19.347-18.98
			c4.602-6.744,7.242-13.466,8.824-19.093c1.599-5.646,2.127-10.258,2.344-13.386c0.156-1.565,0.132-2.773,0.172-3.584
			C372.416,151.752,372.429,151.333,372.429,151.333z"/>
	</g>
</g>
<path fill-rule="evenodd" clip-rule="evenodd" d="M52.536,196.968c0,0-8.717,69.801,36.819,102.628
	c20.819,1.347,27.249,0.025,30.681-0.127c-23.182-26.901-49.773-69.219-37.779-123.571
	C74.152,180.896,52.536,196.968,52.536,196.968z"/>
<path fill-rule="evenodd" clip-rule="evenodd" d="M103.088,163.024c-7.378,36.061,4.917,97.535,45.14,132.443
	c18.977-2.694,26.594-6.115,30.025-6.269c-20.037-25.185-53.664-78.677-40.822-135.674
	C128.015,156.175,114.483,158.524,103.088,163.024z"/>
<path fill-rule="evenodd" clip-rule="evenodd" d="M159.941,151.333c-5.234,27.449,6.966,94.358,45.01,126.653
	c16.862-4.628,25.77-12.661,29.203-12.813c-23.023-25.009-45.898-66.946-36.192-118.756
	C185.163,146.685,172.626,148.283,159.941,151.333z"/>
<g>
	
		<ellipse transform="matrix(0.9876 -0.1572 0.1572 0.9876 -14.0691 58.2178)" fill-rule="evenodd" clip-rule="evenodd" fill="#FFFFFF" cx="361.06" cy="118.064" rx="21.261" ry="26.184"/>
	<g>
		<path d="M382.057,114.722c0,0,0.072,0.579,0.207,1.665c0.034,0.271,0.072,0.575,0.113,0.909c0.028,0.335,0.033,0.703,0.053,1.099
			c0.035,0.794,0.088,1.707,0.035,2.729c0.001,2.048-0.325,4.534-1.018,7.318c-0.727,2.772-1.935,5.854-4.02,8.821
			c-1.013,1.504-2.326,2.897-3.817,4.226c-0.809,0.578-1.567,1.291-2.496,1.776c-0.453,0.26-0.9,0.55-1.377,0.791
			c-0.491,0.215-0.985,0.432-1.484,0.65c-0.494,0.244-1.028,0.374-1.561,0.537l-0.806,0.237l-0.406,0.118l-0.489,0.083
			c-0.509,0.087-1.021,0.175-1.535,0.263c-0.509,0.092-1.181,0.079-1.777,0.115l-0.931,0.03c-0.301-0.009-0.59-0.042-0.888-0.062
			c-0.59-0.058-1.197-0.076-1.79-0.177c-0.592-0.12-1.187-0.239-1.783-0.36c-0.604-0.114-1.165-0.354-1.756-0.532
			c-2.323-0.794-4.578-1.97-6.565-3.518c-2.007-1.522-3.848-3.328-5.354-5.393c-0.811-0.999-1.44-2.113-2.136-3.2
			c-0.309-0.563-0.586-1.144-0.878-1.717l-0.433-0.866l-0.363-0.895l-0.717-1.799l-0.551-1.855
			c-0.199-0.616-0.347-1.243-0.467-1.876l-0.197-0.947l-0.098-0.474l-0.049-0.237l-0.024-0.119l-0.012-0.059
			c-0.013-0.082,0.011,0.1-0.031-0.199l-0.195-1.74l-0.096-0.87l-0.041-1.006l-0.059-2.028c0.021-0.65,0.078-1.292,0.118-1.936
			l0.067-0.963l0.143-0.957c0.1-0.637,0.185-1.274,0.3-1.906c0.316-1.251,0.576-2.505,1.034-3.708
			c0.782-2.436,1.984-4.72,3.412-6.795c1.412-2.087,3.188-3.91,5.153-5.387c1.935-1.521,4.17-2.584,6.413-3.253
			c2.219-0.721,4.603-0.88,6.65-0.767c0.563,0.052,1.124,0.104,1.681,0.156c0.538,0.083,1.046,0.219,1.561,0.326l0.761,0.171
			c0.249,0.069,0.49,0.165,0.733,0.245c0.48,0.168,0.958,0.335,1.431,0.501c1.831,0.802,3.514,1.718,4.942,2.837
			c2.902,2.176,5.006,4.732,6.556,7.143c1.522,2.432,2.602,4.695,3.237,6.642c0.368,0.956,0.6,1.839,0.813,2.604
			c0.104,0.383,0.214,0.734,0.291,1.061c0.063,0.331,0.122,0.631,0.175,0.899C381.945,114.149,382.057,114.722,382.057,114.722z
			 M382.057,114.722c0,0-0.119-0.571-0.343-1.643c-0.057-0.268-0.119-0.566-0.188-0.896c-0.082-0.326-0.196-0.675-0.306-1.056
			c-0.227-0.76-0.456-1.644-0.875-2.577c-0.709-1.909-1.873-4.124-3.554-6.386c-1.679-2.253-3.983-4.528-6.932-6.222
			c-1.444-0.896-3.114-1.49-4.819-1.993c-0.438-0.082-0.879-0.165-1.323-0.249c-0.222-0.039-0.44-0.092-0.665-0.119l-0.68-0.045
			c-0.451-0.023-0.91-0.079-1.355-0.08c-0.433,0.024-0.868,0.048-1.307,0.072c-1.946,0.189-3.72,0.594-5.421,1.443l-0.64,0.289
			c-0.207,0.111-0.404,0.246-0.606,0.366c-0.397,0.257-0.816,0.471-1.197,0.755c-0.372,0.293-0.747,0.587-1.122,0.883
			c-0.383,0.279-0.699,0.659-1.054,0.979c-1.353,1.362-2.564,2.92-3.477,4.694l-0.365,0.647l-0.309,0.686
			c-0.197,0.462-0.431,0.903-0.604,1.377c-0.325,0.959-0.69,1.899-0.921,2.898c-0.308,0.97-0.419,2.002-0.624,3.005
			c-0.069,0.51-0.111,1.025-0.171,1.538l-0.086,0.769l-0.017,0.778l-0.042,1.552l0.062,1.467l0.028,0.742l0.108,0.869l0.213,1.738
			c-0.036-0.263-0.005-0.045-0.01-0.092l0.009,0.048l0.02,0.096l0.038,0.192l0.075,0.384l0.148,0.769
			c0.087,0.516,0.197,1.026,0.355,1.522l0.418,1.504l0.518,1.467c0.72,1.941,1.621,3.812,2.741,5.514
			c0.529,0.878,1.161,1.665,1.772,2.473c0.312,0.397,0.671,0.745,1.003,1.122l0.506,0.557l0.547,0.505
			c1.421,1.401,3.057,2.512,4.768,3.386c0.437,0.195,0.856,0.455,1.307,0.606c0.449,0.164,0.897,0.328,1.343,0.49
			c0.451,0.152,0.916,0.225,1.374,0.346c0.229,0.052,0.463,0.118,0.688,0.16l0.653,0.074c0.456,0.035,0.835,0.149,1.362,0.135
			c0.521-0.012,1.041-0.023,1.557-0.034l0.193-0.004l0.097-0.002l0.049-0.001c0.039-0.003-0.17,0.022-0.062,0.008l0.344-0.049
			l0.688-0.097c0.457-0.068,0.925-0.102,1.36-0.248c0.446-0.12,0.889-0.239,1.329-0.357c0.434-0.143,0.846-0.336,1.27-0.5
			c0.428-0.16,0.844-0.338,1.228-0.574c0.397-0.218,0.791-0.435,1.182-0.649c1.464-1.009,2.869-2.093,3.962-3.395
			c2.276-2.527,3.759-5.407,4.654-8.071c0.895-2.673,1.312-5.14,1.394-7.174c0.108-1.018,0.052-1.928,0.031-2.721
			c-0.014-0.396-0.014-0.763-0.037-1.098c-0.037-0.334-0.07-0.638-0.101-0.91C382.12,115.302,382.057,114.722,382.057,114.722z"/>
	</g>
</g>
<ellipse transform="matrix(0.9999 -0.0168 0.0168 0.9999 -1.9601 6.2488)" fill-rule="evenodd" clip-rule="evenodd" cx="370.616" cy="119.682" rx="6.316" ry="9.729"/>
<g>
	<path fill-rule="evenodd" clip-rule="evenodd" fill="#FFFFFF" d="M183.875,169.634c-13.312-17.395-20.868-89.416-63.839-116.044
		c-19.184-11.888-50.135-11.979-82.369,6.247c-81.204,45.915,123.521,107.509,130.384,109.797
		C174.627,169.634,183.875,169.634,183.875,169.634z"/>
	<g>
		<path d="M183.875,169.634c-2.771-3.549-4.732-7.696-6.524-11.819c-1.771-4.152-3.338-8.38-4.892-12.604
			c-3.1-8.451-6.025-16.941-9.309-25.271c-3.278-8.325-6.767-16.552-10.904-24.41c-2.058-3.932-4.257-7.779-6.637-11.491
			c-2.342-3.74-4.938-7.295-7.7-10.688c-2.734-3.422-5.811-6.52-8.996-9.456l-2.47-2.105c-0.805-0.726-1.715-1.312-2.562-1.978
			c-1.681-1.359-3.537-2.453-5.319-3.655l-2.835-1.56c-1.005-0.603-1.916-0.906-2.862-1.344c-0.934-0.416-1.859-0.842-2.892-1.159
			c-1.007-0.339-2.002-0.71-3.016-1.026c-4.099-1.163-8.319-1.932-12.598-2.288c-4.283-0.28-8.601-0.305-12.902,0.14
			c-1.074,0.111-2.154,0.158-3.224,0.32l-3.21,0.493l-1.605,0.245l-1.59,0.345l-3.182,0.686c-8.46,1.985-16.637,5.22-24.42,9.196
			c-7.63,3.948-15.482,8.594-19.673,15.166l-0.726,1.235c-0.269,0.403-0.385,0.851-0.59,1.272c-0.433,0.84-0.61,1.734-0.884,2.606
			c-0.334,1.779-0.465,3.594-0.146,5.431c0.607,3.672,2.511,7.32,4.999,10.635c5.099,6.631,11.983,12.25,19.169,17.286
			c7.25,5.015,14.938,9.499,22.791,13.701c7.841,4.23,15.881,8.143,24.019,11.856c8.146,3.696,16.357,7.282,24.655,10.675
			c8.3,3.386,16.652,6.666,25.049,9.837c8.411,3.149,16.835,6.214,25.343,9.178l-0.183-0.029L183.875,169.634z M183.875,169.634
			l-15.824,0.578l-0.068,0.002l-0.115-0.032c-8.642-2.423-17.299-4.96-25.865-7.722c-4.29-1.37-8.569-2.774-12.837-4.214
			c-4.263-1.457-8.508-2.967-12.744-4.506c-8.466-3.096-16.903-6.301-25.213-9.839c-8.321-3.511-16.567-7.234-24.669-11.309
			c-8.101-4.073-16.024-8.566-23.659-13.633c-3.802-2.561-7.521-5.285-11.071-8.292c-3.544-3.008-6.935-6.3-9.868-10.136
			c-0.716-0.977-1.421-1.969-2.085-2.997c-0.617-1.074-1.303-2.089-1.814-3.251c-1.161-2.213-1.943-4.717-2.424-7.292
			c-0.462-2.604-0.334-5.338,0.18-7.962c0.357-1.283,0.666-2.595,1.238-3.778c0.275-0.593,0.482-1.238,0.822-1.783l0.97-1.679
			c0.306-0.578,0.706-1.062,1.075-1.578l1.132-1.525c0.836-0.912,1.645-1.873,2.517-2.735c0.899-0.817,1.77-1.692,2.702-2.455
			c0.945-0.742,1.868-1.507,2.837-2.226l3.001-2.062c0.977-0.626,1.929-1.172,2.898-1.757l0.723-0.432l0.181-0.108l0.272-0.149
			l0.382-0.202l1.529-0.808l3.059-1.615c8.234-4.147,16.918-7.53,25.982-9.605c9.045-2.07,18.45-3.007,27.807-2.1
			c4.675,0.469,9.313,1.392,13.839,2.767c1.124,0.371,2.231,0.8,3.346,1.2c1.112,0.367,2.225,0.889,3.334,1.41
			c1.084,0.521,2.288,1.01,3.203,1.585l3.039,1.748c3.931,2.561,7.649,5.424,11.026,8.633c3.33,3.244,6.504,6.643,9.282,10.327
			c2.809,3.657,5.413,7.454,7.731,11.4c1.207,1.948,2.279,3.965,3.378,5.966c1.023,2.038,2.103,4.049,3.044,6.12
			c3.903,8.226,7.16,16.692,10.059,25.243c2.859,8.567,5.44,17.192,7.991,25.805c1.284,4.304,2.602,8.592,4.08,12.821
			C179.757,161.68,181.37,165.881,183.875,169.634z"/>
	</g>
</g>
<path fill-rule="evenodd" clip-rule="evenodd" fill="none" stroke="#000000" stroke-width="3.4311" stroke-miterlimit="10" d="
	M348.301,73.285c10.98-16.066,26.815-17.103,35.375-11.071"/>
<ellipse transform="matrix(0.9308 0.3655 -0.3655 0.9308 51.815 -138.4637)" fill-rule="evenodd" clip-rule="evenodd" cx="391.639" cy="67.63" rx="8.953" ry="9.292"/>
<path fill-rule="evenodd" clip-rule="evenodd" fill="none" stroke="#000000" stroke-width="3.4311" stroke-miterlimit="10" d="
	M301.757,75.255c2.288-41.473,30.881-56.342,50.324-51.767"/>
<circle fill-rule="evenodd" clip-rule="evenodd" cx="367.79" cy="26.92" r="14.976"/>
<g>
	
		<ellipse transform="matrix(0.9876 -0.1572 0.1572 0.9876 -12.1801 52.7737)" fill-rule="evenodd" clip-rule="evenodd" fill="#FFFFFF" cx="327.634" cy="103.41" rx="33.208" ry="40.898"/>
	<g>
		<path d="M360.43,98.191c0,0,0.11,0.905,0.317,2.602c0.052,0.424,0.109,0.898,0.173,1.419c0.043,0.523,0.049,1.098,0.078,1.717
			c0.051,1.239,0.135,2.664,0.035,4.26c-0.037,0.797-0.034,1.642-0.108,2.521c-0.104,0.877-0.212,1.796-0.325,2.753
			c-0.079,0.964-0.33,1.938-0.514,2.964c-0.101,0.512-0.202,1.033-0.306,1.563c-0.125,0.525-0.293,1.049-0.441,1.588
			c-1.181,4.301-3.151,9.05-6.444,13.575c-1.595,2.303-3.691,4.376-6.014,6.359c-0.621,0.449-1.246,0.902-1.877,1.358
			c-0.319,0.224-0.629,0.47-0.962,0.679l-1.035,0.581c-0.7,0.379-1.389,0.804-2.12,1.154c-0.754,0.309-1.512,0.62-2.275,0.933
			c-0.756,0.354-1.571,0.53-2.382,0.757l-1.225,0.331l-0.617,0.165l-0.704,0.107c-0.797,0.115-1.598,0.23-2.404,0.347
			c-0.384,0.078-0.851,0.07-1.299,0.083l-1.36,0.026l-1.375,0.017c-0.449-0.022-0.885-0.083-1.331-0.125
			c-0.885-0.108-1.794-0.152-2.68-0.324c-0.883-0.199-1.77-0.398-2.661-0.599c-0.9-0.188-1.734-0.573-2.613-0.857
			c-3.45-1.278-6.796-3.09-9.75-5.455c-2.98-2.327-5.701-5.082-7.937-8.213c-1.204-1.513-2.133-3.205-3.164-4.848
			c-0.458-0.852-0.869-1.729-1.305-2.596l-0.644-1.307l-0.537-1.352l-1.063-2.716l-0.824-2.798
			c-0.134-0.468-0.279-0.933-0.401-1.404l-0.297-1.428l-0.586-2.859l-0.329-2.857l-0.153-1.358l-0.061-1.497l-0.092-3.01
			c0.031-0.978,0.107-1.945,0.162-2.915l0.091-1.453l0.206-1.442c0.145-0.959,0.266-1.921,0.434-2.873
			c0.462-1.884,0.826-3.781,1.5-5.593c1.143-3.676,2.888-7.135,4.99-10.279c2.075-3.166,4.695-5.928,7.58-8.214
			c0.747-0.544,1.425-1.166,2.218-1.629c0.786-0.467,1.568-0.933,2.347-1.396c0.789-0.439,1.64-0.762,2.447-1.14
			c0.41-0.177,0.811-0.372,1.225-0.531l1.271-0.396c3.32-1.163,6.873-1.48,10.041-1.388c0.847,0.06,1.687,0.12,2.521,0.179
			c0.815,0.105,1.595,0.295,2.38,0.439l1.166,0.231c0.382,0.096,0.752,0.233,1.125,0.347c0.741,0.239,1.477,0.477,2.206,0.712
			c2.823,1.165,5.461,2.486,7.692,4.182c4.535,3.281,7.881,7.187,10.338,10.91c0.308,0.466,0.63,0.912,0.911,1.373
			c0.264,0.472,0.522,0.936,0.776,1.392c0.493,0.918,1.033,1.768,1.407,2.659c0.404,0.875,0.793,1.714,1.163,2.516
			c0.344,0.812,0.604,1.616,0.887,2.362c0.589,1.487,0.951,2.867,1.288,4.06c0.164,0.598,0.336,1.146,0.458,1.656
			c0.102,0.516,0.193,0.984,0.276,1.403C360.254,97.296,360.43,98.191,360.43,98.191z M360.43,98.191c0,0-0.185-0.893-0.529-2.567
			c-0.086-0.418-0.183-0.885-0.289-1.399c-0.126-0.509-0.303-1.056-0.473-1.651c-0.351-1.188-0.71-2.568-1.35-4.032
			c-1.086-2.993-2.881-6.464-5.461-10.046c-2.588-3.562-6.127-7.202-10.729-9.965c-2.257-1.45-4.856-2.488-7.554-3.361
			c-0.693-0.152-1.394-0.305-2.098-0.459c-0.353-0.072-0.701-0.167-1.058-0.221l-1.084-0.105c-0.723-0.06-1.453-0.169-2.175-0.193
			c-0.711,0.016-1.426,0.032-2.146,0.049c-0.688-0.033-1.498,0.127-2.28,0.233l-1.184,0.171l-0.595,0.086
			c-0.119,0.016,0.079-0.012,0.034-0.001l-0.068,0.02l-0.137,0.038l-0.272,0.077c-0.724,0.201-1.452,0.403-2.186,0.607
			c-0.731,0.195-1.414,0.564-2.125,0.834l-1.059,0.438c-0.343,0.171-0.672,0.377-1.008,0.563c-0.662,0.396-1.359,0.728-1.997,1.17
			c-0.624,0.459-1.252,0.92-1.883,1.383c-0.643,0.44-1.179,1.037-1.776,1.544c-2.297,2.148-4.344,4.666-5.899,7.531l-0.62,1.048
			l-0.528,1.109c-0.339,0.747-0.734,1.464-1.033,2.232c-0.567,1.551-1.19,3.081-1.59,4.705c-0.523,1.581-0.739,3.255-1.091,4.891
			c-0.121,0.83-0.199,1.67-0.304,2.505l-0.149,1.254l-0.04,1.268l-0.086,2.531l0.096,2.449c0.018,0.412,0.02,0.808,0.048,1.233
			l0.165,1.357l0.309,2.575l0.494,2.502l0.244,1.252l0.343,1.226l0.691,2.448l0.864,2.384l0.432,1.192l0.531,1.146
			c0.357,0.762,0.694,1.535,1.064,2.289c0.836,1.449,1.566,2.971,2.554,4.312c0.885,1.419,1.944,2.687,2.97,3.983
			c0.523,0.637,1.122,1.197,1.677,1.801l0.847,0.891l0.912,0.808c2.37,2.241,5.1,4,7.953,5.328c0.726,0.299,1.422,0.694,2.168,0.92
			c0.743,0.244,1.484,0.488,2.222,0.729c0.743,0.223,1.51,0.322,2.263,0.493c0.376,0.072,0.758,0.166,1.13,0.222l1.099,0.086
			l1.1,0.095c0.369,0.03,0.721,0.088,1.145,0.045c0.813-0.04,1.622-0.079,2.426-0.117l0.492-0.022l0.555-0.097l1.106-0.19
			c0.735-0.133,1.484-0.213,2.181-0.469c0.712-0.215,1.418-0.428,2.12-0.64c0.688-0.251,1.343-0.58,2.014-0.862l0.998-0.438
			c0.322-0.162,0.624-0.361,0.937-0.539c0.622-0.366,1.239-0.729,1.851-1.09c2.294-1.67,4.443-3.464,6.138-5.544
			c3.518-4.058,5.749-8.619,7.102-12.808c1.341-4.207,1.967-8.064,2.071-11.246c0.153-1.59,0.065-3.013,0.03-4.251
			c-0.023-0.619-0.024-1.192-0.062-1.716c-0.059-0.522-0.112-0.996-0.16-1.421C360.532,99.097,360.43,98.191,360.43,98.191z"/>
	</g>
</g>
<ellipse transform="matrix(0.9876 -0.1572 0.1572 0.9876 -12.4076 54.6227)" fill-rule="evenodd" clip-rule="evenodd" cx="339.121" cy="105.752" rx="11.294" ry="17.395"/>
<g>
	<path d="M273.272,146.417c0,0,0.601,1.482,1.652,4.076c0.533,1.286,1.18,2.846,1.921,4.637c0.762,1.776,1.664,3.755,2.667,5.893
		c1.042,2.121,2.191,4.399,3.509,6.741c1.328,2.335,2.805,4.746,4.449,7.145c1.642,2.401,3.472,4.78,5.471,7.061
		c1.994,2.283,4.127,4.507,6.454,6.506c1.123,1.048,2.347,1.972,3.537,2.928c0.601,0.472,1.241,0.886,1.851,1.339
		c0.619,0.441,1.224,0.901,1.872,1.287c1.276,0.807,2.532,1.625,3.839,2.33c1.272,0.765,2.597,1.395,3.898,2.023
		c2.614,1.229,5.224,2.261,7.748,3.133c2.543,0.804,4.977,1.529,7.27,2.049c1.137,0.31,2.248,0.496,3.305,0.699
		c1.057,0.199,2.057,0.438,3.009,0.574c1.905,0.239,3.57,0.564,4.954,0.705c2.766,0.281,4.365,0.496,4.365,0.496
		s-1.585,0.185-4.393,0.413c-1.403,0.108-3.111,0.108-5.08,0.13c-0.984,0.006-2.027-0.083-3.134-0.125
		c-1.107-0.049-2.27-0.132-3.474-0.305c-1.204-0.17-2.479-0.261-3.77-0.518c-1.291-0.258-2.636-0.497-3.998-0.837
		c-1.351-0.38-2.765-0.699-4.17-1.163c-0.703-0.231-1.411-0.476-2.122-0.732c-0.356-0.127-0.715-0.254-1.075-0.382l-1.059-0.45
		c-1.422-0.599-2.871-1.204-4.277-1.951c-0.705-0.367-1.439-0.692-2.134-1.102c-0.691-0.413-1.387-0.827-2.084-1.243
		c-0.709-0.4-1.374-0.875-2.052-1.333c-0.673-0.466-1.366-0.91-2.017-1.414c-1.293-1.017-2.621-2.004-3.837-3.123
		c-1.258-1.072-2.407-2.256-3.575-3.411c-0.575-0.586-1.109-1.208-1.657-1.812c-0.555-0.6-1.08-1.22-1.582-1.855
		c-2.091-2.475-3.842-5.14-5.459-7.738c-1.64-2.592-2.933-5.257-4.109-7.786c-1.191-2.525-2.093-5.005-2.895-7.29
		c-1.57-4.587-2.479-8.509-3.033-11.258c-0.292-1.372-0.462-2.462-0.599-3.2C273.338,146.812,273.272,146.417,273.272,146.417z"/>
</g>
<g>
	<path fill-rule="evenodd" clip-rule="evenodd" fill="#FFFFFF" d="M92.749,116.416c10.178,1.991,54.123,28.087,54.123,28.087"/>
	<path d="M92.749,116.416c0,0,0.242,0.017,0.697,0.048c0.45,0.055,1.123,0.059,1.955,0.209c0.829,0.175,1.867,0.372,3.044,0.68
		c1.135,0.328,2.426,0.692,3.812,1.148c1.365,0.484,2.849,1.016,4.394,1.625c1.529,0.631,3.148,1.295,4.789,2.043
		c1.635,0.753,3.33,1.533,5.012,2.39c1.687,0.847,3.391,1.732,5.072,2.647c3.362,1.84,6.666,3.781,9.697,5.707
		c3.039,1.917,5.805,3.821,8.133,5.525c2.322,1.71,4.211,3.213,5.508,4.304c1.301,1.086,2.01,1.761,2.01,1.761
		s-0.932-0.299-2.513-0.903c-1.585-0.597-3.817-1.502-6.454-2.653c-2.633-1.157-5.66-2.581-8.861-4.172
		c-1.598-0.804-3.248-1.629-4.903-2.507c-1.651-0.882-3.33-1.778-5.009-2.673c-1.66-0.925-3.32-1.85-4.955-2.76
		c-1.627-0.924-3.229-1.824-4.762-2.735c-1.539-0.896-3.023-1.759-4.422-2.61c-1.402-0.831-2.729-1.615-3.944-2.37
		c-1.226-0.714-2.343-1.396-3.335-2.009c-0.989-0.542-1.85-1.058-2.578-1.484c-0.76-0.382-1.356-0.682-1.764-0.886
		C92.966,116.529,92.749,116.416,92.749,116.416z"/>
</g>
<g>
	<line fill-rule="evenodd" clip-rule="evenodd" fill="#FFFFFF" x1="123.944" y1="101.543" x2="154.236" y2="141.156"/>
	<path d="M123.944,101.543c0,0,0.646,0.487,1.694,1.402c1.055,0.91,2.51,2.25,4.185,3.912c1.668,1.667,3.541,3.667,5.461,5.877
		c0.963,1.104,1.939,2.257,2.904,3.45c0.977,1.185,1.93,2.418,2.887,3.647c0.937,1.246,1.879,2.487,2.767,3.74
		c0.903,1.241,1.755,2.489,2.571,3.704c1.631,2.432,3.07,4.764,4.241,6.811c1.174,2.045,2.077,3.807,2.675,5.065
		c0.607,1.253,0.907,2.004,0.907,2.004s-0.646-0.486-1.696-1.4c-1.059-0.907-2.521-2.241-4.188-3.909
		c-1.669-1.667-3.543-3.667-5.462-5.878c-0.958-1.106-1.94-2.255-2.901-3.452c-0.977-1.185-1.927-2.42-2.885-3.649
		c-0.936-1.247-1.875-2.489-2.763-3.742c-0.898-1.244-1.756-2.489-2.569-3.707c-1.629-2.432-3.068-4.765-4.24-6.811
		c-1.166-2.051-2.076-3.807-2.68-5.063C124.245,102.294,123.944,101.543,123.944,101.543z"/>
</g>
<path fill-rule="evenodd" clip-rule="evenodd" fill="#FFFFFF" stroke="#000000" stroke-width="6" stroke-miterlimit="10" d="
	M220.034,266.584c6.667,7.333,28.667,29.101,44.667,28.884"/>
<text transform="matrix(1 0 0 1 242.3682 387.584)" font-family="'OpenDyslexicAlta-Regular'" font-size="173">03</text>
</svg>
