<?xml version="1.0" encoding="utf-8"?>
<!-- Generator: Adobe Illustrator 16.0.0, SVG Export Plug-In . SVG Version: 6.00 Build 0)  -->
<!DOCTYPE svg PUBLIC "-//W3C//DTD SVG 1.1//EN" "http://www.w3.org/Graphics/SVG/1.1/DTD/svg11.dtd">
<svg version="1.1" id="Calque_1" xmlns="http://www.w3.org/2000/svg" xmlns:xlink="http://www.w3.org/1999/xlink" x="0px" y="0px"
	 width="419.979px" height="334.484px" viewBox="0 0 419.979 334.484" enable-background="new 0 0 419.979 334.484"
	 xml:space="preserve">
<g>
	<path fill-rule="evenodd" clip-rule="evenodd" fill="#FFFFFF" d="M163.079,182.094c5.273-15.385-30.381-108.016-6.401-136.891
		c10.706-12.893,32.476-20.25,59.467-15.014c67.996,13.19-37.632,144.946-41.923,148.175
		C169.591,179.916,163.079,182.094,163.079,182.094z"/>
	<path d="M163.079,182.094c0.534-1.931,0.442-3.945,0.314-5.917c-0.151-1.978-0.434-3.945-0.761-5.904
		c-0.649-3.919-1.469-7.812-2.334-11.695l-5.392-23.287c-1.782-7.776-3.438-15.591-4.885-23.462
		c-1.455-7.87-2.604-15.815-3.271-23.844c-0.327-4.015-0.535-8.051-0.514-12.109c0.014-4.057,0.228-8.138,0.841-12.209
		c0.594-4.067,1.554-8.145,3.174-12.063c0.796-1.96,1.793-3.87,2.997-5.668c0.289-0.457,0.6-0.901,0.94-1.328l0.495-0.649
		c0.097-0.122,0.133-0.186,0.281-0.355l0.243-0.284c0.608-0.732,1.376-1.566,2.13-2.332c5.987-6.041,13.677-9.966,21.616-12.27
		c7.975-2.305,16.291-3.044,24.477-2.641c4.099,0.187,8.171,0.692,12.188,1.438l0.754,0.138l0.781,0.159
		c0.499,0.112,0.947,0.19,1.491,0.334c1.063,0.256,2.078,0.541,3.089,0.866c2.024,0.653,4.02,1.479,5.927,2.524
		c3.817,2.057,7.263,5.147,9.554,8.957c2.329,3.796,3.499,8.114,3.922,12.336c0.43,4.241,0.14,8.438-0.489,12.515
		c-0.634,4.081-1.623,8.059-2.808,11.951c-2.39,7.78-5.527,15.239-9.048,22.47c-3.54,7.226-7.445,14.24-11.571,21.105
		c-4.114,6.874-8.521,13.557-13.062,20.136c-4.537,6.583-9.27,13.023-14.169,19.331c-2.451,3.153-4.923,6.289-7.479,9.358
		c-1.276,1.536-2.564,3.062-3.876,4.571l-1.991,2.246c-0.698,0.746-1.303,1.464-2.163,2.194l-0.051,0.043l-0.071,0.021
		L163.079,182.094z M163.079,182.094l11.006-4.137l-0.122,0.064c0.628-0.596,1.293-1.425,1.913-2.17l1.857-2.326
		c1.225-1.564,2.427-3.148,3.618-4.741c2.374-3.19,4.729-6.395,7.025-9.642c4.592-6.493,9.042-13.083,13.351-19.757
		c4.305-6.676,8.402-13.479,12.338-20.359c3.918-6.889,7.604-13.905,10.904-21.074c3.301-7.163,6.285-14.472,8.456-21.968
		c2.148-7.463,3.562-15.229,2.834-22.65c-0.388-3.686-1.405-7.241-3.273-10.247c-1.843-3.018-4.539-5.438-7.729-7.146
		c-1.591-0.861-3.295-1.562-5.064-2.124c-0.885-0.28-1.792-0.528-2.666-0.736c-0.418-0.113-0.953-0.208-1.426-0.312l-0.683-0.135
		l-0.717-0.127c-3.82-0.674-7.67-1.186-11.532-1.377c-7.713-0.419-15.492,0.25-22.85,2.339c-7.328,2.093-14.281,5.65-19.644,10.875
		c-0.651,0.646-1.25,1.263-1.928,2.052l-0.247,0.28c-0.019,0.016-0.125,0.158-0.183,0.23l-0.418,0.533
		c-0.288,0.348-0.554,0.715-0.801,1.099c-1.034,1.496-1.92,3.123-2.646,4.843c-1.479,3.428-2.429,7.153-3.038,10.955
		c-1.196,7.622-1.253,15.521-0.797,23.378c0.452,7.871,1.446,15.736,2.596,23.585c1.163,7.851,2.592,15.674,4.056,23.5
		c1.441,7.831,3.022,15.645,4.362,23.516c0.664,3.936,1.3,7.881,1.732,11.858c0.207,1.988,0.37,3.985,0.398,5.987
		C163.769,178.152,163.733,180.199,163.079,182.094z"/>
</g>
<ellipse transform="matrix(0.9629 -0.2699 0.2699 0.9629 -56.6901 50.4887)" fill-rule="evenodd" clip-rule="evenodd" fill="#FFBF0F" stroke="#000000" stroke-width="5.7186" stroke-miterlimit="10" cx="155.217" cy="231.353" rx="128.419" ry="70.91"/>
<g>
	<circle fill-rule="evenodd" clip-rule="evenodd" fill="#FFBF0F" cx="307.225" cy="159.679" r="68.323"/>
	<path d="M375.548,159.679c0,0-0.01,0.419-0.028,1.231c-0.034,0.811-0.002,2.019-0.147,3.585c-0.19,3.134-0.707,7.747-2.244,13.421
		c-0.72,2.849-1.814,5.922-3.183,9.189c-1.381,3.263-3.129,6.693-5.339,10.152c-4.393,6.923-10.695,13.967-19.015,19.84
		c-8.324,5.814-18.759,10.337-30.459,11.951c-1.457,0.223-2.938,0.327-4.427,0.482c-1.5,0.054-2.977,0.203-4.53,0.176
		c-0.739,0-1.481,0.001-2.226,0.001c-0.75-0.008-1.54-0.068-2.312-0.101c-1.567-0.047-3.093-0.241-4.645-0.392
		c-3.085-0.405-6.204-0.931-9.282-1.771c-1.556-0.364-3.072-0.888-4.616-1.356c-0.763-0.26-1.517-0.552-2.277-0.83
		c-0.766-0.27-1.519-0.572-2.263-0.903c-6.016-2.502-11.776-5.932-17.037-10.146c-5.246-4.237-9.916-9.324-13.829-15.014
		c-1.963-2.843-3.679-5.869-5.235-8.986c-1.53-3.133-2.767-6.414-3.835-9.751c-1.059-3.345-1.797-6.791-2.346-10.264
		c-0.231-1.744-0.472-3.488-0.575-5.246c-0.071-0.877-0.145-1.754-0.153-2.634l-0.071-2.726c0.038-3.229,0.275-7.006,0.795-10.432
		c0.554-3.473,1.28-6.921,2.341-10.266c1.068-3.339,2.308-6.618,3.834-9.754c1.545-3.123,3.27-6.145,5.231-8.989
		c3.913-5.693,8.59-10.773,13.828-15.021c5.264-4.214,11.026-7.644,17.044-10.146c0.744-0.331,1.498-0.633,2.264-0.903
		c0.761-0.278,1.52-0.556,2.277-0.833c1.544-0.469,3.061-0.992,4.616-1.356c3.08-0.839,6.2-1.365,9.286-1.769
		c1.551-0.151,3.087-0.345,4.625-0.39c0.769-0.032,1.532-0.092,2.296-0.101c0.764,0,1.524,0,2.283,0l1.176,0.006l1.103,0.057
		c0.734,0.038,1.467,0.075,2.196,0.113c1.494,0.155,3.011,0.261,4.465,0.484c11.703,1.615,22.139,6.145,30.463,11.959
		c8.32,5.875,14.618,12.924,19.012,19.846c2.209,3.46,3.959,6.89,5.337,10.154c1.368,3.267,2.463,6.34,3.183,9.19
		c1.536,5.674,2.054,10.287,2.243,13.421c0.146,1.567,0.113,2.775,0.147,3.586C375.538,159.26,375.548,159.679,375.548,159.679z
		 M375.548,159.679c0,0-0.012-0.419-0.034-1.231c-0.039-0.811-0.012-2.019-0.165-3.584c-0.218-3.128-0.718-7.747-2.335-13.391
		c-1.601-5.625-4.266-12.334-8.874-19.067c-4.559-6.72-10.941-13.575-19.371-18.917c-4.201-2.667-8.864-4.977-13.897-6.758
		c-5.037-1.77-10.466-2.903-16.077-3.412c-1.405-0.142-2.792-0.163-4.207-0.24c-0.73,0-1.464,0.001-2.198,0.001l-1.104,0
		l-1.038,0.052c-0.72,0.037-1.441,0.075-2.166,0.112c-0.723,0.046-1.444,0.142-2.169,0.209c-1.452,0.116-2.895,0.378-4.347,0.595
		c-5.787,1.02-11.555,2.804-17.032,5.406c-5.492,2.569-10.68,5.979-15.348,10.062c-2.344,2.033-4.535,4.258-6.606,6.601
		c-2.062,2.354-3.922,4.896-5.649,7.527c-3.391,5.309-6.073,11.109-7.878,17.198c-0.904,3.045-1.547,6.165-2.038,9.309
		c-0.458,3.208-0.634,6.137-0.682,9.614l0.056,2.304c0.001,0.798,0.066,1.592,0.127,2.387c0.083,1.592,0.296,3.171,0.495,4.75
		c0.495,3.143,1.125,6.266,2.032,9.311c1.812,6.087,4.479,11.896,7.874,17.205c6.836,10.593,16.632,19.045,27.608,24.199
		c1.354,0.689,2.776,1.205,4.157,1.806c1.416,0.507,2.81,1.076,4.246,1.488c2.841,0.938,5.743,1.58,8.634,2.114
		c1.451,0.216,2.904,0.479,4.328,0.593c0.72,0.067,1.416,0.163,2.152,0.209c0.743,0.038,1.483,0.076,2.223,0.113
		c1.403,0.102,2.865,0.03,4.284,0.055c1.423-0.077,2.845-0.1,4.247-0.242c5.612-0.511,11.043-1.643,16.08-3.418
		c5.033-1.782,9.696-4.093,13.898-6.76c8.43-5.344,14.81-12.204,19.369-18.923c4.608-6.734,7.271-13.445,8.871-19.069
		c1.616-5.644,2.117-10.263,2.335-13.391c0.153-1.565,0.126-2.774,0.165-3.585C375.536,160.098,375.548,159.679,375.548,159.679z"/>
</g>
<path fill-rule="evenodd" clip-rule="evenodd" d="M55.655,205.314c0,0-8.717,69.801,36.819,102.628
	c20.819,1.347,27.249,0.025,30.681-0.127c-23.182-26.901-49.773-69.219-37.779-123.571
	C77.271,189.242,55.655,205.314,55.655,205.314z"/>
<path fill-rule="evenodd" clip-rule="evenodd" d="M106.207,171.37c-7.378,36.061,4.917,97.535,45.14,132.443
	c18.977-2.694,26.594-6.115,30.025-6.269c-20.037-25.185-53.664-78.677-40.822-135.674
	C131.134,164.521,117.603,166.87,106.207,171.37z"/>
<path fill-rule="evenodd" clip-rule="evenodd" d="M163.061,159.679c-5.234,27.449,6.966,94.357,45.01,126.652
	c16.862-4.628,25.77-12.661,29.203-12.813c-23.023-25.009-45.898-66.946-36.192-118.756
	C188.282,155.031,175.745,156.628,163.061,159.679z"/>
<g>
	
		<ellipse transform="matrix(0.9876 -0.1572 0.1572 0.9876 -15.3421 58.8118)" fill-rule="evenodd" clip-rule="evenodd" fill="#FFFFFF" cx="364.179" cy="126.41" rx="21.261" ry="26.184"/>
	<path d="M385.176,123.068c0,0,0.071,0.579,0.204,1.666c0.033,0.271,0.07,0.575,0.111,0.909c0.027,0.335,0.031,0.703,0.051,1.099
		c0.032,0.793,0.086,1.706,0.024,2.728c-0.011,2.046-0.35,4.529-1.071,7.297c-0.751,2.758-2.003,5.805-4.104,8.718
		c-1.018,1.483-2.358,2.82-3.847,4.1c-0.808,0.552-1.563,1.238-2.483,1.696c-0.449,0.246-0.891,0.522-1.361,0.749
		c-0.483,0.201-0.972,0.404-1.462,0.608c-0.485,0.229-1.011,0.345-1.532,0.495l-0.788,0.217l-0.397,0.108l-0.458,0.071
		c-0.51,0.076-1.022,0.153-1.539,0.23c-0.512,0.081-1.141,0.053-1.717,0.079c-2.337,0.015-4.652-0.332-6.888-1.189
		c-2.229-0.817-4.394-1.979-6.306-3.497c-1.929-1.495-3.688-3.268-5.135-5.284c-0.779-0.975-1.381-2.064-2.048-3.123
		c-0.296-0.549-0.562-1.114-0.843-1.673l-0.416-0.843l-0.348-0.871l-0.688-1.751l-0.532-1.804c-0.192-0.598-0.335-1.208-0.45-1.825
		l-0.393-1.942l-0.197-1.74l-0.098-0.87l-0.039-0.968l-0.059-1.947c0.021-0.63,0.07-1.254,0.106-1.88l0.061-0.937l0.134-0.93
		c0.094-0.619,0.173-1.239,0.282-1.853c0.3-1.215,0.538-2.437,0.975-3.606c0.741-2.369,1.875-4.598,3.237-6.623
		c1.348-2.038,3.045-3.814,4.912-5.284c1.843-1.508,3.987-2.571,6.15-3.259c2.145-0.74,4.439-0.934,6.473-0.864
		c0.546,0.041,1.088,0.082,1.627,0.123c0.524,0.071,1.025,0.195,1.53,0.291l0.749,0.152c0.246,0.063,0.483,0.152,0.724,0.227
		c0.476,0.156,0.947,0.311,1.416,0.465c1.812,0.756,3.502,1.612,4.93,2.706c2.9,2.12,5.036,4.629,6.604,7.019
		c1.545,2.408,2.637,4.663,3.282,6.605c0.376,0.953,0.607,1.836,0.822,2.601c0.105,0.383,0.216,0.733,0.293,1.061
		c0.065,0.33,0.124,0.63,0.177,0.898C385.063,122.495,385.176,123.068,385.176,123.068z M385.176,123.068
		c0,0-0.118-0.572-0.34-1.643c-0.056-0.268-0.117-0.567-0.186-0.896c-0.081-0.326-0.194-0.676-0.303-1.057
		c-0.225-0.761-0.455-1.645-0.866-2.581c-0.698-1.915-1.851-4.136-3.508-6.423c-1.661-2.275-3.934-4.596-6.883-6.347
		c-1.445-0.92-3.108-1.574-4.832-2.124c-0.442-0.094-0.889-0.189-1.339-0.285c-0.225-0.044-0.447-0.104-0.675-0.137l-0.691-0.063
		c-0.46-0.035-0.926-0.103-1.385-0.115c-0.45,0.013-0.904,0.026-1.361,0.039c-1.96,0.146-3.822,0.515-5.599,1.346l-0.671,0.282
		c-0.217,0.11-0.425,0.242-0.638,0.362c-0.419,0.254-0.859,0.467-1.262,0.75c-0.396,0.293-0.792,0.588-1.189,0.885
		c-0.406,0.281-0.745,0.662-1.122,0.986c-1.45,1.37-2.74,2.974-3.718,4.797l-0.391,0.667l-0.332,0.706
		c-0.214,0.475-0.463,0.931-0.65,1.419c-0.356,0.987-0.748,1.958-0.999,2.99c-0.329,1.004-0.462,2.068-0.684,3.106
		c-0.076,0.527-0.124,1.061-0.19,1.591l-0.093,0.796l-0.024,0.805l-0.053,1.607l0.062,1.548l0.03,0.78l0.106,0.869l0.21,1.738
		c-0.024-0.182-0.001-0.022-0.004-0.049l0.01,0.049l0.02,0.1l0.04,0.198l0.078,0.397l0.155,0.795
		c0.092,0.533,0.208,1.06,0.372,1.574l0.438,1.555l0.546,1.515l0.273,0.758l0.336,0.728l0.673,1.454
		c0.529,0.921,0.989,1.89,1.613,2.743c0.56,0.903,1.229,1.709,1.876,2.535c0.331,0.406,0.71,0.762,1.061,1.147l0.534,0.568
		l0.577,0.515c1.497,1.431,3.223,2.555,5.028,3.407c0.459,0.192,0.9,0.445,1.372,0.591c0.472,0.158,0.94,0.315,1.407,0.472
		c0.472,0.145,0.957,0.21,1.434,0.321c0.239,0.047,0.481,0.109,0.718,0.146l0.693,0.059c0.476,0.025,0.896,0.124,1.422,0.099
		c0.521-0.022,1.039-0.044,1.554-0.067l0.193-0.008l0.096-0.004l0.049-0.002c0.032-0.002-0.111,0.015-0.03,0.004l0.353-0.06
		l0.705-0.117c0.468-0.082,0.945-0.129,1.389-0.29c0.454-0.134,0.905-0.267,1.353-0.399c0.439-0.157,0.856-0.364,1.285-0.542
		c0.431-0.174,0.851-0.367,1.236-0.615c0.398-0.231,0.793-0.461,1.185-0.689c1.468-1.058,2.846-2.197,3.934-3.521
		c2.26-2.582,3.698-5.495,4.57-8.173c0.865-2.689,1.27-5.159,1.339-7.195c0.101-1.018,0.045-1.929,0.022-2.722
		c-0.015-0.396-0.016-0.763-0.04-1.099c-0.037-0.334-0.071-0.638-0.102-0.91C385.241,123.648,385.176,123.068,385.176,123.068z"/>
</g>
<ellipse transform="matrix(0.9999 -0.0169 0.0169 0.9999 -2.1047 6.317)" fill-rule="evenodd" clip-rule="evenodd" cx="373.735" cy="128.028" rx="6.316" ry="9.729"/>
<g>
	<path fill-rule="evenodd" clip-rule="evenodd" fill="#FFFFFF" d="M186.994,177.98c-13.312-17.396-20.868-89.416-63.839-116.044
		c-19.184-11.889-50.135-11.979-82.369,6.246c-81.204,45.915,123.521,107.51,130.384,109.798
		C177.746,177.98,186.994,177.98,186.994,177.98z"/>
	<path d="M186.994,177.98c-2.755-3.562-4.693-7.712-6.466-11.842c-1.753-4.156-3.304-8.388-4.84-12.617
		c-3.065-8.462-5.969-16.96-9.226-25.304c-3.254-8.339-6.729-16.582-10.851-24.463c-2.051-3.943-4.244-7.803-6.623-11.528
		c-2.34-3.752-4.937-7.323-7.702-10.732c-2.737-3.439-5.82-6.555-9.014-9.51l-2.479-2.121c-0.807-0.73-1.72-1.322-2.571-1.993
		c-1.688-1.368-3.553-2.471-5.344-3.681l-2.848-1.571c-1-0.601-1.929-0.916-2.883-1.36c-0.945-0.422-1.882-0.854-2.92-1.175
		c-1.014-0.343-2.016-0.717-3.037-1.037c-4.126-1.176-8.372-1.956-12.676-2.318c-4.308-0.286-8.649-0.318-12.972,0.127
		c-1.08,0.111-2.165,0.159-3.241,0.321l-3.226,0.494l-1.613,0.246l-1.598,0.345l-3.196,0.688c-8.498,1.99-16.707,5.235-24.518,9.222
		c-7.664,3.964-15.553,8.615-19.838,15.323l-0.741,1.262c-0.273,0.412-0.395,0.873-0.605,1.304c-0.442,0.862-0.627,1.782-0.906,2.68
		c-0.345,1.832-0.477,3.705-0.148,5.59c0.626,3.769,2.569,7.47,5.083,10.817c5.151,6.694,12.071,12.314,19.28,17.358
		c7.275,5.019,14.978,9.503,22.845,13.697c7.857,4.22,15.91,8.122,24.06,11.822c8.156,3.687,16.382,7.248,24.69,10.622
		c8.311,3.368,16.673,6.624,25.083,9.768c8.42,3.125,16.86,6.156,25.376,9.087l-0.16-0.026L186.994,177.98z M186.994,177.98
		l-15.824,0.505l-0.062,0.002l-0.099-0.028c-8.633-2.457-17.276-5.028-25.832-7.813c-4.284-1.383-8.557-2.801-12.82-4.254
		c-4.257-1.468-8.498-2.987-12.729-4.537c-8.455-3.115-16.878-6.343-25.178-9.892c-8.309-3.524-16.542-7.259-24.628-11.343
		c-8.085-4.082-15.994-8.574-23.604-13.638c-3.79-2.558-7.495-5.279-11.026-8.277c-3.526-2.999-6.894-6.277-9.801-10.08
		c-0.708-0.968-1.407-1.951-2.064-2.968c-0.609-1.062-1.289-2.067-1.792-3.213c-1.146-2.186-1.913-4.648-2.385-7.177
		c-0.454-2.556-0.325-5.232,0.178-7.803c0.352-1.257,0.653-2.543,1.216-3.705c0.271-0.582,0.472-1.214,0.808-1.751l0.954-1.65
		c0.3-0.568,0.696-1.046,1.06-1.554l1.116-1.503c0.827-0.901,1.625-1.849,2.488-2.702c0.892-0.809,1.752-1.674,2.676-2.43
		c0.938-0.736,1.854-1.495,2.814-2.207l2.974-2.042c0.974-0.624,1.928-1.171,2.896-1.756l0.723-0.433l0.181-0.108l0.262-0.143
		l0.381-0.202l1.524-0.806l3.048-1.611c8.207-4.136,16.859-7.51,25.884-9.58c9.008-2.064,18.368-2.999,27.676-2.108
		c4.65,0.461,9.262,1.375,13.761,2.736c1.117,0.367,2.217,0.793,3.325,1.189c1.107,0.364,2.208,0.88,3.307,1.394
		c1.075,0.516,2.261,0.994,3.182,1.57l3.025,1.736c3.912,2.544,7.615,5.388,10.984,8.577c3.321,3.225,6.489,6.605,9.265,10.272
		c2.806,3.64,5.409,7.422,7.729,11.355c1.208,1.94,2.28,3.953,3.382,5.947c1.026,2.032,2.108,4.037,3.054,6.102
		c3.917,8.203,7.188,16.654,10.112,25.191c2.886,8.552,5.488,17.169,8.073,25.771c1.301,4.298,2.635,8.583,4.131,12.807
		C182.838,170.042,184.472,174.24,186.994,177.98z"/>
</g>
<path fill-rule="evenodd" clip-rule="evenodd" fill="none" stroke="#000000" stroke-width="3.4311" stroke-miterlimit="10" d="
	M351.42,81.63c10.98-16.065,26.815-17.103,35.375-11.071"/>
<ellipse transform="matrix(0.9308 0.3655 -0.3655 0.9308 55.081 -139.0263)" fill-rule="evenodd" clip-rule="evenodd" cx="394.758" cy="75.975" rx="8.953" ry="9.292"/>
<path fill-rule="evenodd" clip-rule="evenodd" fill="none" stroke="#000000" stroke-width="3.4311" stroke-miterlimit="10" d="
	M304.876,83.6c2.288-41.473,30.881-56.342,50.324-51.766"/>
<circle fill-rule="evenodd" clip-rule="evenodd" cx="370.909" cy="35.265" r="14.976"/>
<g>
	
		<ellipse transform="matrix(0.9876 -0.1572 0.1572 0.9876 -13.4529 53.3676)" fill-rule="evenodd" clip-rule="evenodd" fill="#FFFFFF" cx="330.753" cy="111.755" rx="33.208" ry="40.898"/>
	<path d="M363.549,106.537c0,0,0.109,0.905,0.315,2.602c0.052,0.424,0.108,0.898,0.172,1.419c0.042,0.523,0.048,1.097,0.077,1.716
		c0.049,1.239,0.133,2.664,0.029,4.259c-0.039,0.797-0.038,1.641-0.114,2.52c-0.105,0.877-0.216,1.794-0.331,2.751
		c-0.08,0.963-0.336,1.937-0.523,2.961c-0.102,0.511-0.205,1.032-0.311,1.561c-0.127,0.524-0.297,1.047-0.446,1.584
		c-1.195,4.292-3.188,9.025-6.5,13.511c-1.603,2.285-3.704,4.335-6.024,6.291c-0.619,0.442-1.244,0.887-1.874,1.336
		c-0.319,0.22-0.628,0.461-0.96,0.667l-1.032,0.569c-0.697,0.371-1.383,0.788-2.111,1.129c-0.749,0.301-1.503,0.604-2.263,0.909
		c-0.75,0.345-1.561,0.513-2.364,0.733l-1.215,0.319l-0.612,0.159c0.053-0.004-0.158,0.029-0.164,0.029l-0.074,0.01l-0.149,0.02
		l-0.299,0.041c-0.797,0.108-1.6,0.217-2.406,0.327c-0.388,0.076-0.844,0.063-1.285,0.072l-1.339,0.016l-1.353,0.009
		c-0.442-0.025-0.874-0.089-1.314-0.133c-0.873-0.114-1.771-0.162-2.645-0.338c-0.87-0.202-1.745-0.406-2.625-0.61
		c-0.887-0.191-1.71-0.577-2.575-0.862c-3.4-1.283-6.694-3.09-9.601-5.444c-2.933-2.314-5.609-5.048-7.809-8.152
		c-1.187-1.499-2.099-3.177-3.113-4.804c-0.451-0.843-0.855-1.712-1.284-2.57l-0.635-1.293l-0.528-1.339l-1.047-2.688l-0.812-2.77
		c-0.132-0.462-0.276-0.923-0.397-1.389l-0.292-1.413l-0.595-2.946l-0.311-2.717l-0.154-1.358l-0.06-1.475l-0.093-2.963
		c0.032-0.966,0.104-1.923,0.156-2.883l0.087-1.437l0.201-1.426c0.142-0.95,0.258-1.901,0.423-2.843
		c0.453-1.863,0.805-3.741,1.466-5.535c1.119-3.638,2.826-7.063,4.889-10.18c2.032-3.141,4.604-5.882,7.44-8.158
		c0.734-0.542,1.399-1.16,2.181-1.622c0.772-0.467,1.542-0.932,2.308-1.395c0.776-0.439,1.615-0.763,2.41-1.142
		c0.404-0.178,0.799-0.374,1.207-0.533l1.253-0.399c3.277-1.173,6.779-1.511,9.939-1.445c0.835,0.054,1.665,0.107,2.489,0.16
		c0.807,0.099,1.583,0.282,2.362,0.419l1.159,0.221c0.38,0.092,0.748,0.226,1.12,0.337c0.738,0.232,1.47,0.462,2.196,0.691
		c2.813,1.14,5.447,2.438,7.681,4.113c4.541,3.239,7.903,7.122,10.37,10.831c0.31,0.465,0.633,0.909,0.916,1.368
		c0.265,0.471,0.524,0.933,0.78,1.388c0.497,0.916,1.04,1.762,1.415,2.653c0.406,0.874,0.796,1.712,1.169,2.512
		c0.345,0.812,0.606,1.614,0.891,2.36c0.594,1.485,0.955,2.865,1.293,4.058c0.165,0.598,0.338,1.146,0.46,1.656
		c0.102,0.516,0.194,0.984,0.277,1.403C363.372,105.642,363.549,106.537,363.549,106.537z M363.549,106.537
		c0,0-0.184-0.893-0.527-2.567c-0.086-0.418-0.182-0.886-0.287-1.4c-0.127-0.509-0.304-1.056-0.473-1.651
		c-0.349-1.188-0.708-2.569-1.344-4.035c-1.08-2.996-2.868-6.472-5.436-10.067c-2.576-3.575-6.1-7.237-10.696-10.043
		c-2.254-1.471-4.856-2.532-7.565-3.43c-0.696-0.159-1.398-0.319-2.106-0.48c-0.354-0.075-0.704-0.174-1.063-0.231l-1.091-0.116
		c-0.728-0.067-1.462-0.183-2.191-0.214c-0.721,0.01-1.446,0.02-2.178,0.03c-0.703-0.039-1.509,0.115-2.293,0.215l-1.185,0.162
		l-0.595,0.081c-0.104,0.015,0.057-0.009,0.016,0.001l-0.069,0.019l-0.138,0.038l-0.276,0.075c-0.734,0.197-1.474,0.395-2.216,0.594
		c-0.742,0.191-1.437,0.557-2.159,0.825l-1.076,0.435c-0.349,0.17-0.684,0.375-1.026,0.561c-0.674,0.395-1.384,0.726-2.034,1.168
		c-0.638,0.459-1.278,0.92-1.922,1.384c-0.654,0.442-1.202,1.041-1.812,1.552c-2.347,2.159-4.44,4.697-6.039,7.587l-0.637,1.059
		l-0.542,1.121c-0.348,0.753-0.753,1.48-1.061,2.256c-0.585,1.567-1.224,3.116-1.635,4.758c-0.535,1.6-0.764,3.293-1.125,4.949
		c-0.125,0.84-0.206,1.69-0.313,2.536l-0.154,1.27l-0.045,1.283l-0.093,2.563l0.096,2.495c0.019,0.419,0.021,0.826,0.049,1.255
		l0.164,1.357l0.327,2.715l0.485,2.416l0.248,1.267c0.104,0.416,0.232,0.826,0.348,1.24l0.702,2.478l0.881,2.412l0.44,1.206
		l0.541,1.16c0.364,0.771,0.707,1.552,1.085,2.314c0.852,1.466,1.599,3.002,2.604,4.357c0.901,1.434,1.983,2.712,3.029,4.019
		c0.534,0.642,1.145,1.207,1.71,1.816l0.863,0.897l0.931,0.812c2.419,2.252,5.2,4.015,8.103,5.339
		c0.738,0.297,1.446,0.692,2.205,0.915c0.756,0.241,1.509,0.48,2.258,0.719c0.756,0.219,1.534,0.313,2.298,0.479
		c0.383,0.07,0.769,0.161,1.147,0.214l1.121,0.078l1.122,0.085c0.375,0.026,0.735,0.081,1.156,0.035
		c0.813-0.046,1.621-0.091,2.425-0.137l0.51-0.029l0.56-0.102l1.116-0.202c0.741-0.141,1.496-0.229,2.197-0.493
		c0.716-0.223,1.428-0.444,2.134-0.664c0.691-0.26,1.349-0.596,2.021-0.887l1.001-0.449c0.324-0.167,0.626-0.369,0.939-0.551
		c0.623-0.374,1.24-0.745,1.853-1.113c2.297-1.695,4.441-3.513,6.128-5.611c3.499-4.097,5.709-8.673,7.047-12.872
		c1.324-4.215,1.942-8.075,2.04-11.258c0.149-1.591,0.062-3.014,0.024-4.252c-0.023-0.619-0.025-1.192-0.063-1.716
		c-0.06-0.522-0.113-0.996-0.161-1.421C363.651,107.442,363.549,106.537,363.549,106.537z"/>
</g>
<ellipse transform="matrix(0.9876 -0.1572 0.1572 0.9876 -13.6806 55.2167)" fill-rule="evenodd" clip-rule="evenodd" cx="342.24" cy="114.097" rx="11.294" ry="17.395"/>
<g>
	<path d="M276.392,154.762c0,0,0.601,1.482,1.652,4.076c0.533,1.286,1.18,2.846,1.921,4.637c0.762,1.776,1.664,3.755,2.667,5.893
		c1.042,2.121,2.191,4.399,3.509,6.741c1.328,2.335,2.805,4.746,4.449,7.145c1.642,2.401,3.472,4.78,5.471,7.061
		c1.994,2.283,4.127,4.507,6.454,6.506c1.123,1.048,2.347,1.972,3.537,2.928c0.601,0.472,1.241,0.886,1.851,1.339
		c0.619,0.441,1.224,0.901,1.872,1.287c1.276,0.807,2.532,1.625,3.839,2.33c1.272,0.765,2.597,1.395,3.898,2.023
		c2.614,1.228,5.224,2.261,7.748,3.133c2.543,0.804,4.977,1.529,7.27,2.048c1.137,0.311,2.248,0.497,3.305,0.7
		c1.057,0.199,2.057,0.438,3.009,0.574c1.905,0.24,3.57,0.565,4.954,0.705c2.766,0.281,4.365,0.496,4.365,0.496
		s-1.585,0.185-4.393,0.414c-1.403,0.108-3.111,0.108-5.08,0.129c-0.984,0.005-2.027-0.083-3.134-0.125
		c-1.107-0.048-2.27-0.131-3.474-0.304c-1.204-0.17-2.479-0.261-3.77-0.518c-1.291-0.257-2.636-0.497-3.998-0.837
		c-1.351-0.38-2.765-0.7-4.17-1.163c-0.703-0.232-1.411-0.476-2.122-0.733c-0.356-0.127-0.715-0.254-1.075-0.382l-1.059-0.45
		c-1.422-0.599-2.871-1.204-4.277-1.951c-0.705-0.367-1.439-0.693-2.134-1.102c-0.691-0.413-1.387-0.827-2.084-1.243
		c-0.709-0.4-1.374-0.875-2.052-1.333c-0.673-0.466-1.366-0.91-2.017-1.414c-1.293-1.017-2.621-2.004-3.837-3.123
		c-1.258-1.072-2.407-2.256-3.575-3.411c-0.575-0.586-1.109-1.208-1.657-1.812c-0.555-0.6-1.08-1.22-1.582-1.855
		c-2.091-2.475-3.842-5.14-5.459-7.738c-1.64-2.592-2.933-5.257-4.109-7.786c-1.191-2.525-2.093-5.005-2.895-7.29
		c-1.57-4.587-2.479-8.509-3.033-11.258c-0.292-1.372-0.462-2.462-0.599-3.2C276.457,155.158,276.392,154.762,276.392,154.762z"/>
</g>
<g>
	<path fill-rule="evenodd" clip-rule="evenodd" fill="#FFFFFF" d="M95.868,124.761c10.178,1.991,54.123,28.088,54.123,28.088"/>
	<path d="M95.868,124.761c0,0,0.243,0.017,0.697,0.048c0.45,0.055,1.123,0.059,1.955,0.209c0.83,0.175,1.868,0.372,3.044,0.68
		c1.135,0.328,2.426,0.692,3.812,1.148c1.365,0.484,2.849,1.016,4.394,1.625c1.529,0.631,3.149,1.295,4.789,2.043
		c1.635,0.753,3.33,1.533,5.011,2.39c1.687,0.847,3.391,1.732,5.073,2.647c3.362,1.84,6.665,3.781,9.697,5.707
		c3.038,1.917,5.804,3.822,8.131,5.525c2.324,1.71,4.211,3.213,5.509,4.304c1.3,1.086,2.01,1.761,2.01,1.761
		s-0.932-0.299-2.513-0.903c-1.585-0.597-3.817-1.502-6.454-2.652c-2.633-1.157-5.661-2.581-8.862-4.173
		c-1.597-0.803-3.248-1.629-4.902-2.507c-1.652-0.882-3.331-1.777-5.009-2.673c-1.66-0.925-3.321-1.85-4.955-2.76
		c-1.627-0.924-3.229-1.824-4.761-2.735c-1.539-0.896-3.024-1.759-4.422-2.61c-1.403-0.831-2.729-1.615-3.945-2.37
		c-1.226-0.714-2.342-1.396-3.335-2.009c-0.989-0.542-1.85-1.058-2.578-1.484c-0.76-0.382-1.356-0.682-1.763-0.886
		C96.085,124.874,95.868,124.761,95.868,124.761z"/>
</g>
<g>
	<line fill-rule="evenodd" clip-rule="evenodd" fill="#FFFFFF" x1="127.063" y1="109.888" x2="157.355" y2="149.501"/>
	<path d="M127.063,109.888c0,0,0.646,0.487,1.694,1.402c1.055,0.91,2.51,2.25,4.184,3.912c1.668,1.667,3.542,3.668,5.462,5.877
		c0.962,1.104,1.939,2.257,2.904,3.451c0.976,1.185,1.929,2.417,2.887,3.647c0.936,1.246,1.879,2.487,2.766,3.739
		c0.903,1.241,1.755,2.49,2.571,3.705c1.63,2.432,3.07,4.764,4.241,6.811c1.174,2.045,2.077,3.807,2.675,5.065
		c0.607,1.253,0.907,2.004,0.907,2.004s-0.646-0.486-1.697-1.4c-1.058-0.907-2.521-2.241-4.188-3.91
		c-1.668-1.667-3.542-3.667-5.461-5.877c-0.958-1.106-1.941-2.256-2.902-3.452c-0.976-1.185-1.926-2.419-2.884-3.649
		c-0.936-1.247-1.876-2.489-2.763-3.742c-0.898-1.244-1.756-2.489-2.569-3.707c-1.629-2.432-3.069-4.765-4.241-6.811
		c-1.166-2.051-2.076-3.807-2.679-5.063C127.365,110.639,127.063,109.888,127.063,109.888z"/>
</g>
<path fill-rule="evenodd" clip-rule="evenodd" fill="#FFFFFF" stroke="#000000" stroke-width="6" stroke-miterlimit="10" d="
	M223.153,274.929c6.667,7.333,28.667,29.101,44.667,28.884"/>
<path fill-rule="evenodd" clip-rule="evenodd" fill="#FFFFFF" stroke="#000000" stroke-width="6" stroke-miterlimit="10" d="
	M214.985,268.043c3.688,9.198,16.708,37.275,31.778,42.656"/>
</svg>
